%TF.GenerationSoftware,KiCad,Pcbnew,8.0.9-8.0.9-0~ubuntu24.04.1*%
%TF.CreationDate,2025-05-29T22:28:41-04:00*%
%TF.ProjectId,smu2,736d7532-2e6b-4696-9361-645f70636258,rev?*%
%TF.SameCoordinates,Original*%
%TF.FileFunction,Copper,L1,Top*%
%TF.FilePolarity,Positive*%
%FSLAX46Y46*%
G04 Gerber Fmt 4.6, Leading zero omitted, Abs format (unit mm)*
G04 Created by KiCad (PCBNEW 8.0.9-8.0.9-0~ubuntu24.04.1) date 2025-05-29 22:28:41*
%MOMM*%
%LPD*%
G01*
G04 APERTURE LIST*
G04 Aperture macros list*
%AMRoundRect*
0 Rectangle with rounded corners*
0 $1 Rounding radius*
0 $2 $3 $4 $5 $6 $7 $8 $9 X,Y pos of 4 corners*
0 Add a 4 corners polygon primitive as box body*
4,1,4,$2,$3,$4,$5,$6,$7,$8,$9,$2,$3,0*
0 Add four circle primitives for the rounded corners*
1,1,$1+$1,$2,$3*
1,1,$1+$1,$4,$5*
1,1,$1+$1,$6,$7*
1,1,$1+$1,$8,$9*
0 Add four rect primitives between the rounded corners*
20,1,$1+$1,$2,$3,$4,$5,0*
20,1,$1+$1,$4,$5,$6,$7,0*
20,1,$1+$1,$6,$7,$8,$9,0*
20,1,$1+$1,$8,$9,$2,$3,0*%
G04 Aperture macros list end*
%TA.AperFunction,Conductor*%
%ADD10C,0.200000*%
%TD*%
%TA.AperFunction,Conductor*%
%ADD11C,0.254000*%
%TD*%
%TA.AperFunction,SMDPad,CuDef*%
%ADD12RoundRect,0.200000X0.200000X0.275000X-0.200000X0.275000X-0.200000X-0.275000X0.200000X-0.275000X0*%
%TD*%
%TA.AperFunction,SMDPad,CuDef*%
%ADD13R,0.250000X0.700000*%
%TD*%
%TA.AperFunction,SMDPad,CuDef*%
%ADD14R,1.805000X1.650000*%
%TD*%
%TA.AperFunction,SMDPad,CuDef*%
%ADD15R,1.070000X1.650000*%
%TD*%
%TA.AperFunction,SMDPad,CuDef*%
%ADD16RoundRect,0.100000X-0.637500X-0.100000X0.637500X-0.100000X0.637500X0.100000X-0.637500X0.100000X0*%
%TD*%
%TA.AperFunction,SMDPad,CuDef*%
%ADD17RoundRect,0.225000X-0.250000X0.225000X-0.250000X-0.225000X0.250000X-0.225000X0.250000X0.225000X0*%
%TD*%
%TA.AperFunction,SMDPad,CuDef*%
%ADD18R,0.700000X1.500000*%
%TD*%
%TA.AperFunction,SMDPad,CuDef*%
%ADD19R,1.500000X0.700000*%
%TD*%
%TA.AperFunction,SMDPad,CuDef*%
%ADD20RoundRect,0.225000X0.250000X-0.225000X0.250000X0.225000X-0.250000X0.225000X-0.250000X-0.225000X0*%
%TD*%
%TA.AperFunction,SMDPad,CuDef*%
%ADD21RoundRect,0.225000X-0.225000X-0.250000X0.225000X-0.250000X0.225000X0.250000X-0.225000X0.250000X0*%
%TD*%
%TA.AperFunction,SMDPad,CuDef*%
%ADD22RoundRect,0.100000X-0.712500X-0.100000X0.712500X-0.100000X0.712500X0.100000X-0.712500X0.100000X0*%
%TD*%
%TA.AperFunction,SMDPad,CuDef*%
%ADD23R,1.000000X0.500000*%
%TD*%
%TA.AperFunction,SMDPad,CuDef*%
%ADD24RoundRect,0.225000X0.225000X0.250000X-0.225000X0.250000X-0.225000X-0.250000X0.225000X-0.250000X0*%
%TD*%
%TA.AperFunction,SMDPad,CuDef*%
%ADD25RoundRect,0.200000X-0.200000X-0.275000X0.200000X-0.275000X0.200000X0.275000X-0.200000X0.275000X0*%
%TD*%
%TA.AperFunction,SMDPad,CuDef*%
%ADD26RoundRect,0.250000X-0.312500X-0.625000X0.312500X-0.625000X0.312500X0.625000X-0.312500X0.625000X0*%
%TD*%
%TA.AperFunction,SMDPad,CuDef*%
%ADD27C,1.000000*%
%TD*%
%TA.AperFunction,SMDPad,CuDef*%
%ADD28RoundRect,0.243750X0.243750X0.456250X-0.243750X0.456250X-0.243750X-0.456250X0.243750X-0.456250X0*%
%TD*%
%TA.AperFunction,SMDPad,CuDef*%
%ADD29R,1.524000X1.524000*%
%TD*%
%TA.AperFunction,SMDPad,CuDef*%
%ADD30C,1.524000*%
%TD*%
%TA.AperFunction,ComponentPad*%
%ADD31C,1.500000*%
%TD*%
%TA.AperFunction,SMDPad,CuDef*%
%ADD32RoundRect,0.055000X-0.220000X-0.695000X0.220000X-0.695000X0.220000X0.695000X-0.220000X0.695000X0*%
%TD*%
%TA.AperFunction,SMDPad,CuDef*%
%ADD33RoundRect,0.075000X0.737500X0.075000X-0.737500X0.075000X-0.737500X-0.075000X0.737500X-0.075000X0*%
%TD*%
%TA.AperFunction,SMDPad,CuDef*%
%ADD34RoundRect,0.150000X0.587500X0.150000X-0.587500X0.150000X-0.587500X-0.150000X0.587500X-0.150000X0*%
%TD*%
%TA.AperFunction,ComponentPad*%
%ADD35R,1.700000X1.700000*%
%TD*%
%TA.AperFunction,ComponentPad*%
%ADD36O,1.700000X1.700000*%
%TD*%
%TA.AperFunction,SMDPad,CuDef*%
%ADD37RoundRect,0.200000X0.275000X-0.200000X0.275000X0.200000X-0.275000X0.200000X-0.275000X-0.200000X0*%
%TD*%
%TA.AperFunction,SMDPad,CuDef*%
%ADD38RoundRect,0.100000X0.712500X0.100000X-0.712500X0.100000X-0.712500X-0.100000X0.712500X-0.100000X0*%
%TD*%
%TA.AperFunction,SMDPad,CuDef*%
%ADD39R,1.250000X4.700000*%
%TD*%
%TA.AperFunction,SMDPad,CuDef*%
%ADD40R,1.100000X0.250000*%
%TD*%
%TA.AperFunction,SMDPad,CuDef*%
%ADD41RoundRect,0.200000X-0.275000X0.200000X-0.275000X-0.200000X0.275000X-0.200000X0.275000X0.200000X0*%
%TD*%
%TA.AperFunction,SMDPad,CuDef*%
%ADD42RoundRect,0.243750X-0.456250X0.243750X-0.456250X-0.243750X0.456250X-0.243750X0.456250X0.243750X0*%
%TD*%
%TA.AperFunction,SMDPad,CuDef*%
%ADD43RoundRect,0.243750X0.456250X-0.243750X0.456250X0.243750X-0.456250X0.243750X-0.456250X-0.243750X0*%
%TD*%
%TA.AperFunction,SMDPad,CuDef*%
%ADD44RoundRect,0.100000X0.637500X0.100000X-0.637500X0.100000X-0.637500X-0.100000X0.637500X-0.100000X0*%
%TD*%
%TA.AperFunction,SMDPad,CuDef*%
%ADD45RoundRect,0.243750X-0.243750X-0.456250X0.243750X-0.456250X0.243750X0.456250X-0.243750X0.456250X0*%
%TD*%
%TA.AperFunction,SMDPad,CuDef*%
%ADD46RoundRect,0.050000X-0.350000X-0.075000X0.350000X-0.075000X0.350000X0.075000X-0.350000X0.075000X0*%
%TD*%
%TA.AperFunction,SMDPad,CuDef*%
%ADD47RoundRect,0.050000X0.075000X-0.350000X0.075000X0.350000X-0.075000X0.350000X-0.075000X-0.350000X0*%
%TD*%
%TA.AperFunction,SMDPad,CuDef*%
%ADD48R,2.450000X2.450000*%
%TD*%
%TA.AperFunction,SMDPad,CuDef*%
%ADD49RoundRect,0.112500X-0.837500X-0.112500X0.837500X-0.112500X0.837500X0.112500X-0.837500X0.112500X0*%
%TD*%
%TA.AperFunction,SMDPad,CuDef*%
%ADD50R,0.600000X1.100000*%
%TD*%
%TA.AperFunction,SMDPad,CuDef*%
%ADD51R,1.150000X0.580000*%
%TD*%
%TA.AperFunction,SMDPad,CuDef*%
%ADD52R,1.150000X0.280000*%
%TD*%
%TA.AperFunction,ComponentPad*%
%ADD53O,2.100000X1.050000*%
%TD*%
%TA.AperFunction,ComponentPad*%
%ADD54O,2.000000X1.000000*%
%TD*%
%TA.AperFunction,SMDPad,CuDef*%
%ADD55R,0.300000X0.850000*%
%TD*%
%TA.AperFunction,SMDPad,CuDef*%
%ADD56R,0.850000X0.300000*%
%TD*%
%TA.AperFunction,SMDPad,CuDef*%
%ADD57R,5.499999X5.499999*%
%TD*%
%TA.AperFunction,ViaPad*%
%ADD58C,0.609600*%
%TD*%
%TA.AperFunction,Conductor*%
%ADD59C,0.152400*%
%TD*%
%TA.AperFunction,Conductor*%
%ADD60C,0.635000*%
%TD*%
%TA.AperFunction,Conductor*%
%ADD61C,0.381000*%
%TD*%
%TA.AperFunction,Conductor*%
%ADD62C,0.508000*%
%TD*%
G04 APERTURE END LIST*
D10*
%TO.N,Net-(U25-VPOS)*%
X100533200Y-126974600D02*
X101015800Y-127304800D01*
X101015800Y-127863600D01*
X100888800Y-127863600D01*
X99237800Y-126695200D01*
X99898200Y-126060200D01*
X100533200Y-126974600D01*
%TA.AperFunction,Conductor*%
G36*
X100533200Y-126974600D02*
G01*
X101015800Y-127304800D01*
X101015800Y-127863600D01*
X100888800Y-127863600D01*
X99237800Y-126695200D01*
X99898200Y-126060200D01*
X100533200Y-126974600D01*
G37*
%TD.AperFunction*%
%TO.N,Net-(D5-Pad1)*%
X110236000Y-124231400D02*
X111785400Y-125806200D01*
X111785400Y-126949200D01*
X111099600Y-127762000D01*
X110032800Y-129743200D01*
X108940600Y-129743200D01*
X108940600Y-125196600D01*
X109651800Y-124231400D01*
X109651800Y-122529600D01*
X110236000Y-122529600D01*
X110236000Y-124231400D01*
%TA.AperFunction,Conductor*%
G36*
X110236000Y-124231400D02*
G01*
X111785400Y-125806200D01*
X111785400Y-126949200D01*
X111099600Y-127762000D01*
X110032800Y-129743200D01*
X108940600Y-129743200D01*
X108940600Y-125196600D01*
X109651800Y-124231400D01*
X109651800Y-122529600D01*
X110236000Y-122529600D01*
X110236000Y-124231400D01*
G37*
%TD.AperFunction*%
%TO.N,-12V*%
X105384600Y-131749800D02*
X104673400Y-131749800D01*
X103962200Y-130784600D01*
X103962200Y-130175000D01*
X104089200Y-130175000D01*
X105384600Y-131749800D01*
%TA.AperFunction,Conductor*%
G36*
X105384600Y-131749800D02*
G01*
X104673400Y-131749800D01*
X103962200Y-130784600D01*
X103962200Y-130175000D01*
X104089200Y-130175000D01*
X105384600Y-131749800D01*
G37*
%TD.AperFunction*%
%TO.N,+5V*%
X103936800Y-123545600D02*
X104724200Y-123545600D01*
X105664000Y-122555000D01*
X106248200Y-122555000D01*
X106248200Y-123494800D01*
X105752900Y-123977400D01*
X105283000Y-123977400D01*
X104571800Y-124688600D01*
X104394000Y-124688600D01*
X103936800Y-123952000D01*
X103174800Y-123190000D01*
X102895400Y-123190000D01*
X102895400Y-122453400D01*
X102946200Y-122453400D01*
X103936800Y-123545600D01*
%TA.AperFunction,Conductor*%
G36*
X103936800Y-123545600D02*
G01*
X104724200Y-123545600D01*
X105664000Y-122555000D01*
X106248200Y-122555000D01*
X106248200Y-123494800D01*
X105752900Y-123977400D01*
X105283000Y-123977400D01*
X104571800Y-124688600D01*
X104394000Y-124688600D01*
X103936800Y-123952000D01*
X103174800Y-123190000D01*
X102895400Y-123190000D01*
X102895400Y-122453400D01*
X102946200Y-122453400D01*
X103936800Y-123545600D01*
G37*
%TD.AperFunction*%
%TO.N,GND*%
X107416600Y-127355600D02*
X107416600Y-127508000D01*
X107416600Y-127660400D01*
X106807000Y-129743200D01*
X106807000Y-125272800D01*
X107416600Y-127355600D01*
%TA.AperFunction,Conductor*%
G36*
X107416600Y-127355600D02*
G01*
X107416600Y-127508000D01*
X107416600Y-127660400D01*
X106807000Y-129743200D01*
X106807000Y-125272800D01*
X107416600Y-127355600D01*
G37*
%TD.AperFunction*%
%TO.N,Net-(C57-Pad1)*%
X101117400Y-119888000D02*
X100025200Y-121716800D01*
X99644200Y-124002800D01*
X98374200Y-123850400D01*
X98348800Y-116992400D01*
X100025200Y-115366800D01*
X101117400Y-115366800D01*
X101117400Y-119888000D01*
%TA.AperFunction,Conductor*%
G36*
X101117400Y-119888000D02*
G01*
X100025200Y-121716800D01*
X99644200Y-124002800D01*
X98374200Y-123850400D01*
X98348800Y-116992400D01*
X100025200Y-115366800D01*
X101117400Y-115366800D01*
X101117400Y-119888000D01*
G37*
%TD.AperFunction*%
%TO.N,Net-(D4-Pad2)*%
X105460800Y-116865400D02*
X106832400Y-117779800D01*
X106883200Y-118465600D01*
X106730800Y-119405400D01*
X106730800Y-120142000D01*
X106273600Y-120573800D01*
X105587800Y-120573800D01*
X103352600Y-119938800D01*
X103352600Y-115366800D01*
X104444800Y-115366800D01*
X105460800Y-116865400D01*
%TA.AperFunction,Conductor*%
G36*
X105460800Y-116865400D02*
G01*
X106832400Y-117779800D01*
X106883200Y-118465600D01*
X106730800Y-119405400D01*
X106730800Y-120142000D01*
X106273600Y-120573800D01*
X105587800Y-120573800D01*
X103352600Y-119938800D01*
X103352600Y-115366800D01*
X104444800Y-115366800D01*
X105460800Y-116865400D01*
G37*
%TD.AperFunction*%
%TO.N,+12V*%
X101015800Y-130784600D02*
X100812600Y-131775200D01*
X100101400Y-131775200D01*
X100914200Y-130175000D01*
X101015800Y-130175000D01*
X101015800Y-130784600D01*
%TA.AperFunction,Conductor*%
G36*
X101015800Y-130784600D02*
G01*
X100812600Y-131775200D01*
X100101400Y-131775200D01*
X100914200Y-130175000D01*
X101015800Y-130175000D01*
X101015800Y-130784600D01*
G37*
%TD.AperFunction*%
D11*
%TO.N,Net-(U25-VNEG)*%
X105156000Y-129921000D02*
X105664000Y-130429000D01*
X104902000Y-130429000D01*
X104140000Y-129667000D01*
X103251000Y-129667000D01*
X103251000Y-128397000D01*
X104140000Y-128397000D01*
X105156000Y-129921000D01*
%TA.AperFunction,Conductor*%
G36*
X105156000Y-129921000D02*
G01*
X105664000Y-130429000D01*
X104902000Y-130429000D01*
X104140000Y-129667000D01*
X103251000Y-129667000D01*
X103251000Y-128397000D01*
X104140000Y-128397000D01*
X105156000Y-129921000D01*
G37*
%TD.AperFunction*%
%TD*%
D12*
%TO.P,R25,1*%
%TO.N,Net-(R22-Pad2)*%
X134048000Y-93218000D03*
%TO.P,R25,2*%
%TO.N,GND*%
X132398000Y-93218000D03*
%TD*%
D13*
%TO.P,U26,1,OUTP*%
%TO.N,+12V*%
X100989000Y-130432000D03*
%TO.P,U26,2,NC*%
%TO.N,unconnected-(U26-NC-Pad2)*%
X101489000Y-130432000D03*
%TO.P,U26,3,BYPP*%
%TO.N,Net-(U26-BYPP)*%
X101989000Y-130432000D03*
%TO.P,U26,4,GND*%
%TO.N,GND*%
X102489000Y-130432000D03*
%TO.P,U26,5,GND*%
X102989000Y-130432000D03*
%TO.P,U26,6,INN*%
%TO.N,Net-(U25-VNEG)*%
X103489000Y-130432000D03*
%TO.P,U26,7,OUTN*%
%TO.N,-12V*%
X103989000Y-130432000D03*
%TO.P,U26,8,NC*%
%TO.N,unconnected-(U26-NC-Pad8)*%
X103989000Y-127632000D03*
%TO.P,U26,9,INN*%
%TO.N,Net-(U25-VNEG)*%
X103489000Y-127632000D03*
%TO.P,U26,10,~{SHDNN}*%
%TO.N,/ENA12V*%
X102989000Y-127632000D03*
%TO.P,U26,11,BYPN*%
%TO.N,Net-(U26-BYPN)*%
X102489000Y-127632000D03*
%TO.P,U26,12,~{SHDNP}*%
%TO.N,/ENA12V*%
X101989000Y-127632000D03*
%TO.P,U26,13,NC*%
%TO.N,unconnected-(U26-NC-Pad13)*%
X101489000Y-127632000D03*
%TO.P,U26,14,INP*%
%TO.N,Net-(U25-VPOS)*%
X100989000Y-127632000D03*
D14*
%TO.P,U26,15,GND*%
%TO.N,GND*%
X101711500Y-129032000D03*
D15*
%TO.P,U26,16,INN*%
%TO.N,Net-(U25-VNEG)*%
X103634000Y-129032000D03*
%TD*%
D16*
%TO.P,U12,1*%
%TO.N,/RD0*%
X153220500Y-93864000D03*
%TO.P,U12,2*%
%TO.N,/RD6*%
X153220500Y-94514000D03*
%TO.P,U12,3,VSS*%
%TO.N,-12V*%
X153220500Y-95164000D03*
%TO.P,U12,4*%
%TO.N,Net-(C32-Pad1)*%
X153220500Y-95814000D03*
%TO.P,U12,5*%
%TO.N,Net-(R35-Pad1)*%
X153220500Y-96464000D03*
%TO.P,U12,6*%
%TO.N,Net-(R36-Pad1)*%
X153220500Y-97114000D03*
%TO.P,U12,7*%
%TO.N,Net-(R37-Pad1)*%
X153220500Y-97764000D03*
%TO.P,U12,8*%
%TO.N,Net-(U12-Pad8)*%
X153220500Y-98414000D03*
%TO.P,U12,9*%
%TO.N,Net-(U10-Pad3)*%
X158945500Y-98414000D03*
%TO.P,U12,10*%
%TO.N,Net-(R37-Pad1)*%
X158945500Y-97764000D03*
%TO.P,U12,11*%
%TO.N,Net-(R36-Pad1)*%
X158945500Y-97114000D03*
%TO.P,U12,12*%
%TO.N,Net-(R35-Pad1)*%
X158945500Y-96464000D03*
%TO.P,U12,13*%
%TO.N,Net-(C32-Pad1)*%
X158945500Y-95814000D03*
%TO.P,U12,14,VDD*%
%TO.N,+12V*%
X158945500Y-95164000D03*
%TO.P,U12,15,GND*%
%TO.N,GND*%
X158945500Y-94514000D03*
%TO.P,U12,16*%
%TO.N,/RD1*%
X158945500Y-93864000D03*
%TD*%
D12*
%TO.P,R16,1*%
%TO.N,Net-(R15-Pad2)*%
X128968000Y-98044000D03*
%TO.P,R16,2*%
%TO.N,GND*%
X127318000Y-98044000D03*
%TD*%
D17*
%TO.P,C12,1*%
%TO.N,+3V3*%
X125349000Y-104635000D03*
%TO.P,C12,2*%
%TO.N,GND*%
X125349000Y-106185000D03*
%TD*%
D18*
%TO.P,U5,1,N.C.*%
%TO.N,unconnected-(U5-N.C.-Pad1)*%
X90399000Y-99500000D03*
%TO.P,U5,2,GND*%
%TO.N,GND*%
X91599000Y-99500000D03*
%TO.P,U5,3,P1_2*%
%TO.N,unconnected-(U5-P1_2-Pad3)*%
X92799000Y-99500000D03*
%TO.P,U5,4,P1_3*%
%TO.N,unconnected-(U5-P1_3-Pad4)*%
X93999000Y-99500000D03*
%TO.P,U5,5,P1_7*%
%TO.N,unconnected-(U5-P1_7-Pad5)*%
X95199000Y-99500000D03*
D19*
%TO.P,U5,6,P1_6*%
%TO.N,/RX_IND*%
X96849000Y-98250000D03*
%TO.P,U5,7,HCI_RXD*%
%TO.N,/RX*%
X96849000Y-97050000D03*
%TO.P,U5,8,HCI_TXD*%
%TO.N,/TX*%
X96849000Y-95850000D03*
%TO.P,U5,9,P3_6*%
%TO.N,/RTS*%
X96849000Y-94650000D03*
%TO.P,U5,10,RST_N*%
%TO.N,/RST_N*%
X96849000Y-93450000D03*
%TO.P,U5,11,P0_0*%
%TO.N,/CTS*%
X96849000Y-92250000D03*
D18*
%TO.P,U5,12,P0_2*%
%TO.N,Net-(U5-P0_2)*%
X95199000Y-91000000D03*
%TO.P,U5,13,GND*%
%TO.N,GND*%
X93999000Y-91000000D03*
%TO.P,U5,14,VBAT*%
%TO.N,+3V3*%
X92799000Y-91000000D03*
%TO.P,U5,15,P2_7*%
%TO.N,unconnected-(U5-P2_7-Pad15)*%
X91599000Y-91000000D03*
%TO.P,U5,16,P2_0*%
%TO.N,unconnected-(U5-P2_0-Pad16)*%
X90399000Y-91000000D03*
%TD*%
D20*
%TO.P,C30,1*%
%TO.N,+12V*%
X160782000Y-101994000D03*
%TO.P,C30,2*%
%TO.N,GND*%
X160782000Y-100444000D03*
%TD*%
D12*
%TO.P,R39,1*%
%TO.N,Net-(R38-Pad2)*%
X128968000Y-122047000D03*
%TO.P,R39,2*%
%TO.N,GND*%
X127318000Y-122047000D03*
%TD*%
D21*
%TO.P,C17,1*%
%TO.N,+3V3*%
X93205000Y-89154000D03*
%TO.P,C17,2*%
%TO.N,GND*%
X94755000Y-89154000D03*
%TD*%
D17*
%TO.P,C19,1*%
%TO.N,GND*%
X130429000Y-100571000D03*
%TO.P,C19,2*%
%TO.N,+12V*%
X130429000Y-102121000D03*
%TD*%
D22*
%TO.P,U18,1,NC*%
%TO.N,unconnected-(U18-NC-Pad1)*%
X142159500Y-112563000D03*
%TO.P,U18,2*%
%TO.N,Net-(R46-Pad2)*%
X142159500Y-113213000D03*
%TO.P,U18,3*%
%TO.N,Net-(R47-Pad2)*%
X142159500Y-113863000D03*
%TO.P,U18,4*%
%TO.N,-12V*%
X142159500Y-114513000D03*
%TO.P,U18,5*%
%TO.N,+12V*%
X146384500Y-114513000D03*
%TO.P,U18,6*%
%TO.N,Net-(U17-Pad13)*%
X146384500Y-113863000D03*
%TO.P,U18,7*%
%TO.N,Net-(U17-Pad18)*%
X146384500Y-113213000D03*
%TO.P,U18,8*%
%TO.N,Net-(U18-Pad8)*%
X146384500Y-112563000D03*
%TD*%
D20*
%TO.P,C26,1*%
%TO.N,+12V*%
X148336000Y-101613000D03*
%TO.P,C26,2*%
%TO.N,GND*%
X148336000Y-100063000D03*
%TD*%
%TO.P,C25,1*%
%TO.N,-12V*%
X140208000Y-97295000D03*
%TO.P,C25,2*%
%TO.N,GND*%
X140208000Y-95745000D03*
%TD*%
%TO.P,C46,1*%
%TO.N,-12V*%
X140208000Y-118885000D03*
%TO.P,C46,2*%
%TO.N,GND*%
X140208000Y-117335000D03*
%TD*%
D23*
%TO.P,D1,1*%
%TO.N,Net-(D1-Pad1)*%
X100550000Y-88754000D03*
%TO.P,D1,2*%
%TO.N,Net-(D1-Pad2)*%
X102650000Y-88754000D03*
%TO.P,D1,3*%
%TO.N,+3V3*%
X100550000Y-89554000D03*
%TO.P,D1,4*%
%TO.N,Net-(D1-Pad4)*%
X102650000Y-89554000D03*
%TD*%
D12*
%TO.P,R6,1*%
%TO.N,+3V3*%
X116014000Y-90678000D03*
%TO.P,R6,2*%
%TO.N,Net-(U1-RC15{slash}OSCO)*%
X114364000Y-90678000D03*
%TD*%
D17*
%TO.P,C21,1*%
%TO.N,GND*%
X130429000Y-96253000D03*
%TO.P,C21,2*%
%TO.N,+12V*%
X130429000Y-97803000D03*
%TD*%
D12*
%TO.P,R15,1*%
%TO.N,/CH1IN-*%
X128968000Y-99568000D03*
%TO.P,R15,2*%
%TO.N,Net-(R15-Pad2)*%
X127318000Y-99568000D03*
%TD*%
%TO.P,R40,1*%
%TO.N,/CH2IN-*%
X128968000Y-116840000D03*
%TO.P,R40,2*%
%TO.N,Net-(R40-Pad2)*%
X127318000Y-116840000D03*
%TD*%
D21*
%TO.P,C14,1*%
%TO.N,+3V3*%
X126860000Y-110998000D03*
%TO.P,C14,2*%
%TO.N,GND*%
X128410000Y-110998000D03*
%TD*%
%TO.P,C51,1*%
%TO.N,Net-(C51-Pad1)*%
X162420000Y-114427000D03*
%TO.P,C51,2*%
%TO.N,Net-(C51-Pad2)*%
X163970000Y-114427000D03*
%TD*%
D24*
%TO.P,C58,1*%
%TO.N,Net-(U25-VIN)*%
X104280000Y-121285000D03*
%TO.P,C58,2*%
%TO.N,GND*%
X102730000Y-121285000D03*
%TD*%
D17*
%TO.P,C54,1*%
%TO.N,-12V*%
X152908000Y-112128000D03*
%TO.P,C54,2*%
%TO.N,GND*%
X152908000Y-113678000D03*
%TD*%
%TO.P,C52,1*%
%TO.N,+12V*%
X162941000Y-130035000D03*
%TO.P,C52,2*%
%TO.N,GND*%
X162941000Y-131585000D03*
%TD*%
%TO.P,C55,1*%
%TO.N,+12V*%
X154432000Y-113398000D03*
%TO.P,C55,2*%
%TO.N,GND*%
X154432000Y-114948000D03*
%TD*%
D12*
%TO.P,R17,1*%
%TO.N,/CH1IN+*%
X128968000Y-107823000D03*
%TO.P,R17,2*%
%TO.N,Net-(R13-Pad2)*%
X127318000Y-107823000D03*
%TD*%
D21*
%TO.P,C57,1*%
%TO.N,Net-(C57-Pad1)*%
X99682000Y-121285000D03*
%TO.P,C57,2*%
%TO.N,GND*%
X101232000Y-121285000D03*
%TD*%
D17*
%TO.P,C38,1*%
%TO.N,GND*%
X130429000Y-117843000D03*
%TO.P,C38,2*%
%TO.N,+12V*%
X130429000Y-119393000D03*
%TD*%
%TO.P,C41,1*%
%TO.N,GND*%
X138557000Y-113525000D03*
%TO.P,C41,2*%
%TO.N,-12V*%
X138557000Y-115075000D03*
%TD*%
D25*
%TO.P,R68,1*%
%TO.N,Net-(U25-VPOS)*%
X108395000Y-115316000D03*
%TO.P,R68,2*%
%TO.N,Net-(U25-FBP)*%
X110045000Y-115316000D03*
%TD*%
D12*
%TO.P,R27,1*%
%TO.N,Net-(R27-Pad1)*%
X153479000Y-109855000D03*
%TO.P,R27,2*%
%TO.N,Net-(R27-Pad2)*%
X151829000Y-109855000D03*
%TD*%
D26*
%TO.P,R37,1*%
%TO.N,Net-(R37-Pad1)*%
X160970500Y-98552000D03*
%TO.P,R37,2*%
%TO.N,/CH1DUT+*%
X163895500Y-98552000D03*
%TD*%
D20*
%TO.P,C2,1*%
%TO.N,GND*%
X109829600Y-110630000D03*
%TO.P,C2,2*%
%TO.N,Net-(U1-RC13{slash}SOSCI)*%
X109829600Y-109080000D03*
%TD*%
D27*
%TO.P,FID4,*%
%TO.N,*%
X182880000Y-135890000D03*
%TD*%
D12*
%TO.P,R38,1*%
%TO.N,/CH2IN+*%
X128968000Y-123571000D03*
%TO.P,R38,2*%
%TO.N,Net-(R38-Pad2)*%
X127318000Y-123571000D03*
%TD*%
%TO.P,R23,1*%
%TO.N,Net-(R15-Pad2)*%
X128968000Y-96520000D03*
%TO.P,R23,2*%
%TO.N,/VREF*%
X127318000Y-96520000D03*
%TD*%
D28*
%TO.P,D2,1,K*%
%TO.N,Net-(D2-K)*%
X98346500Y-89154000D03*
%TO.P,D2,2,A*%
%TO.N,+3V3*%
X96471500Y-89154000D03*
%TD*%
D25*
%TO.P,R57,1*%
%TO.N,Net-(R57-Pad1)*%
X162370000Y-125857000D03*
%TO.P,R57,2*%
%TO.N,/CH2DUT-*%
X164020000Y-125857000D03*
%TD*%
D17*
%TO.P,C33,1*%
%TO.N,+12V*%
X162941000Y-107683000D03*
%TO.P,C33,2*%
%TO.N,GND*%
X162941000Y-109233000D03*
%TD*%
D12*
%TO.P,R28,1*%
%TO.N,Net-(R27-Pad1)*%
X153479000Y-108331000D03*
%TO.P,R28,2*%
%TO.N,Net-(R27-Pad2)*%
X151829000Y-108331000D03*
%TD*%
D20*
%TO.P,C50,1*%
%TO.N,+12V*%
X160782000Y-117488000D03*
%TO.P,C50,2*%
%TO.N,GND*%
X160782000Y-115938000D03*
%TD*%
D21*
%TO.P,C62,1*%
%TO.N,Net-(U25-CN)*%
X111620000Y-119888000D03*
%TO.P,C62,2*%
%TO.N,GND*%
X113170000Y-119888000D03*
%TD*%
D17*
%TO.P,C42,1*%
%TO.N,+12V*%
X149098000Y-123812000D03*
%TO.P,C42,2*%
%TO.N,GND*%
X149098000Y-125362000D03*
%TD*%
D29*
%TO.P,J1,1,Pin_1*%
%TO.N,Net-(J1-Pin_1)*%
X107950000Y-86360000D03*
D30*
%TO.P,J1,2,Pin_2*%
%TO.N,+3V3*%
X110490000Y-86360000D03*
%TO.P,J1,3,Pin_3*%
%TO.N,GND*%
X113030000Y-86360000D03*
%TO.P,J1,4,Pin_4*%
%TO.N,/D3*%
X115570000Y-86360000D03*
%TO.P,J1,5,Pin_5*%
%TO.N,/D2*%
X118110000Y-86360000D03*
%TO.P,J1,6,Pin_6*%
%TO.N,unconnected-(J1-Pin_6-Pad6)*%
X120650000Y-86360000D03*
%TD*%
D31*
%TO.P,TP1,1,1*%
%TO.N,/VREF*%
X123825000Y-99060000D03*
%TD*%
D24*
%TO.P,C68,1*%
%TO.N,-12V*%
X105042000Y-133604000D03*
%TO.P,C68,2*%
%TO.N,GND*%
X103492000Y-133604000D03*
%TD*%
D12*
%TO.P,R53,1*%
%TO.N,Net-(R52-Pad1)*%
X153479000Y-130683000D03*
%TO.P,R53,2*%
%TO.N,Net-(R52-Pad2)*%
X151829000Y-130683000D03*
%TD*%
%TO.P,R10,1*%
%TO.N,Net-(D2-K)*%
X99631000Y-91059000D03*
%TO.P,R10,2*%
%TO.N,Net-(U5-P0_2)*%
X97981000Y-91059000D03*
%TD*%
D17*
%TO.P,C36,1*%
%TO.N,+12V*%
X154432000Y-91046000D03*
%TO.P,C36,2*%
%TO.N,GND*%
X154432000Y-92596000D03*
%TD*%
D12*
%TO.P,R14,1*%
%TO.N,Net-(R13-Pad2)*%
X128968000Y-104775000D03*
%TO.P,R14,2*%
%TO.N,GND*%
X127318000Y-104775000D03*
%TD*%
D32*
%TO.P,S2,1,1*%
%TO.N,GND*%
X109754000Y-91694000D03*
%TO.P,S2,2,2*%
%TO.N,Net-(U1-RC15{slash}OSCO)*%
X113004000Y-91694000D03*
%TD*%
D25*
%TO.P,R30,1*%
%TO.N,Net-(R30-Pad1)*%
X162370000Y-100457000D03*
%TO.P,R30,2*%
%TO.N,/CH1DUT-*%
X164020000Y-100457000D03*
%TD*%
D12*
%TO.P,R2,1*%
%TO.N,+3V3*%
X116014000Y-89154000D03*
%TO.P,R2,2*%
%TO.N,Net-(J1-Pin_1)*%
X114364000Y-89154000D03*
%TD*%
D20*
%TO.P,C8,1*%
%TO.N,GND*%
X105892600Y-108852000D03*
%TO.P,C8,2*%
%TO.N,+3V3*%
X105892600Y-107302000D03*
%TD*%
D22*
%TO.P,U9,1,NC*%
%TO.N,unconnected-(U9-NC-Pad1)*%
X142159500Y-95291000D03*
%TO.P,U9,2*%
%TO.N,Net-(R21-Pad2)*%
X142159500Y-95941000D03*
%TO.P,U9,3*%
%TO.N,Net-(R22-Pad2)*%
X142159500Y-96591000D03*
%TO.P,U9,4*%
%TO.N,-12V*%
X142159500Y-97241000D03*
%TO.P,U9,5*%
%TO.N,+12V*%
X146384500Y-97241000D03*
%TO.P,U9,6*%
%TO.N,Net-(U8-Pad13)*%
X146384500Y-96591000D03*
%TO.P,U9,7*%
%TO.N,Net-(U8-Pad18)*%
X146384500Y-95941000D03*
%TO.P,U9,8*%
%TO.N,Net-(U12-Pad8)*%
X146384500Y-95291000D03*
%TD*%
D33*
%TO.P,U23,1*%
%TO.N,/RE5*%
X160481500Y-114030000D03*
%TO.P,U23,2*%
%TO.N,Net-(C51-Pad2)*%
X160481500Y-113530000D03*
%TO.P,U23,3*%
%TO.N,GND*%
X160481500Y-113030000D03*
%TO.P,U23,4*%
%TO.N,unconnected-(U23-Pad4)*%
X160481500Y-112530000D03*
%TO.P,U23,5*%
%TO.N,unconnected-(U23-Pad5)*%
X160481500Y-112030000D03*
%TO.P,U23,6,VSS*%
%TO.N,-12V*%
X156256500Y-112030000D03*
%TO.P,U23,7,NC*%
%TO.N,unconnected-(U23C-NC-Pad7)*%
X156256500Y-112530000D03*
%TO.P,U23,8,GND*%
%TO.N,GND*%
X156256500Y-113030000D03*
%TO.P,U23,9,VDD*%
%TO.N,+12V*%
X156256500Y-113530000D03*
%TO.P,U23,10*%
%TO.N,unconnected-(U23-Pad10)*%
X156256500Y-114030000D03*
%TD*%
D27*
%TO.P,FID2,*%
%TO.N,*%
X91440000Y-86360000D03*
%TD*%
D34*
%TO.P,Q1,1*%
%TO.N,Net-(U25-BSW)*%
X100886500Y-124775000D03*
%TO.P,Q1,2*%
%TO.N,+5V*%
X100886500Y-122875000D03*
%TO.P,Q1,3*%
%TO.N,Net-(C57-Pad1)*%
X99011500Y-123825000D03*
%TD*%
D31*
%TO.P,TP2,1,1*%
%TO.N,GND*%
X121285000Y-99060000D03*
%TD*%
D25*
%TO.P,R7,1*%
%TO.N,Net-(J2-CC1)*%
X94679000Y-105029000D03*
%TO.P,R7,2*%
%TO.N,GND*%
X96329000Y-105029000D03*
%TD*%
D35*
%TO.P,J5,1,Pin_1*%
%TO.N,+5V*%
X170180000Y-97155000D03*
D36*
%TO.P,J5,2,Pin_2*%
%TO.N,GND*%
X172720000Y-97155000D03*
%TO.P,J5,3,Pin_3*%
%TO.N,/CH2DUT-*%
X175260000Y-97155000D03*
%TO.P,J5,4,Pin_4*%
%TO.N,/CH2DUT+*%
X177800000Y-97155000D03*
%TO.P,J5,5,Pin_5*%
%TO.N,/CH1DUT-*%
X180340000Y-97155000D03*
%TO.P,J5,6,Pin_6*%
%TO.N,/CH1DUT+*%
X182880000Y-97155000D03*
%TD*%
D12*
%TO.P,R42,1*%
%TO.N,/CH2IN+*%
X128968000Y-125095000D03*
%TO.P,R42,2*%
%TO.N,Net-(R38-Pad2)*%
X127318000Y-125095000D03*
%TD*%
%TO.P,R26,1*%
%TO.N,Net-(R13-Pad2)*%
X128968000Y-103251000D03*
%TO.P,R26,2*%
%TO.N,/VREF*%
X127318000Y-103251000D03*
%TD*%
%TO.P,R67,1*%
%TO.N,Net-(U25-FBN)*%
X113220000Y-124460000D03*
%TO.P,R67,2*%
%TO.N,Net-(U25-VNEG)*%
X111570000Y-124460000D03*
%TD*%
D37*
%TO.P,R65,1*%
%TO.N,+3V3*%
X178816000Y-90868000D03*
%TO.P,R65,2*%
%TO.N,Net-(D3-A)*%
X178816000Y-89218000D03*
%TD*%
D22*
%TO.P,U10,1,NC*%
%TO.N,unconnected-(U10-NC-Pad1)*%
X142159500Y-99609000D03*
%TO.P,U10,2*%
%TO.N,Net-(R27-Pad1)*%
X142159500Y-100259000D03*
%TO.P,U10,3*%
%TO.N,Net-(U10-Pad3)*%
X142159500Y-100909000D03*
%TO.P,U10,4*%
%TO.N,-12V*%
X142159500Y-101559000D03*
%TO.P,U10,5*%
%TO.N,+12V*%
X146384500Y-101559000D03*
%TO.P,U10,6*%
%TO.N,Net-(R29-Pad2)*%
X146384500Y-100909000D03*
%TO.P,U10,7*%
%TO.N,Net-(U10-Pad7)*%
X146384500Y-100259000D03*
%TO.P,U10,8*%
%TO.N,Net-(U10-Pad8)*%
X146384500Y-99609000D03*
%TD*%
D25*
%TO.P,R35,1*%
%TO.N,Net-(R35-Pad1)*%
X162370000Y-95123000D03*
%TO.P,R35,2*%
%TO.N,/CH1DUT+*%
X164020000Y-95123000D03*
%TD*%
D34*
%TO.P,U24,1,GND*%
%TO.N,GND*%
X108633500Y-133538000D03*
%TO.P,U24,2,VOUT*%
%TO.N,+3V3*%
X108633500Y-131638000D03*
%TO.P,U24,3,VIN*%
%TO.N,+5V*%
X106758500Y-132588000D03*
%TD*%
D24*
%TO.P,C64,1*%
%TO.N,Net-(U25-VNEG)*%
X113297000Y-128270000D03*
%TO.P,C64,2*%
%TO.N,GND*%
X111747000Y-128270000D03*
%TD*%
D37*
%TO.P,R8,1*%
%TO.N,+5V*%
X103860600Y-108902000D03*
%TO.P,R8,2*%
%TO.N,Net-(U1-VBUS)*%
X103860600Y-107252000D03*
%TD*%
D20*
%TO.P,C28,1*%
%TO.N,-12V*%
X151384000Y-101994000D03*
%TO.P,C28,2*%
%TO.N,GND*%
X151384000Y-100444000D03*
%TD*%
D25*
%TO.P,R34,1*%
%TO.N,Net-(C32-Pad1)*%
X162370000Y-93599000D03*
%TO.P,R34,2*%
%TO.N,/CH1DUT+*%
X164020000Y-93599000D03*
%TD*%
D35*
%TO.P,J4,1,Pin_1*%
%TO.N,+5V*%
X144780000Y-134620000D03*
D36*
%TO.P,J4,2,Pin_2*%
%TO.N,GND*%
X144780000Y-132080000D03*
%TD*%
D12*
%TO.P,R44,1*%
%TO.N,/CH2OUT+*%
X137096000Y-110490000D03*
%TO.P,R44,2*%
%TO.N,Net-(R44-Pad2)*%
X135446000Y-110490000D03*
%TD*%
D17*
%TO.P,C22,1*%
%TO.N,GND*%
X138557000Y-96253000D03*
%TO.P,C22,2*%
%TO.N,-12V*%
X138557000Y-97803000D03*
%TD*%
D25*
%TO.P,R64,1*%
%TO.N,+5V*%
X102680000Y-122809000D03*
%TO.P,R64,2*%
%TO.N,Net-(U25-VIN)*%
X104330000Y-122809000D03*
%TD*%
D17*
%TO.P,C59,1*%
%TO.N,+3V3*%
X110363000Y-131686000D03*
%TO.P,C59,2*%
%TO.N,GND*%
X110363000Y-133236000D03*
%TD*%
D25*
%TO.P,R31,1*%
%TO.N,Net-(R31-Pad1)*%
X162370000Y-101981000D03*
%TO.P,R31,2*%
%TO.N,/CH1DUT-*%
X164020000Y-101981000D03*
%TD*%
D21*
%TO.P,C61,1*%
%TO.N,Net-(U25-VREF)*%
X111620000Y-121412000D03*
%TO.P,C61,2*%
%TO.N,GND*%
X113170000Y-121412000D03*
%TD*%
D22*
%TO.P,U13,1*%
%TO.N,Net-(R27-Pad1)*%
X156764500Y-107737000D03*
%TO.P,U13,2*%
X156764500Y-108387000D03*
%TO.P,U13,3*%
%TO.N,/CH1DUT+*%
X156764500Y-109037000D03*
%TO.P,U13,4,-VS*%
%TO.N,-12V*%
X156764500Y-109687000D03*
%TO.P,U13,5*%
%TO.N,/CH1DUT-*%
X160989500Y-109687000D03*
%TO.P,U13,6*%
%TO.N,Net-(R29-Pad2)*%
X160989500Y-109037000D03*
%TO.P,U13,7*%
X160989500Y-108387000D03*
%TO.P,U13,8,+VS*%
%TO.N,+12V*%
X160989500Y-107737000D03*
%TD*%
D25*
%TO.P,R49,1*%
%TO.N,GND*%
X135446000Y-113538000D03*
%TO.P,R49,2*%
%TO.N,Net-(R46-Pad2)*%
X137096000Y-113538000D03*
%TD*%
%TO.P,R69,1*%
%TO.N,Net-(U25-FBP)*%
X108395000Y-116840000D03*
%TO.P,R69,2*%
%TO.N,GND*%
X110045000Y-116840000D03*
%TD*%
D21*
%TO.P,C32,1*%
%TO.N,Net-(C32-Pad1)*%
X162420000Y-92075000D03*
%TO.P,C32,2*%
%TO.N,Net-(C32-Pad2)*%
X163970000Y-92075000D03*
%TD*%
D25*
%TO.P,R45,1*%
%TO.N,/CH2OUT-*%
X132398000Y-110490000D03*
%TO.P,R45,2*%
%TO.N,Net-(R45-Pad2)*%
X134048000Y-110490000D03*
%TD*%
%TO.P,R46,1*%
%TO.N,Net-(R44-Pad2)*%
X135446000Y-112014000D03*
%TO.P,R46,2*%
%TO.N,Net-(R46-Pad2)*%
X137096000Y-112014000D03*
%TD*%
D21*
%TO.P,C4,1*%
%TO.N,Net-(U1-VCAP)*%
X113118600Y-101600000D03*
%TO.P,C4,2*%
%TO.N,GND*%
X114668600Y-101600000D03*
%TD*%
D38*
%TO.P,U16,1,NC*%
%TO.N,unconnected-(U16-NC-Pad1)*%
X136605500Y-117053000D03*
%TO.P,U16,2*%
%TO.N,Net-(U15-Pad3)*%
X136605500Y-116403000D03*
%TO.P,U16,3*%
%TO.N,Net-(U15-Pad2)*%
X136605500Y-115753000D03*
%TO.P,U16,4*%
%TO.N,-12V*%
X136605500Y-115103000D03*
%TO.P,U16,5*%
%TO.N,+12V*%
X132380500Y-115103000D03*
%TO.P,U16,6*%
%TO.N,/VREFDIV2*%
X132380500Y-115753000D03*
%TO.P,U16,7*%
%TO.N,Net-(R40-Pad2)*%
X132380500Y-116403000D03*
%TO.P,U16,8*%
%TO.N,/CH2IN-*%
X132380500Y-117053000D03*
%TD*%
D20*
%TO.P,C47,1*%
%TO.N,-12V*%
X151384000Y-124346000D03*
%TO.P,C47,2*%
%TO.N,GND*%
X151384000Y-122796000D03*
%TD*%
D26*
%TO.P,R58,1*%
%TO.N,Net-(R58-Pad1)*%
X160970500Y-127762000D03*
%TO.P,R58,2*%
%TO.N,/CH2DUT-*%
X163895500Y-127762000D03*
%TD*%
D39*
%TO.P,L1,1*%
%TO.N,Net-(C57-Pad1)*%
X100610000Y-117602000D03*
%TO.P,L1,2*%
%TO.N,Net-(D4-Pad2)*%
X103860000Y-117602000D03*
%TD*%
D20*
%TO.P,C53,1*%
%TO.N,-12V*%
X154940000Y-131458000D03*
%TO.P,C53,2*%
%TO.N,GND*%
X154940000Y-129908000D03*
%TD*%
D27*
%TO.P,FID1,*%
%TO.N,*%
X91440000Y-135890000D03*
%TD*%
D20*
%TO.P,C49,1*%
%TO.N,+12V*%
X160782000Y-124346000D03*
%TO.P,C49,2*%
%TO.N,GND*%
X160782000Y-122796000D03*
%TD*%
D17*
%TO.P,C35,1*%
%TO.N,-12V*%
X152908000Y-89776000D03*
%TO.P,C35,2*%
%TO.N,GND*%
X152908000Y-91326000D03*
%TD*%
D25*
%TO.P,R71,1*%
%TO.N,Net-(R71-Pad1)*%
X136589000Y-132461000D03*
%TO.P,R71,2*%
%TO.N,Net-(R71-Pad2)*%
X138239000Y-132461000D03*
%TD*%
D17*
%TO.P,C39,1*%
%TO.N,GND*%
X138557000Y-117843000D03*
%TO.P,C39,2*%
%TO.N,-12V*%
X138557000Y-119393000D03*
%TD*%
D25*
%TO.P,R61,1*%
%TO.N,Net-(R61-Pad1)*%
X162370000Y-118999000D03*
%TO.P,R61,2*%
%TO.N,/CH2DUT+*%
X164020000Y-118999000D03*
%TD*%
D40*
%TO.P,U2,1,REF*%
%TO.N,/VREF*%
X123689000Y-103870000D03*
%TO.P,U2,2,AVDD*%
%TO.N,+3V3*%
X123689000Y-103370000D03*
%TO.P,U2,3,AINP*%
%TO.N,/CH1IN+*%
X123689000Y-102870000D03*
%TO.P,U2,4,AINN*%
%TO.N,/CH1IN-*%
X123689000Y-102370000D03*
%TO.P,U2,5,GND*%
%TO.N,GND*%
X123689000Y-101870000D03*
%TO.P,U2,6,CONVST*%
%TO.N,/ADC_CONVST*%
X119389000Y-101870000D03*
%TO.P,U2,7,DOUT*%
%TO.N,/ADC_MISO*%
X119389000Y-102370000D03*
%TO.P,U2,8,SCK*%
%TO.N,/ADC_SCK*%
X119389000Y-102870000D03*
%TO.P,U2,9,DIN*%
%TO.N,/ADC_CSN1*%
X119389000Y-103370000D03*
%TO.P,U2,10,DVDD*%
%TO.N,+3V3*%
X119389000Y-103870000D03*
%TD*%
D26*
%TO.P,R33,1*%
%TO.N,Net-(R33-Pad1)*%
X160970500Y-105410000D03*
%TO.P,R33,2*%
%TO.N,/CH1DUT-*%
X163895500Y-105410000D03*
%TD*%
D20*
%TO.P,C27,1*%
%TO.N,-12V*%
X140208000Y-101613000D03*
%TO.P,C27,2*%
%TO.N,GND*%
X140208000Y-100063000D03*
%TD*%
%TO.P,C43,1*%
%TO.N,+12V*%
X148336000Y-114567000D03*
%TO.P,C43,2*%
%TO.N,GND*%
X148336000Y-113017000D03*
%TD*%
D12*
%TO.P,R73,1*%
%TO.N,Net-(R73-Pad1)*%
X127444000Y-131826000D03*
%TO.P,R73,2*%
%TO.N,Net-(R73-Pad2)*%
X125794000Y-131826000D03*
%TD*%
%TO.P,R18,1*%
%TO.N,/CH1IN-*%
X128968000Y-101092000D03*
%TO.P,R18,2*%
%TO.N,Net-(R15-Pad2)*%
X127318000Y-101092000D03*
%TD*%
%TO.P,R20,1*%
%TO.N,/CH1OUT-*%
X134048000Y-96266000D03*
%TO.P,R20,2*%
%TO.N,Net-(R20-Pad2)*%
X132398000Y-96266000D03*
%TD*%
D39*
%TO.P,L2,1*%
%TO.N,Net-(D5-Pad1)*%
X109448000Y-127508000D03*
%TO.P,L2,2*%
%TO.N,GND*%
X106198000Y-127508000D03*
%TD*%
D25*
%TO.P,R36,1*%
%TO.N,Net-(R36-Pad1)*%
X162370000Y-96647000D03*
%TO.P,R36,2*%
%TO.N,/CH1DUT+*%
X164020000Y-96647000D03*
%TD*%
%TO.P,R50,1*%
%TO.N,Net-(R47-Pad2)*%
X132398000Y-113538000D03*
%TO.P,R50,2*%
%TO.N,GND*%
X134048000Y-113538000D03*
%TD*%
%TO.P,R72,1*%
%TO.N,Net-(R71-Pad2)*%
X136589000Y-130937000D03*
%TO.P,R72,2*%
%TO.N,GND*%
X138239000Y-130937000D03*
%TD*%
D32*
%TO.P,S1,1,1*%
%TO.N,GND*%
X109754000Y-89154000D03*
%TO.P,S1,2,2*%
%TO.N,Net-(J1-Pin_1)*%
X113004000Y-89154000D03*
%TD*%
D25*
%TO.P,R54,1*%
%TO.N,Net-(R52-Pad2)*%
X151829000Y-129159000D03*
%TO.P,R54,2*%
%TO.N,Net-(R54-Pad2)*%
X153479000Y-129159000D03*
%TD*%
D38*
%TO.P,U7,1,NC*%
%TO.N,unconnected-(U7-NC-Pad1)*%
X136605500Y-99781000D03*
%TO.P,U7,2*%
%TO.N,Net-(U6-Pad3)*%
X136605500Y-99131000D03*
%TO.P,U7,3*%
%TO.N,Net-(U6-Pad2)*%
X136605500Y-98481000D03*
%TO.P,U7,4*%
%TO.N,-12V*%
X136605500Y-97831000D03*
%TO.P,U7,5*%
%TO.N,+12V*%
X132380500Y-97831000D03*
%TO.P,U7,6*%
%TO.N,/VREFDIV2*%
X132380500Y-98481000D03*
%TO.P,U7,7*%
%TO.N,Net-(R15-Pad2)*%
X132380500Y-99131000D03*
%TO.P,U7,8*%
%TO.N,/CH1IN-*%
X132380500Y-99781000D03*
%TD*%
D41*
%TO.P,R9,1*%
%TO.N,/DAC_MISO*%
X107696000Y-107252000D03*
%TO.P,R9,2*%
%TO.N,GND*%
X107696000Y-108902000D03*
%TD*%
D42*
%TO.P,D4,1*%
%TO.N,Net-(U25-VPOS)*%
X106299000Y-116283500D03*
%TO.P,D4,2*%
%TO.N,Net-(D4-Pad2)*%
X106299000Y-118158500D03*
%TD*%
D21*
%TO.P,C11,1*%
%TO.N,+3V3*%
X119240000Y-122682000D03*
%TO.P,C11,2*%
%TO.N,GND*%
X120790000Y-122682000D03*
%TD*%
%TO.P,C10,1*%
%TO.N,+3V3*%
X119240000Y-105537000D03*
%TO.P,C10,2*%
%TO.N,GND*%
X120790000Y-105537000D03*
%TD*%
D43*
%TO.P,D3,1,K*%
%TO.N,GND*%
X180594000Y-91107500D03*
%TO.P,D3,2,A*%
%TO.N,Net-(D3-A)*%
X180594000Y-89232500D03*
%TD*%
D44*
%TO.P,U4,1,VOUTA*%
%TO.N,/CH2OUT-*%
X124849000Y-112892000D03*
%TO.P,U4,2,VOUTB*%
%TO.N,/CH2OUT+*%
X124849000Y-112242000D03*
%TO.P,U4,3,VREFOUT*%
%TO.N,/VREF*%
X124849000Y-111592000D03*
%TO.P,U4,4,AVDD*%
%TO.N,+3V3*%
X124849000Y-110942000D03*
%TO.P,U4,5,VREFL*%
%TO.N,GND*%
X124849000Y-110292000D03*
%TO.P,U4,6,GND*%
X124849000Y-109642000D03*
%TO.P,U4,7,VOUTC*%
%TO.N,/CH1OUT-*%
X124849000Y-108992000D03*
%TO.P,U4,8,VOUTD*%
%TO.N,/CH1OUT+*%
X124849000Y-108342000D03*
%TO.P,U4,9,~{SYNC}*%
%TO.N,/DAC_CSN*%
X119124000Y-108342000D03*
%TO.P,U4,10,SCLK*%
%TO.N,/DAC_SCK*%
X119124000Y-108992000D03*
%TO.P,U4,11,DIN*%
%TO.N,/DAC_MOSI*%
X119124000Y-109642000D03*
%TO.P,U4,12,IOVDD*%
%TO.N,+3V3*%
X119124000Y-110292000D03*
%TO.P,U4,13,A0*%
%TO.N,GND*%
X119124000Y-110942000D03*
%TO.P,U4,14,A1*%
X119124000Y-111592000D03*
%TO.P,U4,15,~{ENABLE}*%
X119124000Y-112242000D03*
%TO.P,U4,16,LDAC*%
X119124000Y-112892000D03*
%TD*%
D20*
%TO.P,C31,1*%
%TO.N,+12V*%
X160782000Y-95136000D03*
%TO.P,C31,2*%
%TO.N,GND*%
X160782000Y-93586000D03*
%TD*%
D24*
%TO.P,C69,1*%
%TO.N,+5V*%
X127394000Y-133350000D03*
%TO.P,C69,2*%
%TO.N,GND*%
X125844000Y-133350000D03*
%TD*%
D31*
%TO.P,TP3,1,1*%
%TO.N,Net-(R71-Pad1)*%
X123825000Y-130175000D03*
%TD*%
D45*
%TO.P,D5,1*%
%TO.N,Net-(D5-Pad1)*%
X111457500Y-126365000D03*
%TO.P,D5,2*%
%TO.N,Net-(U25-VNEG)*%
X113332500Y-126365000D03*
%TD*%
D46*
%TO.P,U25,1,INP*%
%TO.N,Net-(D4-Pad2)*%
X105950000Y-120543000D03*
%TO.P,U25,2,PGND*%
%TO.N,GND*%
X105950000Y-121043000D03*
%TO.P,U25,3,PGND*%
X105950000Y-121543000D03*
%TO.P,U25,4,VIN*%
%TO.N,Net-(U25-VIN)*%
X105950000Y-122043000D03*
%TO.P,U25,5,INN*%
%TO.N,+5V*%
X105950000Y-122543000D03*
%TO.P,U25,6,INN*%
X105950000Y-123043000D03*
D47*
%TO.P,U25,7,BSW*%
%TO.N,Net-(U25-BSW)*%
X106700000Y-123793000D03*
%TO.P,U25,8,ENP*%
%TO.N,/ENA12V*%
X107200000Y-123793000D03*
%TO.P,U25,9,PSP*%
X107700000Y-123793000D03*
%TO.P,U25,10,ENN*%
X108200000Y-123793000D03*
%TO.P,U25,11,PSN*%
X108700000Y-123793000D03*
%TO.P,U25,12,NC*%
%TO.N,unconnected-(U25-NC-Pad12)*%
X109200000Y-123793000D03*
D46*
%TO.P,U25,13,OUTN*%
%TO.N,Net-(D5-Pad1)*%
X109950000Y-123043000D03*
%TO.P,U25,14,OUTN*%
X109950000Y-122543000D03*
%TO.P,U25,15,VNEG*%
%TO.N,Net-(U25-VNEG)*%
X109950000Y-122043000D03*
%TO.P,U25,16,FBN*%
%TO.N,Net-(U25-FBN)*%
X109950000Y-121543000D03*
%TO.P,U25,17,VREF*%
%TO.N,Net-(U25-VREF)*%
X109950000Y-121043000D03*
%TO.P,U25,18,CN*%
%TO.N,Net-(U25-CN)*%
X109950000Y-120543000D03*
D47*
%TO.P,U25,19,AGND*%
%TO.N,GND*%
X109200000Y-119793000D03*
%TO.P,U25,20,NC*%
%TO.N,unconnected-(U25-NC-Pad20)*%
X108700000Y-119793000D03*
%TO.P,U25,21,CP*%
%TO.N,Net-(U25-CP)*%
X108200000Y-119793000D03*
%TO.P,U25,22,FBP*%
%TO.N,Net-(U25-FBP)*%
X107700000Y-119793000D03*
%TO.P,U25,23,VPOS*%
%TO.N,Net-(U25-VPOS)*%
X107200000Y-119793000D03*
%TO.P,U25,24,INP*%
%TO.N,Net-(D4-Pad2)*%
X106700000Y-119793000D03*
D48*
%TO.P,U25,25,EP*%
%TO.N,GND*%
X107950000Y-121793000D03*
%TD*%
D12*
%TO.P,R51,1*%
%TO.N,Net-(R38-Pad2)*%
X128968000Y-120523000D03*
%TO.P,R51,2*%
%TO.N,/VREF*%
X127318000Y-120523000D03*
%TD*%
D38*
%TO.P,U15,1,NC*%
%TO.N,unconnected-(U15-NC-Pad1)*%
X136605500Y-121371000D03*
%TO.P,U15,2*%
%TO.N,Net-(U15-Pad2)*%
X136605500Y-120721000D03*
%TO.P,U15,3*%
%TO.N,Net-(U15-Pad3)*%
X136605500Y-120071000D03*
%TO.P,U15,4*%
%TO.N,-12V*%
X136605500Y-119421000D03*
%TO.P,U15,5*%
%TO.N,+12V*%
X132380500Y-119421000D03*
%TO.P,U15,6*%
%TO.N,/VREFDIV2*%
X132380500Y-120071000D03*
%TO.P,U15,7*%
%TO.N,Net-(R38-Pad2)*%
X132380500Y-120721000D03*
%TO.P,U15,8*%
%TO.N,/CH2IN+*%
X132380500Y-121371000D03*
%TD*%
D17*
%TO.P,C40,1*%
%TO.N,GND*%
X130429000Y-113525000D03*
%TO.P,C40,2*%
%TO.N,+12V*%
X130429000Y-115075000D03*
%TD*%
%TO.P,C13,1*%
%TO.N,+3V3*%
X125349000Y-121780000D03*
%TO.P,C13,2*%
%TO.N,GND*%
X125349000Y-123330000D03*
%TD*%
D20*
%TO.P,C29,1*%
%TO.N,-12V*%
X151384000Y-95136000D03*
%TO.P,C29,2*%
%TO.N,GND*%
X151384000Y-93586000D03*
%TD*%
D25*
%TO.P,R19,1*%
%TO.N,/CH1OUT+*%
X135446000Y-96266000D03*
%TO.P,R19,2*%
%TO.N,Net-(R19-Pad2)*%
X137096000Y-96266000D03*
%TD*%
D21*
%TO.P,C1,1*%
%TO.N,Net-(U1-VCAP)*%
X113118600Y-100076000D03*
%TO.P,C1,2*%
%TO.N,GND*%
X114668600Y-100076000D03*
%TD*%
D49*
%TO.P,U8,1*%
%TO.N,/RD2*%
X140010000Y-103755000D03*
%TO.P,U8,2*%
%TO.N,Net-(R27-Pad2)*%
X140010000Y-104405000D03*
%TO.P,U8,3*%
%TO.N,Net-(U6-Pad2)*%
X140010000Y-105055000D03*
%TO.P,U8,4*%
%TO.N,Net-(U10-Pad3)*%
X140010000Y-105705000D03*
%TO.P,U8,5,VSS*%
%TO.N,-12V*%
X140010000Y-106355000D03*
%TO.P,U8,6,GND*%
%TO.N,GND*%
X140010000Y-107005000D03*
%TO.P,U8,7*%
%TO.N,Net-(R27-Pad1)*%
X140010000Y-107655000D03*
%TO.P,U8,8*%
%TO.N,Net-(U6-Pad3)*%
X140010000Y-108305000D03*
%TO.P,U8,9*%
%TO.N,Net-(R29-Pad2)*%
X140010000Y-108955000D03*
%TO.P,U8,10*%
%TO.N,/RD2*%
X140010000Y-109605000D03*
%TO.P,U8,11*%
%TO.N,/RD3*%
X147010000Y-109605000D03*
%TO.P,U8,12*%
%TO.N,Net-(R27-Pad1)*%
X147010000Y-108955000D03*
%TO.P,U8,13*%
%TO.N,Net-(U8-Pad13)*%
X147010000Y-108305000D03*
%TO.P,U8,14*%
%TO.N,Net-(R29-Pad2)*%
X147010000Y-107655000D03*
%TO.P,U8,15,NC*%
%TO.N,unconnected-(U8E-NC-Pad15)*%
X147010000Y-107005000D03*
%TO.P,U8,16,VDD*%
%TO.N,+12V*%
X147010000Y-106355000D03*
%TO.P,U8,17*%
%TO.N,Net-(R27-Pad2)*%
X147010000Y-105705000D03*
%TO.P,U8,18*%
%TO.N,Net-(U8-Pad18)*%
X147010000Y-105055000D03*
%TO.P,U8,19*%
%TO.N,Net-(U10-Pad3)*%
X147010000Y-104405000D03*
%TO.P,U8,20*%
%TO.N,/RD3*%
X147010000Y-103755000D03*
%TD*%
D17*
%TO.P,C5,1*%
%TO.N,GND*%
X106273600Y-93713000D03*
%TO.P,C5,2*%
%TO.N,+3V3*%
X106273600Y-95263000D03*
%TD*%
D21*
%TO.P,C16,1*%
%TO.N,/VREF*%
X122288000Y-122682000D03*
%TO.P,C16,2*%
%TO.N,GND*%
X123838000Y-122682000D03*
%TD*%
D12*
%TO.P,R43,1*%
%TO.N,/CH2IN-*%
X128968000Y-118364000D03*
%TO.P,R43,2*%
%TO.N,Net-(R40-Pad2)*%
X127318000Y-118364000D03*
%TD*%
D35*
%TO.P,J3,1,Pin_1*%
%TO.N,+5V*%
X144780000Y-90170000D03*
D36*
%TO.P,J3,2,Pin_2*%
%TO.N,GND*%
X144780000Y-87630000D03*
%TD*%
D40*
%TO.P,U3,1,REF*%
%TO.N,/VREF*%
X123689000Y-121015000D03*
%TO.P,U3,2,AVDD*%
%TO.N,+3V3*%
X123689000Y-120515000D03*
%TO.P,U3,3,AINP*%
%TO.N,/CH2IN+*%
X123689000Y-120015000D03*
%TO.P,U3,4,AINN*%
%TO.N,/CH2IN-*%
X123689000Y-119515000D03*
%TO.P,U3,5,GND*%
%TO.N,GND*%
X123689000Y-119015000D03*
%TO.P,U3,6,CONVST*%
%TO.N,/ADC_CONVST*%
X119389000Y-119015000D03*
%TO.P,U3,7,DOUT*%
%TO.N,/ADC_MISO*%
X119389000Y-119515000D03*
%TO.P,U3,8,SCK*%
%TO.N,/ADC_SCK*%
X119389000Y-120015000D03*
%TO.P,U3,9,DIN*%
%TO.N,/ADC_CSN2*%
X119389000Y-120515000D03*
%TO.P,U3,10,DVDD*%
%TO.N,+3V3*%
X119389000Y-121015000D03*
%TD*%
D12*
%TO.P,R52,1*%
%TO.N,Net-(R52-Pad1)*%
X153479000Y-132207000D03*
%TO.P,R52,2*%
%TO.N,Net-(R52-Pad2)*%
X151829000Y-132207000D03*
%TD*%
D20*
%TO.P,C34,1*%
%TO.N,-12V*%
X154940000Y-109233000D03*
%TO.P,C34,2*%
%TO.N,GND*%
X154940000Y-107683000D03*
%TD*%
%TO.P,C3,1*%
%TO.N,GND*%
X111353600Y-110630000D03*
%TO.P,C3,2*%
%TO.N,Net-(U1-RC14{slash}RPI37{slash}SOSCO)*%
X111353600Y-109080000D03*
%TD*%
D24*
%TO.P,C56,1*%
%TO.N,+5V*%
X104280000Y-124333000D03*
%TO.P,C56,2*%
%TO.N,GND*%
X102730000Y-124333000D03*
%TD*%
D21*
%TO.P,C63,1*%
%TO.N,Net-(U25-VPOS)*%
X99555000Y-126365000D03*
%TO.P,C63,2*%
%TO.N,GND*%
X101105000Y-126365000D03*
%TD*%
D44*
%TO.P,U27,1*%
%TO.N,Net-(R71-Pad1)*%
X134942500Y-132420000D03*
%TO.P,U27,2*%
%TO.N,Net-(R71-Pad2)*%
X134942500Y-131770000D03*
%TO.P,U27,3*%
%TO.N,/DAC1*%
X134942500Y-131120000D03*
%TO.P,U27,4,VSS*%
%TO.N,GND*%
X134942500Y-130470000D03*
%TO.P,U27,5*%
%TO.N,/DAC2*%
X129217500Y-130470000D03*
%TO.P,U27,6*%
%TO.N,Net-(R73-Pad2)*%
X129217500Y-131120000D03*
%TO.P,U27,7*%
%TO.N,Net-(R73-Pad1)*%
X129217500Y-131770000D03*
%TO.P,U27,8,VDD*%
%TO.N,+5V*%
X129217500Y-132420000D03*
%TD*%
D25*
%TO.P,R22,1*%
%TO.N,Net-(R20-Pad2)*%
X132398000Y-94742000D03*
%TO.P,R22,2*%
%TO.N,Net-(R22-Pad2)*%
X134048000Y-94742000D03*
%TD*%
D21*
%TO.P,C65,1*%
%TO.N,+12V*%
X100444000Y-132080000D03*
%TO.P,C65,2*%
%TO.N,Net-(U26-BYPP)*%
X101994000Y-132080000D03*
%TD*%
%TO.P,C66,1*%
%TO.N,Net-(U26-BYPN)*%
X103492000Y-132080000D03*
%TO.P,C66,2*%
%TO.N,-12V*%
X105042000Y-132080000D03*
%TD*%
D12*
%TO.P,R12,1*%
%TO.N,/VREFDIV2*%
X128968000Y-93472000D03*
%TO.P,R12,2*%
%TO.N,GND*%
X127318000Y-93472000D03*
%TD*%
D22*
%TO.P,U19,1,NC*%
%TO.N,unconnected-(U19-NC-Pad1)*%
X142159500Y-116881000D03*
%TO.P,U19,2*%
%TO.N,Net-(R52-Pad1)*%
X142159500Y-117531000D03*
%TO.P,U19,3*%
%TO.N,Net-(U17-Pad19)*%
X142159500Y-118181000D03*
%TO.P,U19,4*%
%TO.N,-12V*%
X142159500Y-118831000D03*
%TO.P,U19,5*%
%TO.N,+12V*%
X146384500Y-118831000D03*
%TO.P,U19,6*%
%TO.N,Net-(R54-Pad2)*%
X146384500Y-118181000D03*
%TO.P,U19,7*%
%TO.N,Net-(U19-Pad7)*%
X146384500Y-117531000D03*
%TO.P,U19,8*%
%TO.N,Net-(U19-Pad8)*%
X146384500Y-116881000D03*
%TD*%
D17*
%TO.P,C37,1*%
%TO.N,-12V*%
X137922000Y-123304000D03*
%TO.P,C37,2*%
%TO.N,GND*%
X137922000Y-124854000D03*
%TD*%
D12*
%TO.P,R13,1*%
%TO.N,/CH1IN+*%
X128968000Y-106299000D03*
%TO.P,R13,2*%
%TO.N,Net-(R13-Pad2)*%
X127318000Y-106299000D03*
%TD*%
D17*
%TO.P,C9,1*%
%TO.N,+3V3*%
X117221000Y-110350000D03*
%TO.P,C9,2*%
%TO.N,GND*%
X117221000Y-111900000D03*
%TD*%
D16*
%TO.P,U11,1*%
%TO.N,/RD0*%
X153220500Y-100722000D03*
%TO.P,U11,2*%
%TO.N,/RD6*%
X153220500Y-101372000D03*
%TO.P,U11,3,VSS*%
%TO.N,-12V*%
X153220500Y-102022000D03*
%TO.P,U11,4*%
%TO.N,Net-(R30-Pad1)*%
X153220500Y-102672000D03*
%TO.P,U11,5*%
%TO.N,Net-(R31-Pad1)*%
X153220500Y-103322000D03*
%TO.P,U11,6*%
%TO.N,Net-(R32-Pad1)*%
X153220500Y-103972000D03*
%TO.P,U11,7*%
%TO.N,Net-(R33-Pad1)*%
X153220500Y-104622000D03*
%TO.P,U11,8*%
%TO.N,Net-(U10-Pad8)*%
X153220500Y-105272000D03*
%TO.P,U11,9*%
%TO.N,Net-(U10-Pad7)*%
X158945500Y-105272000D03*
%TO.P,U11,10*%
%TO.N,Net-(R33-Pad1)*%
X158945500Y-104622000D03*
%TO.P,U11,11*%
%TO.N,Net-(R32-Pad1)*%
X158945500Y-103972000D03*
%TO.P,U11,12*%
%TO.N,Net-(R31-Pad1)*%
X158945500Y-103322000D03*
%TO.P,U11,13*%
%TO.N,Net-(R30-Pad1)*%
X158945500Y-102672000D03*
%TO.P,U11,14,VDD*%
%TO.N,+12V*%
X158945500Y-102022000D03*
%TO.P,U11,15,GND*%
%TO.N,GND*%
X158945500Y-101372000D03*
%TO.P,U11,16*%
%TO.N,/RD1*%
X158945500Y-100722000D03*
%TD*%
D25*
%TO.P,R4,1*%
%TO.N,Net-(D1-Pad2)*%
X104077000Y-89535000D03*
%TO.P,R4,2*%
%TO.N,Net-(U1-RD7)*%
X105727000Y-89535000D03*
%TD*%
D22*
%TO.P,U22,1*%
%TO.N,Net-(R52-Pad1)*%
X156764500Y-130089000D03*
%TO.P,U22,2*%
X156764500Y-130739000D03*
%TO.P,U22,3*%
%TO.N,/CH2DUT+*%
X156764500Y-131389000D03*
%TO.P,U22,4,-VS*%
%TO.N,-12V*%
X156764500Y-132039000D03*
%TO.P,U22,5*%
%TO.N,/CH2DUT-*%
X160989500Y-132039000D03*
%TO.P,U22,6*%
%TO.N,Net-(R54-Pad2)*%
X160989500Y-131389000D03*
%TO.P,U22,7*%
X160989500Y-130739000D03*
%TO.P,U22,8,+VS*%
%TO.N,+12V*%
X160989500Y-130089000D03*
%TD*%
D25*
%TO.P,R29,1*%
%TO.N,Net-(R27-Pad2)*%
X151829000Y-106807000D03*
%TO.P,R29,2*%
%TO.N,Net-(R29-Pad2)*%
X153479000Y-106807000D03*
%TD*%
%TO.P,R55,1*%
%TO.N,Net-(R55-Pad1)*%
X162370000Y-122809000D03*
%TO.P,R55,2*%
%TO.N,/CH2DUT-*%
X164020000Y-122809000D03*
%TD*%
D21*
%TO.P,C15,1*%
%TO.N,/VREF*%
X122288000Y-105537000D03*
%TO.P,C15,2*%
%TO.N,GND*%
X123838000Y-105537000D03*
%TD*%
%TO.P,C67,1*%
%TO.N,+12V*%
X100444000Y-133604000D03*
%TO.P,C67,2*%
%TO.N,GND*%
X101994000Y-133604000D03*
%TD*%
D50*
%TO.P,Y1,1,1*%
%TO.N,Net-(U1-RC14{slash}RPI37{slash}SOSCO)*%
X111291600Y-107442000D03*
%TO.P,Y1,2,2*%
%TO.N,Net-(U1-RC13{slash}SOSCI)*%
X109891600Y-107442000D03*
%TD*%
D12*
%TO.P,R24,1*%
%TO.N,GND*%
X137096000Y-93218000D03*
%TO.P,R24,2*%
%TO.N,Net-(R21-Pad2)*%
X135446000Y-93218000D03*
%TD*%
D26*
%TO.P,R62,1*%
%TO.N,Net-(R62-Pad1)*%
X160970500Y-120904000D03*
%TO.P,R62,2*%
%TO.N,/CH2DUT+*%
X163895500Y-120904000D03*
%TD*%
D25*
%TO.P,R5,1*%
%TO.N,Net-(J2-CC2)*%
X94679000Y-117221000D03*
%TO.P,R5,2*%
%TO.N,GND*%
X96329000Y-117221000D03*
%TD*%
%TO.P,R3,1*%
%TO.N,Net-(D1-Pad4)*%
X104077000Y-91059000D03*
%TO.P,R3,2*%
%TO.N,Net-(U1-RF0)*%
X105727000Y-91059000D03*
%TD*%
D12*
%TO.P,R47,1*%
%TO.N,Net-(R45-Pad2)*%
X134048000Y-112014000D03*
%TO.P,R47,2*%
%TO.N,Net-(R47-Pad2)*%
X132398000Y-112014000D03*
%TD*%
%TO.P,R48,1*%
%TO.N,Net-(R40-Pad2)*%
X128968000Y-113792000D03*
%TO.P,R48,2*%
%TO.N,/VREF*%
X127318000Y-113792000D03*
%TD*%
D25*
%TO.P,R59,1*%
%TO.N,Net-(C51-Pad1)*%
X162370000Y-115951000D03*
%TO.P,R59,2*%
%TO.N,/CH2DUT+*%
X164020000Y-115951000D03*
%TD*%
D17*
%TO.P,C23,1*%
%TO.N,+12V*%
X149098000Y-106540000D03*
%TO.P,C23,2*%
%TO.N,GND*%
X149098000Y-108090000D03*
%TD*%
D31*
%TO.P,TP4,1,1*%
%TO.N,Net-(R73-Pad1)*%
X121285000Y-130175000D03*
%TD*%
D12*
%TO.P,R74,1*%
%TO.N,Net-(R73-Pad2)*%
X127444000Y-130302000D03*
%TO.P,R74,2*%
%TO.N,GND*%
X125794000Y-130302000D03*
%TD*%
D33*
%TO.P,U14,1*%
%TO.N,/RD5*%
X160481500Y-91678000D03*
%TO.P,U14,2*%
%TO.N,Net-(C32-Pad2)*%
X160481500Y-91178000D03*
%TO.P,U14,3*%
%TO.N,GND*%
X160481500Y-90678000D03*
%TO.P,U14,4*%
%TO.N,unconnected-(U14-Pad4)*%
X160481500Y-90178000D03*
%TO.P,U14,5*%
%TO.N,unconnected-(U14-Pad5)*%
X160481500Y-89678000D03*
%TO.P,U14,6,VSS*%
%TO.N,-12V*%
X156256500Y-89678000D03*
%TO.P,U14,7,NC*%
%TO.N,unconnected-(U14C-NC-Pad7)*%
X156256500Y-90178000D03*
%TO.P,U14,8,GND*%
%TO.N,GND*%
X156256500Y-90678000D03*
%TO.P,U14,9,VDD*%
%TO.N,+12V*%
X156256500Y-91178000D03*
%TO.P,U14,10*%
%TO.N,unconnected-(U14-Pad10)*%
X156256500Y-91678000D03*
%TD*%
D21*
%TO.P,C7,1*%
%TO.N,GND*%
X99529600Y-101981000D03*
%TO.P,C7,2*%
%TO.N,+3V3*%
X101079600Y-101981000D03*
%TD*%
D25*
%TO.P,R60,1*%
%TO.N,Net-(R60-Pad1)*%
X162370000Y-117475000D03*
%TO.P,R60,2*%
%TO.N,/CH2DUT+*%
X164020000Y-117475000D03*
%TD*%
%TO.P,R11,1*%
%TO.N,/VREF*%
X127318000Y-94996000D03*
%TO.P,R11,2*%
%TO.N,/VREFDIV2*%
X128968000Y-94996000D03*
%TD*%
D37*
%TO.P,R70,1*%
%TO.N,+12V*%
X178816000Y-132778000D03*
%TO.P,R70,2*%
%TO.N,Net-(D6-A)*%
X178816000Y-131128000D03*
%TD*%
D25*
%TO.P,R63,1*%
%TO.N,GND*%
X102680000Y-125857000D03*
%TO.P,R63,2*%
%TO.N,/ENA12V*%
X104330000Y-125857000D03*
%TD*%
D16*
%TO.P,U21,1*%
%TO.N,/RE0*%
X153220500Y-116216000D03*
%TO.P,U21,2*%
%TO.N,/RE6*%
X153220500Y-116866000D03*
%TO.P,U21,3,VSS*%
%TO.N,-12V*%
X153220500Y-117516000D03*
%TO.P,U21,4*%
%TO.N,Net-(C51-Pad1)*%
X153220500Y-118166000D03*
%TO.P,U21,5*%
%TO.N,Net-(R60-Pad1)*%
X153220500Y-118816000D03*
%TO.P,U21,6*%
%TO.N,Net-(R61-Pad1)*%
X153220500Y-119466000D03*
%TO.P,U21,7*%
%TO.N,Net-(R62-Pad1)*%
X153220500Y-120116000D03*
%TO.P,U21,8*%
%TO.N,Net-(U18-Pad8)*%
X153220500Y-120766000D03*
%TO.P,U21,9*%
%TO.N,Net-(U17-Pad19)*%
X158945500Y-120766000D03*
%TO.P,U21,10*%
%TO.N,Net-(R62-Pad1)*%
X158945500Y-120116000D03*
%TO.P,U21,11*%
%TO.N,Net-(R61-Pad1)*%
X158945500Y-119466000D03*
%TO.P,U21,12*%
%TO.N,Net-(R60-Pad1)*%
X158945500Y-118816000D03*
%TO.P,U21,13*%
%TO.N,Net-(C51-Pad1)*%
X158945500Y-118166000D03*
%TO.P,U21,14,VDD*%
%TO.N,+12V*%
X158945500Y-117516000D03*
%TO.P,U21,15,GND*%
%TO.N,GND*%
X158945500Y-116866000D03*
%TO.P,U21,16*%
%TO.N,/RE1*%
X158945500Y-116216000D03*
%TD*%
%TO.P,U20,1*%
%TO.N,/RE0*%
X153220500Y-123074000D03*
%TO.P,U20,2*%
%TO.N,/RE6*%
X153220500Y-123724000D03*
%TO.P,U20,3,VSS*%
%TO.N,-12V*%
X153220500Y-124374000D03*
%TO.P,U20,4*%
%TO.N,Net-(R55-Pad1)*%
X153220500Y-125024000D03*
%TO.P,U20,5*%
%TO.N,Net-(R56-Pad1)*%
X153220500Y-125674000D03*
%TO.P,U20,6*%
%TO.N,Net-(R57-Pad1)*%
X153220500Y-126324000D03*
%TO.P,U20,7*%
%TO.N,Net-(R58-Pad1)*%
X153220500Y-126974000D03*
%TO.P,U20,8*%
%TO.N,Net-(U19-Pad8)*%
X153220500Y-127624000D03*
%TO.P,U20,9*%
%TO.N,Net-(U19-Pad7)*%
X158945500Y-127624000D03*
%TO.P,U20,10*%
%TO.N,Net-(R58-Pad1)*%
X158945500Y-126974000D03*
%TO.P,U20,11*%
%TO.N,Net-(R57-Pad1)*%
X158945500Y-126324000D03*
%TO.P,U20,12*%
%TO.N,Net-(R56-Pad1)*%
X158945500Y-125674000D03*
%TO.P,U20,13*%
%TO.N,Net-(R55-Pad1)*%
X158945500Y-125024000D03*
%TO.P,U20,14,VDD*%
%TO.N,+12V*%
X158945500Y-124374000D03*
%TO.P,U20,15,GND*%
%TO.N,GND*%
X158945500Y-123724000D03*
%TO.P,U20,16*%
%TO.N,/RE1*%
X158945500Y-123074000D03*
%TD*%
D20*
%TO.P,C24,1*%
%TO.N,+12V*%
X148336000Y-97295000D03*
%TO.P,C24,2*%
%TO.N,GND*%
X148336000Y-95745000D03*
%TD*%
D21*
%TO.P,C6,1*%
%TO.N,GND*%
X99529600Y-98679000D03*
%TO.P,C6,2*%
%TO.N,+3V3*%
X101079600Y-98679000D03*
%TD*%
D38*
%TO.P,U6,1,NC*%
%TO.N,unconnected-(U6-NC-Pad1)*%
X136605500Y-104099000D03*
%TO.P,U6,2*%
%TO.N,Net-(U6-Pad2)*%
X136605500Y-103449000D03*
%TO.P,U6,3*%
%TO.N,Net-(U6-Pad3)*%
X136605500Y-102799000D03*
%TO.P,U6,4*%
%TO.N,-12V*%
X136605500Y-102149000D03*
%TO.P,U6,5*%
%TO.N,+12V*%
X132380500Y-102149000D03*
%TO.P,U6,6*%
%TO.N,/VREFDIV2*%
X132380500Y-102799000D03*
%TO.P,U6,7*%
%TO.N,Net-(R13-Pad2)*%
X132380500Y-103449000D03*
%TO.P,U6,8*%
%TO.N,/CH1IN+*%
X132380500Y-104099000D03*
%TD*%
D27*
%TO.P,FID3,*%
%TO.N,*%
X182880000Y-86360000D03*
%TD*%
D12*
%TO.P,R66,1*%
%TO.N,Net-(U25-VREF)*%
X113220000Y-122936000D03*
%TO.P,R66,2*%
%TO.N,Net-(U25-FBN)*%
X111570000Y-122936000D03*
%TD*%
D21*
%TO.P,C60,1*%
%TO.N,Net-(U25-CP)*%
X108445000Y-118364000D03*
%TO.P,C60,2*%
%TO.N,GND*%
X109995000Y-118364000D03*
%TD*%
D49*
%TO.P,U17,1*%
%TO.N,/RE2*%
X140010000Y-121027000D03*
%TO.P,U17,2*%
%TO.N,Net-(R52-Pad2)*%
X140010000Y-121677000D03*
%TO.P,U17,3*%
%TO.N,Net-(U15-Pad2)*%
X140010000Y-122327000D03*
%TO.P,U17,4*%
%TO.N,Net-(U17-Pad19)*%
X140010000Y-122977000D03*
%TO.P,U17,5,VSS*%
%TO.N,-12V*%
X140010000Y-123627000D03*
%TO.P,U17,6,GND*%
%TO.N,GND*%
X140010000Y-124277000D03*
%TO.P,U17,7*%
%TO.N,Net-(R52-Pad1)*%
X140010000Y-124927000D03*
%TO.P,U17,8*%
%TO.N,Net-(U15-Pad3)*%
X140010000Y-125577000D03*
%TO.P,U17,9*%
%TO.N,Net-(R54-Pad2)*%
X140010000Y-126227000D03*
%TO.P,U17,10*%
%TO.N,/RE2*%
X140010000Y-126877000D03*
%TO.P,U17,11*%
%TO.N,/RE3*%
X147010000Y-126877000D03*
%TO.P,U17,12*%
%TO.N,Net-(R52-Pad1)*%
X147010000Y-126227000D03*
%TO.P,U17,13*%
%TO.N,Net-(U17-Pad13)*%
X147010000Y-125577000D03*
%TO.P,U17,14*%
%TO.N,Net-(R54-Pad2)*%
X147010000Y-124927000D03*
%TO.P,U17,15,NC*%
%TO.N,unconnected-(U17E-NC-Pad15)*%
X147010000Y-124277000D03*
%TO.P,U17,16,VDD*%
%TO.N,+12V*%
X147010000Y-123627000D03*
%TO.P,U17,17*%
%TO.N,Net-(R52-Pad2)*%
X147010000Y-122977000D03*
%TO.P,U17,18*%
%TO.N,Net-(U17-Pad18)*%
X147010000Y-122327000D03*
%TO.P,U17,19*%
%TO.N,Net-(U17-Pad19)*%
X147010000Y-121677000D03*
%TO.P,U17,20*%
%TO.N,/RE3*%
X147010000Y-121027000D03*
%TD*%
D17*
%TO.P,C18,1*%
%TO.N,-12V*%
X137922000Y-106032000D03*
%TO.P,C18,2*%
%TO.N,GND*%
X137922000Y-107582000D03*
%TD*%
D25*
%TO.P,R32,1*%
%TO.N,Net-(R32-Pad1)*%
X162370000Y-103505000D03*
%TO.P,R32,2*%
%TO.N,/CH1DUT-*%
X164020000Y-103505000D03*
%TD*%
%TO.P,R1,1*%
%TO.N,Net-(D1-Pad1)*%
X101029000Y-91059000D03*
%TO.P,R1,2*%
%TO.N,Net-(U1-RF1)*%
X102679000Y-91059000D03*
%TD*%
D51*
%TO.P,J2,A1B12,GND*%
%TO.N,GND*%
X96957000Y-107925000D03*
%TO.P,J2,A4B9,VBUS*%
%TO.N,+5V*%
X96957000Y-108725000D03*
D52*
%TO.P,J2,A5,CC1*%
%TO.N,Net-(J2-CC1)*%
X96957000Y-109875000D03*
%TO.P,J2,A6,D+*%
%TO.N,Net-(U1-D+)*%
X96957000Y-110875000D03*
%TO.P,J2,A7,D-*%
%TO.N,Net-(U1-D-)*%
X96957000Y-111375000D03*
%TO.P,J2,A8,SBU1*%
%TO.N,unconnected-(J2-SBU1-PadA8)*%
X96957000Y-112375000D03*
D51*
%TO.P,J2,B1A12,GND*%
%TO.N,GND*%
X96957000Y-114325000D03*
%TO.P,J2,B4A9,VBUS*%
%TO.N,+5V*%
X96957000Y-113525000D03*
D52*
%TO.P,J2,B5,CC2*%
%TO.N,Net-(J2-CC2)*%
X96957000Y-112875000D03*
%TO.P,J2,B6,D+*%
%TO.N,Net-(U1-D+)*%
X96957000Y-111875000D03*
%TO.P,J2,B7,D-*%
%TO.N,Net-(U1-D-)*%
X96957000Y-110375000D03*
%TO.P,J2,B8,SBU2*%
%TO.N,unconnected-(J2-SBU2-PadB8)*%
X96957000Y-109375000D03*
D53*
%TO.P,J2,S1,SHELL*%
%TO.N,GND*%
X96382000Y-106805000D03*
D54*
%TO.P,J2,S2,SHELL*%
X92202000Y-106805000D03*
%TO.P,J2,S3,SHELL*%
X92202000Y-115445000D03*
D53*
%TO.P,J2,S4,SHELL*%
X96382000Y-115445000D03*
%TD*%
D17*
%TO.P,C20,1*%
%TO.N,GND*%
X138557000Y-100571000D03*
%TO.P,C20,2*%
%TO.N,-12V*%
X138557000Y-102121000D03*
%TD*%
D12*
%TO.P,R41,1*%
%TO.N,Net-(R40-Pad2)*%
X128968000Y-115316000D03*
%TO.P,R41,2*%
%TO.N,GND*%
X127318000Y-115316000D03*
%TD*%
D20*
%TO.P,C44,1*%
%TO.N,-12V*%
X140208000Y-114567000D03*
%TO.P,C44,2*%
%TO.N,GND*%
X140208000Y-113017000D03*
%TD*%
%TO.P,C48,1*%
%TO.N,-12V*%
X151384000Y-117488000D03*
%TO.P,C48,2*%
%TO.N,GND*%
X151384000Y-115938000D03*
%TD*%
D55*
%TO.P,U1,1,RE5*%
%TO.N,/RE5*%
X110811000Y-96896000D03*
%TO.P,U1,2,RE6/SCL3*%
%TO.N,/RE6*%
X110311000Y-96896000D03*
%TO.P,U1,3,RE7/SDA3*%
%TO.N,/RST_N*%
X109811000Y-96896000D03*
%TO.P,U1,4,RG6/RP21*%
%TO.N,/CTS*%
X109311000Y-96896000D03*
%TO.P,U1,5,RG7/RP26*%
%TO.N,/D0*%
X108811000Y-96896000D03*
%TO.P,U1,6,RG8/RP19*%
%TO.N,/ADC_CONVST*%
X108311000Y-96896000D03*
%TO.P,U1,7,~{MCLR}*%
%TO.N,Net-(J1-Pin_1)*%
X107811000Y-96896000D03*
%TO.P,U1,8,RG9/RP27/DAC1*%
%TO.N,/DAC1*%
X107311000Y-96896000D03*
%TO.P,U1,9,VSS*%
%TO.N,GND*%
X106811000Y-96896000D03*
%TO.P,U1,10,VDD*%
%TO.N,+3V3*%
X106311000Y-96896000D03*
%TO.P,U1,11,RB5/RP18/AN5*%
%TO.N,/RTS*%
X105811000Y-96896000D03*
%TO.P,U1,12,RB4/RP28/AN4*%
%TO.N,/D1*%
X105311000Y-96896000D03*
%TO.P,U1,13,RB3/AN3*%
%TO.N,unconnected-(U1-RB3{slash}AN3-Pad13)*%
X104811000Y-96896000D03*
%TO.P,U1,14,RB2/RP13/AN2*%
%TO.N,/TX*%
X104311000Y-96896000D03*
%TO.P,U1,15,RB1/RP1/AN1/VREF-*%
%TO.N,/RX*%
X103811000Y-96896000D03*
%TO.P,U1,16,RB0/RP0/AN0/VREF+*%
%TO.N,/VREF*%
X103311000Y-96896000D03*
D56*
%TO.P,U1,17,RB6/RP6/AN6/PGEC2*%
%TO.N,/D2*%
X102611000Y-97596000D03*
%TO.P,U1,18,RB7/RP7/AN7/PGED2*%
%TO.N,/D3*%
X102611000Y-98096000D03*
%TO.P,U1,19,AVDD*%
%TO.N,+3V3*%
X102611000Y-98596000D03*
%TO.P,U1,20,AVSS*%
%TO.N,GND*%
X102611000Y-99096000D03*
%TO.P,U1,21,SVSS*%
X102611000Y-99596000D03*
%TO.P,U1,22,CH0+*%
%TO.N,unconnected-(U1-CH0+-Pad22)*%
X102611000Y-100096000D03*
%TO.P,U1,23,CH0-*%
%TO.N,unconnected-(U1-CH0--Pad23)*%
X102611000Y-100596000D03*
%TO.P,U1,24,CH1+*%
%TO.N,unconnected-(U1-CH1+-Pad24)*%
X102611000Y-101096000D03*
%TO.P,U1,25,CH1-*%
%TO.N,unconnected-(U1-CH1--Pad25)*%
X102611000Y-101596000D03*
%TO.P,U1,26,SVDD*%
%TO.N,+3V3*%
X102611000Y-102096000D03*
%TO.P,U1,27,RB12/AN12*%
%TO.N,/RX_IND*%
X102611000Y-102596000D03*
%TO.P,U1,28,RB13/AN13/DAC2*%
%TO.N,/DAC2*%
X102611000Y-103096000D03*
%TO.P,U1,29,RB14/RP14/AN14*%
%TO.N,/ADC_MOSI*%
X102611000Y-103596000D03*
%TO.P,U1,30,RB15/RP29/AN15*%
%TO.N,/ADC_SCK*%
X102611000Y-104096000D03*
%TO.P,U1,31,RF4/RP10/SDA2*%
%TO.N,/ADC_MISO*%
X102611000Y-104596000D03*
%TO.P,U1,32,RF5/RP17/SCL2*%
%TO.N,/ADC_CSN1*%
X102611000Y-105096000D03*
D55*
%TO.P,U1,33,RF3/RP16*%
%TO.N,/ADC_CSN2*%
X103311000Y-105796000D03*
%TO.P,U1,34,VBUS*%
%TO.N,Net-(U1-VBUS)*%
X103811000Y-105796000D03*
%TO.P,U1,35,VUSB*%
%TO.N,+3V3*%
X104311000Y-105796000D03*
%TO.P,U1,36,D-*%
%TO.N,Net-(U1-D-)*%
X104811000Y-105796000D03*
%TO.P,U1,37,D+*%
%TO.N,Net-(U1-D+)*%
X105311000Y-105796000D03*
%TO.P,U1,38,VDD*%
%TO.N,+3V3*%
X105811000Y-105796000D03*
%TO.P,U1,39,RC12/OSCI*%
%TO.N,/ENA12V*%
X106311000Y-105796000D03*
%TO.P,U1,40,RC15/OSCO*%
%TO.N,Net-(U1-RC15{slash}OSCO)*%
X106811000Y-105796000D03*
%TO.P,U1,41,VSS*%
%TO.N,GND*%
X107311000Y-105796000D03*
%TO.P,U1,42,RD8/RP2*%
%TO.N,/DAC_CSN*%
X107811000Y-105796000D03*
%TO.P,U1,43,RD9/RP4/SDA1*%
%TO.N,/DAC_MISO*%
X108311000Y-105796000D03*
%TO.P,U1,44,RD10/RP3/SCL1*%
%TO.N,/DAC_MOSI*%
X108811000Y-105796000D03*
%TO.P,U1,45,RD11/RP12*%
%TO.N,/DAC_SCK*%
X109311000Y-105796000D03*
%TO.P,U1,46,RD0/RP11/INT0*%
%TO.N,/RD0*%
X109811000Y-105796000D03*
%TO.P,U1,47,RC13/SOSCI*%
%TO.N,Net-(U1-RC13{slash}SOSCI)*%
X110311000Y-105796000D03*
%TO.P,U1,48,RC14/RPI37/SOSCO*%
%TO.N,Net-(U1-RC14{slash}RPI37{slash}SOSCO)*%
X110811000Y-105796000D03*
D56*
%TO.P,U1,49,RD1/RP24*%
%TO.N,/RD1*%
X111511000Y-105096000D03*
%TO.P,U1,50,RD2/RP23*%
%TO.N,/RD2*%
X111511000Y-104596000D03*
%TO.P,U1,51,RD3/RP22*%
%TO.N,/RD3*%
X111511000Y-104096000D03*
%TO.P,U1,52,RD4/RP25*%
%TO.N,/RD4*%
X111511000Y-103596000D03*
%TO.P,U1,53,RD5/RP20*%
%TO.N,/RD5*%
X111511000Y-103096000D03*
%TO.P,U1,54,RD6*%
%TO.N,/RD6*%
X111511000Y-102596000D03*
%TO.P,U1,55,RD7*%
%TO.N,Net-(U1-RD7)*%
X111511000Y-102096000D03*
%TO.P,U1,56,VCAP*%
%TO.N,Net-(U1-VCAP)*%
X111511000Y-101596000D03*
%TO.P,U1,57,VBAT*%
%TO.N,+3V3*%
X111511000Y-101096000D03*
%TO.P,U1,58,RF0*%
%TO.N,Net-(U1-RF0)*%
X111511000Y-100596000D03*
%TO.P,U1,59,RF1*%
%TO.N,Net-(U1-RF1)*%
X111511000Y-100096000D03*
%TO.P,U1,60,RE0*%
%TO.N,/RE0*%
X111511000Y-99596000D03*
%TO.P,U1,61,RE1*%
%TO.N,/RE1*%
X111511000Y-99096000D03*
%TO.P,U1,62,RE2*%
%TO.N,/RE2*%
X111511000Y-98596000D03*
%TO.P,U1,63,RE3*%
%TO.N,/RE3*%
X111511000Y-98096000D03*
%TO.P,U1,64,RE4*%
%TO.N,/RE4*%
X111511000Y-97596000D03*
D57*
%TO.P,U1,65,EP*%
%TO.N,GND*%
X107061000Y-101346000D03*
%TD*%
D43*
%TO.P,D6,1,K*%
%TO.N,GND*%
X180594000Y-133017500D03*
%TO.P,D6,2,A*%
%TO.N,Net-(D6-A)*%
X180594000Y-131142500D03*
%TD*%
D25*
%TO.P,R56,1*%
%TO.N,Net-(R56-Pad1)*%
X162370000Y-124333000D03*
%TO.P,R56,2*%
%TO.N,/CH2DUT-*%
X164020000Y-124333000D03*
%TD*%
D12*
%TO.P,R21,1*%
%TO.N,Net-(R19-Pad2)*%
X137096000Y-94742000D03*
%TO.P,R21,2*%
%TO.N,Net-(R21-Pad2)*%
X135446000Y-94742000D03*
%TD*%
D20*
%TO.P,C45,1*%
%TO.N,+12V*%
X148336000Y-118885000D03*
%TO.P,C45,2*%
%TO.N,GND*%
X148336000Y-117335000D03*
%TD*%
D35*
%TO.P,J6,1,Pin_1*%
%TO.N,+3V3*%
X170180000Y-125095000D03*
D36*
%TO.P,J6,2,Pin_2*%
%TO.N,GND*%
X172720000Y-125095000D03*
%TO.P,J6,3,Pin_3*%
%TO.N,/D0*%
X175260000Y-125095000D03*
%TO.P,J6,4,Pin_4*%
%TO.N,/D1*%
X177800000Y-125095000D03*
%TO.P,J6,5,Pin_5*%
%TO.N,/D2*%
X180340000Y-125095000D03*
%TO.P,J6,6,Pin_6*%
%TO.N,/D3*%
X182880000Y-125095000D03*
%TD*%
D58*
%TO.N,/CH1DUT+*%
X164871400Y-93599000D03*
%TO.N,GND*%
X137515600Y-130937000D03*
X151384000Y-92811600D03*
X109754000Y-90424000D03*
X181686200Y-133019800D03*
X149148800Y-95758000D03*
X138557000Y-95478600D03*
X126034800Y-109728000D03*
X124968000Y-133350000D03*
X162306000Y-108610400D03*
X101854000Y-99593400D03*
X103251000Y-126365000D03*
X91592400Y-100660200D03*
X157403800Y-113030000D03*
X100584000Y-125857000D03*
X107696000Y-109651800D03*
X98729800Y-98679000D03*
X128066800Y-122047000D03*
X101711500Y-129032000D03*
X101981000Y-121285000D03*
X105410000Y-93726000D03*
X161581465Y-112996601D03*
X96316800Y-118033800D03*
X149098000Y-126136400D03*
X115443000Y-100076000D03*
X128041400Y-104775000D03*
X137845800Y-93218000D03*
X131216400Y-100584000D03*
X109829600Y-111379000D03*
X93999000Y-89910000D03*
X140208000Y-116560600D03*
X139369800Y-113030000D03*
X162306000Y-130962400D03*
X155244800Y-92608400D03*
X131648200Y-93218000D03*
X133883400Y-130479800D03*
X107061000Y-102743000D03*
X105892600Y-109651800D03*
X149101829Y-117344171D03*
X152908000Y-92176600D03*
X118008400Y-111592000D03*
X126542800Y-130302000D03*
X115443000Y-101600000D03*
X97866200Y-107924600D03*
X123672600Y-101396800D03*
X97866200Y-114325400D03*
X151384000Y-115163600D03*
X154139437Y-129933624D03*
X155244800Y-114960400D03*
X140208000Y-99288600D03*
X101711500Y-129032000D03*
X149148800Y-113030000D03*
X123850400Y-121894600D03*
X105664000Y-101346000D03*
X123698000Y-118541800D03*
X141224000Y-106984800D03*
X128041400Y-98044000D03*
X107188000Y-127508000D03*
X113004600Y-86360000D03*
X180594000Y-91922600D03*
X125349000Y-124104400D03*
X109995000Y-117602000D03*
X108458000Y-101346000D03*
X160153200Y-123424800D03*
X102743000Y-133604000D03*
X151384000Y-99669600D03*
X160153200Y-94214800D03*
X120167400Y-104902000D03*
X152069800Y-113665000D03*
X123850400Y-104749600D03*
X111353600Y-111379000D03*
X160153200Y-116566800D03*
X97028000Y-105029000D03*
X128397000Y-110185200D03*
X141224000Y-124256800D03*
X111125000Y-128905000D03*
X151384000Y-122021600D03*
X107950000Y-121793000D03*
X120777000Y-121869200D03*
X137744200Y-100584000D03*
X101981000Y-124206000D03*
X98729800Y-101981000D03*
X137744200Y-117856000D03*
X134747000Y-113538000D03*
X160153200Y-101072800D03*
X126593600Y-93472000D03*
X140208000Y-94970600D03*
X125349000Y-106984800D03*
X131216400Y-113538000D03*
X109601000Y-133538000D03*
X131216400Y-96266000D03*
X154139437Y-107581624D03*
X161581465Y-90644601D03*
X128041400Y-115316000D03*
X131216400Y-117856000D03*
X157403800Y-90678000D03*
X149098000Y-108864400D03*
X149101829Y-100072171D03*
X107061000Y-99949000D03*
X113170000Y-120650000D03*
%TO.N,+3V3*%
X178816000Y-91617800D03*
X119240000Y-121856200D03*
X119253000Y-104698800D03*
X109601000Y-131638000D03*
X101891836Y-98595999D03*
X92799000Y-89865200D03*
X110490000Y-86385400D03*
X112265843Y-101062600D03*
X116014000Y-89916000D03*
X124891800Y-103835200D03*
X124866400Y-121081800D03*
X101878123Y-102084002D03*
X106299000Y-96113600D03*
X105873564Y-106576547D03*
X118008400Y-110292000D03*
X125984000Y-110942000D03*
%TO.N,/VREF*%
X122681798Y-120015000D03*
X102793800Y-96901000D03*
X126542800Y-103251000D03*
X126542800Y-120523000D03*
%TO.N,/DAC1*%
X107264200Y-96062800D03*
X124866400Y-95910400D03*
X120548400Y-97104200D03*
X130962400Y-131120000D03*
%TO.N,/DAC2*%
X119888000Y-97764600D03*
X106172000Y-97917000D03*
X124891800Y-97078800D03*
X129209800Y-129692400D03*
%TO.N,+5V*%
X101981000Y-122875000D03*
X99060000Y-108725000D03*
X99060000Y-113538000D03*
X106756200Y-131851400D03*
%TO.N,-12V*%
X141020800Y-101559000D03*
X155600400Y-109687000D03*
X155702000Y-136271000D03*
X153898600Y-112030000D03*
X137744200Y-119421000D03*
X152171400Y-124374000D03*
X140335000Y-135636000D03*
X138734800Y-106355000D03*
X138734800Y-123627000D03*
X155600400Y-132039000D03*
X141351000Y-135636000D03*
X137744200Y-97831000D03*
X142367000Y-135636000D03*
X137744200Y-102149000D03*
X156591000Y-136271000D03*
X152171400Y-117516000D03*
X152171400Y-95164000D03*
X141020800Y-118831000D03*
X154559000Y-89678000D03*
X152171400Y-102022000D03*
X154844750Y-136271000D03*
X139319000Y-135636000D03*
X137744200Y-115103000D03*
X141020800Y-114513000D03*
X141020800Y-97241000D03*
%TO.N,+12V*%
X131241800Y-119421000D03*
X132969000Y-136906000D03*
X131241800Y-97831000D03*
X147523200Y-114513000D03*
X147523200Y-97241000D03*
X147523200Y-118831000D03*
X147523200Y-101559000D03*
X159994600Y-95164000D03*
X162128200Y-107737000D03*
X159994600Y-117516000D03*
X157524392Y-113907005D03*
X129921000Y-136906000D03*
X157524392Y-91555005D03*
X159994600Y-124374000D03*
X162128200Y-130089000D03*
X148285200Y-106355000D03*
X131241800Y-115103000D03*
X148285200Y-123627000D03*
X178816000Y-133705600D03*
X130937000Y-136906000D03*
X131953000Y-136906000D03*
X159994600Y-102022000D03*
X131241800Y-102149000D03*
%TO.N,Net-(U26-BYPN)*%
X102870000Y-131445000D03*
X102578338Y-126789200D03*
%TO.N,/CH1DUT-*%
X163227200Y-100457000D03*
%TO.N,/CH2DUT+*%
X165042600Y-114928400D03*
%TO.N,/D2*%
X115062000Y-127635000D03*
X166243000Y-133604000D03*
X100203000Y-96520000D03*
X118110000Y-86360000D03*
%TO.N,/D3*%
X166243000Y-134493000D03*
X114427000Y-128270000D03*
X115570000Y-86360000D03*
X99606100Y-97409000D03*
%TO.N,/D0*%
X166243000Y-131826000D03*
X108458000Y-94894400D03*
X116332000Y-126365000D03*
%TO.N,/D1*%
X115697000Y-127000000D03*
X101041200Y-94716600D03*
X166243000Y-132715000D03*
%TO.N,Net-(U1-RF1)*%
X115769371Y-94534971D03*
X108712000Y-91821000D03*
X110566200Y-98602800D03*
X114350800Y-98247200D03*
%TO.N,Net-(U1-RF0)*%
X106553000Y-91059000D03*
X114630200Y-99034600D03*
X110286529Y-100203271D03*
X116662200Y-94208600D03*
%TO.N,Net-(U1-RD7)*%
X110744000Y-102082600D03*
X115468400Y-99136200D03*
X117856000Y-94132400D03*
X106553000Y-89535000D03*
%TO.N,Net-(U1-RC15{slash}OSCO)*%
X97510600Y-99441000D03*
X112445800Y-92710000D03*
X102616000Y-105918000D03*
X109631531Y-92994531D03*
X106680000Y-104902000D03*
X98171000Y-92837000D03*
%TO.N,/VREFDIV2*%
X133421600Y-100990400D03*
X133654800Y-115112800D03*
%TO.N,/CH2DUT-*%
X163245800Y-122809000D03*
%TO.N,Net-(R27-Pad2)*%
X142519400Y-104927400D03*
X145389600Y-105705000D03*
%TO.N,Net-(R29-Pad2)*%
X144297400Y-108966000D03*
X145618200Y-107655000D03*
%TO.N,Net-(R52-Pad2)*%
X145389600Y-122977000D03*
X142519400Y-122199400D03*
%TO.N,Net-(R54-Pad2)*%
X145618200Y-124927000D03*
X144297400Y-126238000D03*
%TO.N,/ENA12V*%
X108839000Y-113233200D03*
X108508800Y-124561600D03*
%TO.N,/ADC_CSN2*%
X102743000Y-107188000D03*
X105156000Y-110744000D03*
%TO.N,/RE3*%
X146989800Y-127711200D03*
X142748000Y-89281000D03*
X147015200Y-120319800D03*
%TO.N,/RE0*%
X153212800Y-122402600D03*
X146050000Y-92049600D03*
X153212800Y-115544600D03*
%TO.N,/ADC_CONVST*%
X119380000Y-118440200D03*
X119380000Y-99339400D03*
X108305600Y-97688400D03*
X119380000Y-101346000D03*
%TO.N,/RE2*%
X140004800Y-127558800D03*
X140004800Y-120319800D03*
X141986000Y-88519000D03*
%TO.N,/RD1*%
X158927800Y-99441000D03*
X158927800Y-93192600D03*
%TO.N,/RE1*%
X158953200Y-115570000D03*
X158945500Y-122402600D03*
X150241000Y-90805000D03*
%TO.N,/RST_N*%
X110109000Y-94361000D03*
X104035000Y-93450000D03*
%TO.N,/RD2*%
X140004800Y-103073200D03*
X142468600Y-93065600D03*
X140004800Y-110286800D03*
%TO.N,/ADC_SCK*%
X121716800Y-118567200D03*
X122072400Y-103860600D03*
X103632000Y-103632000D03*
%TO.N,/CTS*%
X108077000Y-93218000D03*
X109311000Y-94905000D03*
%TO.N,/RE5*%
X160680400Y-114757200D03*
X149098000Y-88392000D03*
%TO.N,/RD0*%
X153212800Y-100050600D03*
X111531400Y-105791000D03*
X152310570Y-93267309D03*
X109811000Y-105029000D03*
%TO.N,/ADC_CSN1*%
X104521000Y-104597200D03*
X117856000Y-104775000D03*
%TO.N,/RD6*%
X154330400Y-94513400D03*
X154330400Y-101371400D03*
X149479000Y-91567000D03*
%TO.N,/RD3*%
X144399000Y-93065600D03*
X147015200Y-103073200D03*
X147015200Y-110312200D03*
%TO.N,/RE6*%
X154305000Y-123723400D03*
X154305000Y-116865400D03*
X146558000Y-86360000D03*
%TO.N,/ADC_MISO*%
X103632000Y-104521000D03*
X121361200Y-102362000D03*
X120878600Y-118541800D03*
%TO.N,/DAC_CSN*%
X112268000Y-108331000D03*
X108077000Y-104902000D03*
%TO.N,Net-(U8-Pad18)*%
X145161000Y-102387400D03*
X144526000Y-100457000D03*
%TO.N,Net-(U10-Pad3)*%
X145703271Y-104410529D03*
X143205200Y-104394000D03*
X145694400Y-98907600D03*
%TO.N,Net-(U17-Pad19)*%
X150342600Y-121310400D03*
X143205200Y-121666000D03*
X148717000Y-121310400D03*
X145703271Y-121682529D03*
%TO.N,Net-(U17-Pad18)*%
X145161000Y-119659400D03*
X144526000Y-117729000D03*
%TD*%
D59*
%TO.N,/CH1DUT+*%
X156764500Y-109037000D02*
X157398600Y-109037000D01*
X164846000Y-99771200D02*
X163895500Y-98820700D01*
X158724600Y-110363000D02*
X163957000Y-110363000D01*
X164020000Y-95123000D02*
X164020000Y-96647000D01*
X163895500Y-98820700D02*
X163895500Y-98552000D01*
X164020000Y-98427500D02*
X163895500Y-98552000D01*
X164020000Y-93599000D02*
X164020000Y-95123000D01*
X157398600Y-109037000D02*
X158724600Y-110363000D01*
X164846000Y-109474000D02*
X164846000Y-99771200D01*
X164020000Y-93599000D02*
X164871400Y-93599000D01*
X163957000Y-110363000D02*
X164846000Y-109474000D01*
X164020000Y-96647000D02*
X164020000Y-98427500D01*
%TO.N,Net-(U1-VCAP)*%
X113118600Y-100076000D02*
X113118600Y-101600000D01*
X111511000Y-101596000D02*
X113114600Y-101596000D01*
X113114600Y-101596000D02*
X113118600Y-101600000D01*
%TO.N,Net-(U1-RC13{slash}SOSCI)*%
X110311000Y-106782800D02*
X110311000Y-105796000D01*
X109891600Y-107202200D02*
X110311000Y-106782800D01*
X109891600Y-109018000D02*
X109829600Y-109080000D01*
X109891600Y-107442000D02*
X109891600Y-109018000D01*
X109891600Y-107442000D02*
X109891600Y-107202200D01*
%TO.N,Net-(U1-RC14{slash}RPI37{slash}SOSCO)*%
X110811000Y-106721600D02*
X110811000Y-105796000D01*
X111291600Y-107442000D02*
X111291600Y-109018000D01*
X111291600Y-107442000D02*
X111291600Y-107202200D01*
X111291600Y-109018000D02*
X111353600Y-109080000D01*
X111291600Y-107202200D02*
X110811000Y-106721600D01*
%TO.N,Net-(C32-Pad2)*%
X160481500Y-91178000D02*
X163073000Y-91178000D01*
X163073000Y-91178000D02*
X163970000Y-92075000D01*
%TO.N,Net-(C32-Pad1)*%
X158945500Y-95814000D02*
X158946100Y-95814600D01*
X153220500Y-95814000D02*
X158945500Y-95814000D01*
X162370000Y-93694000D02*
X162370000Y-93599000D01*
X162370000Y-93599000D02*
X162370000Y-92125000D01*
X158946100Y-95814600D02*
X161226122Y-95814600D01*
X161721800Y-94342200D02*
X162370000Y-93694000D01*
X161721800Y-95318922D02*
X161721800Y-94342200D01*
X162370000Y-92125000D02*
X162420000Y-92075000D01*
X161226122Y-95814600D02*
X161721800Y-95318922D01*
%TO.N,Net-(C51-Pad1)*%
X162370000Y-115951000D02*
X162370000Y-114477000D01*
X161226122Y-118166600D02*
X161721800Y-117670922D01*
X162370000Y-116046000D02*
X162370000Y-115951000D01*
X162370000Y-114477000D02*
X162420000Y-114427000D01*
X153220500Y-118166000D02*
X158945500Y-118166000D01*
X158945500Y-118166000D02*
X158946100Y-118166600D01*
X158946100Y-118166600D02*
X161226122Y-118166600D01*
X161721800Y-117670922D02*
X161721800Y-116694200D01*
X161721800Y-116694200D02*
X162370000Y-116046000D01*
%TO.N,Net-(C51-Pad2)*%
X160481500Y-113530000D02*
X163073000Y-113530000D01*
X163073000Y-113530000D02*
X163970000Y-114427000D01*
%TO.N,Net-(U25-VIN)*%
X104330000Y-122720600D02*
X104330000Y-122809000D01*
X105950000Y-122043000D02*
X105007600Y-122043000D01*
X105007600Y-122043000D02*
X104330000Y-122720600D01*
X104280000Y-121285000D02*
X104280000Y-122759000D01*
X104280000Y-122759000D02*
X104330000Y-122809000D01*
%TO.N,Net-(U25-CP)*%
X108200000Y-119793000D02*
X108200000Y-118609000D01*
X108200000Y-118609000D02*
X108445000Y-118364000D01*
%TO.N,Net-(U25-VREF)*%
X113220000Y-122872000D02*
X113220000Y-122936000D01*
X110679800Y-121043000D02*
X111048800Y-121412000D01*
X112522000Y-122174000D02*
X113220000Y-122872000D01*
X112344200Y-122174000D02*
X112522000Y-122174000D01*
X109950000Y-121043000D02*
X110679800Y-121043000D01*
X111620000Y-121449800D02*
X112344200Y-122174000D01*
X111048800Y-121412000D02*
X111620000Y-121412000D01*
X111620000Y-121412000D02*
X111620000Y-121449800D01*
%TO.N,Net-(U25-CN)*%
X110965000Y-120543000D02*
X111620000Y-119888000D01*
X109950000Y-120543000D02*
X110965000Y-120543000D01*
D60*
%TO.N,Net-(U25-VPOS)*%
X97764600Y-124587000D02*
X97764600Y-116738400D01*
X107266500Y-115316000D02*
X106299000Y-116283500D01*
D11*
X107278400Y-117032000D02*
X106529900Y-116283500D01*
D60*
X97764600Y-116738400D02*
X99756900Y-114746100D01*
X99756900Y-114746100D02*
X104662300Y-114746100D01*
X104662300Y-114746100D02*
X106199700Y-116283500D01*
D11*
X107278400Y-118756200D02*
X107278400Y-117032000D01*
X106529900Y-116283500D02*
X106299000Y-116283500D01*
D60*
X106199700Y-116283500D02*
X106299000Y-116283500D01*
D11*
X107200000Y-118834600D02*
X107278400Y-118756200D01*
D60*
X108395000Y-115316000D02*
X107266500Y-115316000D01*
X99555000Y-126365000D02*
X99542600Y-126365000D01*
D11*
X107200000Y-119793000D02*
X107200000Y-118834600D01*
D60*
X99542600Y-126365000D02*
X97764600Y-124587000D01*
D61*
%TO.N,GND*%
X130429000Y-96253000D02*
X131203400Y-96253000D01*
X148336000Y-113017000D02*
X149135800Y-113017000D01*
X162928600Y-109233000D02*
X162306000Y-108610400D01*
X141203800Y-124277000D02*
X141224000Y-124256800D01*
D62*
X93999000Y-89910000D02*
X94755000Y-89154000D01*
D61*
X127318000Y-98044000D02*
X128041400Y-98044000D01*
X131203400Y-96253000D02*
X131216400Y-96266000D01*
X140010000Y-107005000D02*
X138709400Y-107005000D01*
D11*
X101856600Y-99596000D02*
X101854000Y-99593400D01*
D61*
X125794000Y-130302000D02*
X126542800Y-130302000D01*
X120790000Y-122682000D02*
X120790000Y-121882200D01*
D62*
X113030000Y-86360000D02*
X113004600Y-86360000D01*
D11*
X156256500Y-113030000D02*
X157403800Y-113030000D01*
D60*
X102108000Y-124333000D02*
X101981000Y-124206000D01*
D61*
X149098000Y-108090000D02*
X149098000Y-108864400D01*
D60*
X102680000Y-125857000D02*
X102743000Y-125857000D01*
D11*
X123672600Y-101853600D02*
X123689000Y-101870000D01*
D61*
X138557000Y-100571000D02*
X137757200Y-100571000D01*
X159854000Y-116866000D02*
X160782000Y-115938000D01*
X158945500Y-101372000D02*
X159854000Y-101372000D01*
X130429000Y-113525000D02*
X131203400Y-113525000D01*
X140208000Y-113017000D02*
X139382800Y-113017000D01*
X119124000Y-110942000D02*
X119124000Y-111592000D01*
X159854000Y-101372000D02*
X160782000Y-100444000D01*
D11*
X102611000Y-99596000D02*
X101856600Y-99596000D01*
D61*
X152908000Y-91326000D02*
X152908000Y-92176600D01*
X139382800Y-113017000D02*
X139369800Y-113030000D01*
D60*
X101092000Y-126365000D02*
X100584000Y-125857000D01*
D61*
X154432000Y-114948000D02*
X155232400Y-114948000D01*
X137757200Y-117843000D02*
X137744200Y-117856000D01*
X123838000Y-121907000D02*
X123850400Y-121894600D01*
D11*
X160481500Y-90678000D02*
X161548066Y-90678000D01*
D62*
X91599000Y-100653600D02*
X91592400Y-100660200D01*
D61*
X149092658Y-100063000D02*
X149101829Y-100072171D01*
X140010000Y-124277000D02*
X141203800Y-124277000D01*
D11*
X109200000Y-120543000D02*
X107950000Y-121793000D01*
D61*
X119124000Y-112892000D02*
X119124000Y-112242000D01*
X138239000Y-130937000D02*
X137515600Y-130937000D01*
X159854000Y-94514000D02*
X160782000Y-93586000D01*
D11*
X107311000Y-101596000D02*
X107061000Y-101346000D01*
D61*
X114668600Y-101600000D02*
X115443000Y-101600000D01*
X130429000Y-100571000D02*
X131203400Y-100571000D01*
X125948800Y-109642000D02*
X126034800Y-109728000D01*
D11*
X161548066Y-113030000D02*
X161581465Y-112996601D01*
D61*
X181683900Y-133017500D02*
X181686200Y-133019800D01*
D11*
X123698000Y-118541800D02*
X123698000Y-119006000D01*
D61*
X128410000Y-110198200D02*
X128397000Y-110185200D01*
D11*
X109200000Y-119793000D02*
X109200000Y-120543000D01*
D60*
X113170000Y-119888000D02*
X113170000Y-121412000D01*
D61*
X140010000Y-124277000D02*
X138709400Y-124277000D01*
X139369800Y-113030000D02*
X139052000Y-113030000D01*
X120790000Y-121882200D02*
X120777000Y-121869200D01*
X124849000Y-109642000D02*
X124849000Y-110292000D01*
D60*
X111747000Y-128270000D02*
X111747000Y-128283000D01*
X101105000Y-126365000D02*
X101092000Y-126365000D01*
D61*
X137757200Y-100571000D02*
X137744200Y-100584000D01*
D62*
X97865800Y-114325000D02*
X96957000Y-114325000D01*
D61*
X148336000Y-95745000D02*
X149135800Y-95745000D01*
X106273600Y-93713000D02*
X105423000Y-93713000D01*
D62*
X91599000Y-99500000D02*
X91599000Y-100653600D01*
D61*
X107696000Y-108902000D02*
X107696000Y-109651800D01*
X96329000Y-105029000D02*
X97028000Y-105029000D01*
X149135800Y-95745000D02*
X149148800Y-95758000D01*
X128410000Y-110998000D02*
X128410000Y-110198200D01*
X139052000Y-113030000D02*
X138557000Y-113525000D01*
X105423000Y-93713000D02*
X105410000Y-93726000D01*
X140208000Y-95745000D02*
X140208000Y-94970600D01*
D11*
X107311000Y-105796000D02*
X107311000Y-101596000D01*
D61*
X180594000Y-91107500D02*
X180594000Y-91922600D01*
D60*
X111747000Y-128283000D02*
X111125000Y-128905000D01*
D61*
X134048000Y-113538000D02*
X135446000Y-113538000D01*
X155232400Y-92596000D02*
X155244800Y-92608400D01*
X124849000Y-109642000D02*
X125948800Y-109642000D01*
D11*
X105950000Y-121043000D02*
X107200000Y-121043000D01*
D61*
X148336000Y-117335000D02*
X149092658Y-117335000D01*
X154139437Y-107581624D02*
X154838624Y-107581624D01*
X127318000Y-104775000D02*
X128041400Y-104775000D01*
D62*
X97866200Y-114325400D02*
X97865800Y-114325000D01*
D11*
X105950000Y-121543000D02*
X107700000Y-121543000D01*
D61*
X125349000Y-106185000D02*
X125349000Y-106984800D01*
D62*
X93999000Y-91000000D02*
X93999000Y-89910000D01*
D61*
X123850400Y-104749600D02*
X123850400Y-105524600D01*
X149098000Y-125362000D02*
X149098000Y-126136400D01*
X158945500Y-123724000D02*
X159854000Y-123724000D01*
X155232400Y-114948000D02*
X155244800Y-114960400D01*
X99529600Y-98679000D02*
X98729800Y-98679000D01*
X162941000Y-109233000D02*
X162928600Y-109233000D01*
X151384000Y-100444000D02*
X151384000Y-99669600D01*
X105892600Y-108852000D02*
X105892600Y-109651800D01*
X96329000Y-117221000D02*
X96329000Y-118021600D01*
X151384000Y-122796000D02*
X151384000Y-122021600D01*
X127318000Y-115316000D02*
X128041400Y-115316000D01*
D60*
X109995000Y-118364000D02*
X109995000Y-116890000D01*
D61*
X125349000Y-123330000D02*
X125349000Y-124104400D01*
X152908000Y-113678000D02*
X152082800Y-113678000D01*
X131203400Y-117843000D02*
X131216400Y-117856000D01*
X120167400Y-104902000D02*
X120790000Y-105524600D01*
D62*
X97865800Y-107925000D02*
X97866200Y-107924600D01*
D61*
X133893200Y-130470000D02*
X133883400Y-130479800D01*
X123850400Y-105524600D02*
X123838000Y-105537000D01*
D11*
X107200000Y-121043000D02*
X107950000Y-121793000D01*
D61*
X137845800Y-93218000D02*
X137096000Y-93218000D01*
X138557000Y-117843000D02*
X137757200Y-117843000D01*
X162941000Y-131585000D02*
X162928600Y-131585000D01*
X154432000Y-92596000D02*
X155232400Y-92596000D01*
X131203400Y-100571000D02*
X131216400Y-100584000D01*
D11*
X106811000Y-101096000D02*
X107061000Y-101346000D01*
D61*
X149092658Y-117335000D02*
X149101829Y-117344171D01*
D11*
X161548066Y-90678000D02*
X161581465Y-90644601D01*
D62*
X96957000Y-107925000D02*
X97865800Y-107925000D01*
D11*
X123672600Y-101396800D02*
X123672600Y-101853600D01*
D60*
X101994000Y-133604000D02*
X103492000Y-133604000D01*
D61*
X131203400Y-113525000D02*
X131216400Y-113538000D01*
X96329000Y-118021600D02*
X96316800Y-118033800D01*
D60*
X102730000Y-124333000D02*
X102108000Y-124333000D01*
D61*
X125844000Y-133350000D02*
X124968000Y-133350000D01*
X180594000Y-133017500D02*
X181683900Y-133017500D01*
D60*
X108633500Y-133538000D02*
X110061000Y-133538000D01*
D61*
X127318000Y-93472000D02*
X126593600Y-93472000D01*
X123838000Y-122682000D02*
X123838000Y-121907000D01*
X99529600Y-101981000D02*
X98729800Y-101981000D01*
X138499000Y-107005000D02*
X137922000Y-107582000D01*
D11*
X160481500Y-113030000D02*
X161548066Y-113030000D01*
D60*
X102743000Y-125857000D02*
X103251000Y-126365000D01*
D61*
X151384000Y-93586000D02*
X151384000Y-92811600D01*
X141203800Y-107005000D02*
X141224000Y-106984800D01*
X138499000Y-124277000D02*
X138709400Y-124277000D01*
D11*
X102489000Y-130432000D02*
X102489000Y-129809500D01*
D61*
X149135800Y-113017000D02*
X149148800Y-113030000D01*
X154838624Y-129933624D02*
X154940000Y-130035000D01*
D11*
X107700000Y-121543000D02*
X107950000Y-121793000D01*
D61*
X140208000Y-117335000D02*
X140208000Y-116560600D01*
X158945500Y-94514000D02*
X159854000Y-94514000D01*
X158945500Y-116866000D02*
X159854000Y-116866000D01*
D60*
X109995000Y-116890000D02*
X110045000Y-116840000D01*
D61*
X119124000Y-112242000D02*
X119124000Y-111592000D01*
X127318000Y-122047000D02*
X128066800Y-122047000D01*
X159854000Y-123724000D02*
X160782000Y-122796000D01*
X140010000Y-107005000D02*
X141203800Y-107005000D01*
X148336000Y-100063000D02*
X149092658Y-100063000D01*
X138557000Y-96253000D02*
X138557000Y-95478600D01*
X138499000Y-107005000D02*
X138709400Y-107005000D01*
D11*
X102489000Y-129809500D02*
X101711500Y-129032000D01*
X102489000Y-130432000D02*
X102989000Y-130432000D01*
D61*
X140208000Y-100063000D02*
X140208000Y-99288600D01*
X154139437Y-129933624D02*
X154838624Y-129933624D01*
D11*
X156256500Y-90678000D02*
X157403800Y-90678000D01*
D61*
X119124000Y-111592000D02*
X117529000Y-111592000D01*
X109829600Y-110630000D02*
X109829600Y-111379000D01*
D60*
X106198000Y-127508000D02*
X107188000Y-127508000D01*
D61*
X130429000Y-117843000D02*
X131203400Y-117843000D01*
X151384000Y-115938000D02*
X151384000Y-115163600D01*
X138499000Y-124277000D02*
X137922000Y-124854000D01*
X154838624Y-107581624D02*
X154940000Y-107683000D01*
D11*
X123698000Y-119006000D02*
X123689000Y-119015000D01*
D61*
X152082800Y-113678000D02*
X152069800Y-113665000D01*
D60*
X101232000Y-121285000D02*
X102730000Y-121285000D01*
D11*
X106811000Y-96896000D02*
X106811000Y-101096000D01*
D61*
X162928600Y-131585000D02*
X162306000Y-130962400D01*
D60*
X110061000Y-133538000D02*
X110363000Y-133236000D01*
D61*
X120790000Y-105524600D02*
X120790000Y-105537000D01*
D62*
X109754000Y-89154000D02*
X109754000Y-91694000D01*
D61*
X117529000Y-111592000D02*
X117221000Y-111900000D01*
X131648200Y-93218000D02*
X132398000Y-93218000D01*
X134942500Y-130470000D02*
X133893200Y-130470000D01*
D11*
X102611000Y-99596000D02*
X102611000Y-99096000D01*
D61*
X111353600Y-110630000D02*
X111353600Y-111379000D01*
X114668600Y-100076000D02*
X115443000Y-100076000D01*
D11*
%TO.N,+3V3*%
X106273600Y-95263000D02*
X106273600Y-96088200D01*
D59*
X95732600Y-88214200D02*
X94144800Y-88214200D01*
D61*
X178816000Y-90868000D02*
X178816000Y-91617800D01*
D59*
X96471500Y-88953100D02*
X95732600Y-88214200D01*
D11*
X123689000Y-120515000D02*
X124299600Y-120515000D01*
D59*
X98893400Y-88225400D02*
X97169200Y-88225400D01*
X104311000Y-105315200D02*
X104483800Y-105142400D01*
D11*
X124426600Y-103370000D02*
X124891800Y-103835200D01*
D59*
X97169200Y-88225400D02*
X96471500Y-88923100D01*
D11*
X102611000Y-102096000D02*
X101890121Y-102096000D01*
X106311000Y-96125600D02*
X106299000Y-96113600D01*
D62*
X110490000Y-86360000D02*
X110490000Y-86385400D01*
D11*
X119240000Y-121856200D02*
X119240000Y-121164000D01*
D61*
X117152000Y-110292000D02*
X117094000Y-110350000D01*
D11*
X119240000Y-121164000D02*
X119389000Y-121015000D01*
D59*
X96471500Y-88923100D02*
X96471500Y-89154000D01*
D11*
X101182602Y-102084002D02*
X101878123Y-102084002D01*
X119253000Y-104006000D02*
X119253000Y-104698800D01*
D61*
X117279000Y-110292000D02*
X117221000Y-110350000D01*
D60*
X108633500Y-131638000D02*
X110315000Y-131638000D01*
D11*
X101890121Y-102096000D02*
X101878123Y-102084002D01*
X106273600Y-96088200D02*
X106299000Y-96113600D01*
D59*
X105625000Y-105142400D02*
X105811000Y-105328400D01*
D11*
X123689000Y-103370000D02*
X124426600Y-103370000D01*
X105811000Y-105796000D02*
X105811000Y-106513983D01*
X101891836Y-98595999D02*
X101162601Y-98595999D01*
D61*
X119124000Y-110292000D02*
X117279000Y-110292000D01*
X125349000Y-104635000D02*
X124891800Y-104177800D01*
D59*
X100222000Y-89554000D02*
X98893400Y-88225400D01*
X105811000Y-105328400D02*
X105811000Y-105796000D01*
D61*
X126804000Y-110942000D02*
X126860000Y-110998000D01*
D11*
X112232443Y-101096000D02*
X112265843Y-101062600D01*
X105811000Y-106513983D02*
X105873564Y-106576547D01*
X101162601Y-98595999D02*
X101079600Y-98679000D01*
D61*
X124891800Y-104177800D02*
X124891800Y-103835200D01*
X119240000Y-104711800D02*
X119253000Y-104698800D01*
D11*
X105873564Y-106576547D02*
X105873564Y-107282964D01*
D59*
X100550000Y-89554000D02*
X100222000Y-89554000D01*
D11*
X124299600Y-120515000D02*
X124866400Y-121081800D01*
D60*
X110315000Y-131638000D02*
X110363000Y-131686000D01*
D11*
X106311000Y-96896000D02*
X106311000Y-96125600D01*
D61*
X119240000Y-105537000D02*
X119240000Y-104711800D01*
D62*
X92799000Y-91000000D02*
X92799000Y-89560000D01*
D11*
X105873564Y-107282964D02*
X105892600Y-107302000D01*
D62*
X92799000Y-89560000D02*
X93205000Y-89154000D01*
D11*
X111511000Y-101096000D02*
X112232443Y-101096000D01*
X101891837Y-98596000D02*
X102611000Y-98596000D01*
D62*
X116014000Y-89154000D02*
X116014000Y-90678000D01*
D59*
X104483800Y-105142400D02*
X105625000Y-105142400D01*
X96471500Y-89154000D02*
X96471500Y-88953100D01*
X104311000Y-105796000D02*
X104311000Y-105315200D01*
D61*
X119240000Y-121856200D02*
X119240000Y-122682000D01*
X124866400Y-121335800D02*
X125310600Y-121780000D01*
D11*
X101079600Y-101981000D02*
X101182602Y-102084002D01*
D61*
X125310600Y-121780000D02*
X125349000Y-121780000D01*
D59*
X94144800Y-88214200D02*
X93205000Y-89154000D01*
D11*
X101891836Y-98595999D02*
X101891837Y-98596000D01*
X119389000Y-103870000D02*
X119253000Y-104006000D01*
D61*
X124849000Y-110942000D02*
X126804000Y-110942000D01*
X124866400Y-121081800D02*
X124866400Y-121335800D01*
D59*
%TO.N,/CH1IN-*%
X128968000Y-101092000D02*
X128968000Y-99568000D01*
X128968000Y-101092000D02*
X127690000Y-102370000D01*
X129181000Y-99781000D02*
X128968000Y-99568000D01*
X127690000Y-102370000D02*
X123689000Y-102370000D01*
X132380500Y-99781000D02*
X129181000Y-99781000D01*
X129136000Y-99400000D02*
X128968000Y-99568000D01*
%TO.N,/CH1IN+*%
X128968000Y-107823000D02*
X128256800Y-108534200D01*
X126942526Y-108534200D02*
X126441200Y-108032874D01*
X126441200Y-108032874D02*
X126441200Y-104267000D01*
X131105000Y-104099000D02*
X128968000Y-106236000D01*
X128256800Y-108534200D02*
X126942526Y-108534200D01*
X128968000Y-106210600D02*
X128968000Y-106299000D01*
X128968000Y-106236000D02*
X128968000Y-106299000D01*
X125044200Y-102870000D02*
X123689000Y-102870000D01*
X126441200Y-104267000D02*
X125044200Y-102870000D01*
X128968000Y-107823000D02*
X128968000Y-106299000D01*
X132380500Y-104099000D02*
X131105000Y-104099000D01*
%TO.N,/CH2IN-*%
X132380500Y-117053000D02*
X129181000Y-117053000D01*
X128968000Y-118364000D02*
X127817000Y-119515000D01*
X129136000Y-116672000D02*
X128968000Y-116840000D01*
X129181000Y-117053000D02*
X128968000Y-116840000D01*
X128968000Y-118364000D02*
X128968000Y-116840000D01*
X127817000Y-119515000D02*
X123689000Y-119515000D01*
%TO.N,/CH2IN+*%
X128968000Y-123482600D02*
X128968000Y-123571000D01*
X126415800Y-125298200D02*
X126415800Y-121539000D01*
X124891800Y-120015000D02*
X123689000Y-120015000D01*
X126916200Y-125798600D02*
X126415800Y-125298200D01*
X126415800Y-121539000D02*
X124891800Y-120015000D01*
X128968000Y-123533400D02*
X128968000Y-123571000D01*
X128968000Y-125095000D02*
X128264400Y-125798600D01*
X131130400Y-121371000D02*
X128968000Y-123533400D01*
X128968000Y-125095000D02*
X128968000Y-123571000D01*
X132380500Y-121371000D02*
X131130400Y-121371000D01*
X128264400Y-125798600D02*
X126916200Y-125798600D01*
%TO.N,/CH1OUT-*%
X125534982Y-107823000D02*
X125815100Y-108103118D01*
X130200400Y-108991400D02*
X134048000Y-105143800D01*
X124028200Y-107823000D02*
X125534982Y-107823000D01*
X134048000Y-105143800D02*
X134048000Y-96266000D01*
X124294018Y-108992000D02*
X123799600Y-108497582D01*
X123799600Y-108051600D02*
X124028200Y-107823000D01*
X126695200Y-108991400D02*
X130200400Y-108991400D01*
X125815100Y-108103118D02*
X125815100Y-108111300D01*
X123799600Y-108497582D02*
X123799600Y-108051600D01*
X125815100Y-108111300D02*
X126695200Y-108991400D01*
X124849000Y-108992000D02*
X124294018Y-108992000D01*
%TO.N,/CH1OUT+*%
X126466600Y-109397800D02*
X130708400Y-109397800D01*
X135446000Y-96329000D02*
X135446000Y-96266000D01*
X125410800Y-108342000D02*
X126466600Y-109397800D01*
X134696200Y-97078800D02*
X135446000Y-96329000D01*
X130708400Y-109397800D02*
X134696200Y-105410000D01*
X124849000Y-108342000D02*
X125410800Y-108342000D01*
X134696200Y-105410000D02*
X134696200Y-97078800D01*
%TO.N,/CH2OUT-*%
X131648200Y-110490000D02*
X132398000Y-110490000D01*
X129246200Y-112892000D02*
X131648200Y-110490000D01*
X124849000Y-112892000D02*
X129246200Y-112892000D01*
%TO.N,/CH2OUT+*%
X129032600Y-112242000D02*
X131597400Y-109677200D01*
X124849000Y-112242000D02*
X129032600Y-112242000D01*
X137096000Y-110426000D02*
X137096000Y-110490000D01*
X131597400Y-109677200D02*
X136347200Y-109677200D01*
X136347200Y-109677200D02*
X137096000Y-110426000D01*
%TO.N,/VREF*%
X127318000Y-103251000D02*
X126542800Y-103251000D01*
X123882900Y-113621300D02*
X123882900Y-113962700D01*
X123689000Y-103870000D02*
X123155200Y-103870000D01*
X127318000Y-96583000D02*
X127318000Y-96520000D01*
X123689000Y-103870000D02*
X123174000Y-103870000D01*
X124053600Y-113792000D02*
X123888500Y-113957100D01*
X122682000Y-120523000D02*
X123024900Y-120865900D01*
X122288000Y-105537000D02*
X122288000Y-109588000D01*
X124053600Y-113792000D02*
X123882900Y-113621300D01*
X124079000Y-113792000D02*
X124053600Y-113792000D01*
X122288000Y-109588000D02*
X124292000Y-111592000D01*
X127318000Y-113792000D02*
X124079000Y-113792000D01*
X124292000Y-111592000D02*
X124849000Y-111592000D01*
X122288000Y-121907600D02*
X122288000Y-122682000D01*
X123882900Y-113595900D02*
X123882900Y-112003118D01*
X123155200Y-103870000D02*
X123012200Y-104013000D01*
X123882900Y-112003118D02*
X124294018Y-111592000D01*
X122681798Y-103377798D02*
X123012200Y-103708200D01*
X123882900Y-113621300D02*
X123882900Y-113595900D01*
X127318000Y-94996000D02*
X127318000Y-96520000D01*
X123825000Y-99060000D02*
X122681798Y-100203202D01*
X123024900Y-120865900D02*
X123024900Y-121170700D01*
X102798800Y-96896000D02*
X102793800Y-96901000D01*
X122681798Y-102870000D02*
X122681798Y-103377798D01*
X122288000Y-104737200D02*
X122288000Y-105537000D01*
X124294018Y-111592000D02*
X124849000Y-111592000D01*
X123825000Y-99060000D02*
X126365000Y-96520000D01*
X127318000Y-120523000D02*
X126542800Y-120523000D01*
X123012200Y-103708200D02*
X123012200Y-104013000D01*
X123012200Y-104013000D02*
X122288000Y-104737200D01*
X122682000Y-115163600D02*
X122682000Y-120523000D01*
X126365000Y-96520000D02*
X127318000Y-96520000D01*
X123180600Y-121015000D02*
X123024900Y-121170700D01*
X123024900Y-121170700D02*
X122288000Y-121907600D01*
X123689000Y-121015000D02*
X123180600Y-121015000D01*
X123174000Y-121015000D02*
X123689000Y-121015000D01*
X123882900Y-113962700D02*
X122682000Y-115163600D01*
X123024900Y-120865900D02*
X123174000Y-121015000D01*
X103311000Y-96896000D02*
X102798800Y-96896000D01*
X123174000Y-103870000D02*
X123012200Y-103708200D01*
X122681798Y-100203202D02*
X122681798Y-102870000D01*
%TO.N,/DAC1*%
X130962400Y-131120000D02*
X134942500Y-131120000D01*
X123672600Y-97104200D02*
X124866400Y-95910400D01*
X107311000Y-96109600D02*
X107311000Y-96896000D01*
X107264200Y-96062800D02*
X107311000Y-96109600D01*
X120548400Y-97104200D02*
X123672600Y-97104200D01*
%TO.N,/DAC2*%
X103505000Y-102743000D02*
X103152000Y-103096000D01*
X106172000Y-97917000D02*
X104521000Y-97917000D01*
X104521000Y-97917000D02*
X103505000Y-98933000D01*
X129217500Y-129700100D02*
X129217500Y-130470000D01*
X103152000Y-103096000D02*
X102611000Y-103096000D01*
X124206000Y-97764600D02*
X124891800Y-97078800D01*
X103505000Y-98933000D02*
X103505000Y-102743000D01*
X129209800Y-129692400D02*
X129217500Y-129700100D01*
X119888000Y-97764600D02*
X124206000Y-97764600D01*
D11*
%TO.N,Net-(U25-VNEG)*%
X103489000Y-128887000D02*
X103634000Y-129032000D01*
X103489000Y-130432000D02*
X103489000Y-129177000D01*
X111570000Y-124422400D02*
X111570000Y-124460000D01*
D60*
X111239100Y-130327900D02*
X113297000Y-128270000D01*
D11*
X110890600Y-123743000D02*
X111570000Y-124422400D01*
D60*
X105103100Y-130327900D02*
X111239100Y-130327900D01*
X113297000Y-126400500D02*
X113332500Y-126365000D01*
D11*
X110350000Y-122043000D02*
X110890600Y-122583600D01*
X103489000Y-129177000D02*
X103634000Y-129032000D01*
D60*
X104457500Y-129413000D02*
X104457500Y-129682300D01*
X111570000Y-124473200D02*
X113332500Y-126235700D01*
X113297000Y-128270000D02*
X113297000Y-126400500D01*
X104457500Y-129682300D02*
X105103100Y-130327900D01*
D11*
X110890600Y-122583600D02*
X110890600Y-123743000D01*
D60*
X113332500Y-126235700D02*
X113332500Y-126365000D01*
D11*
X109950000Y-122043000D02*
X110350000Y-122043000D01*
X103489000Y-127632000D02*
X103489000Y-128887000D01*
D60*
X111570000Y-124460000D02*
X111570000Y-124473200D01*
%TO.N,+5V*%
X153568400Y-136118600D02*
X154305000Y-135382000D01*
D59*
X102983800Y-108902000D02*
X102806800Y-108725000D01*
D60*
X127381000Y-134620000D02*
X127889000Y-134620000D01*
X106758500Y-131853700D02*
X106756200Y-131851400D01*
D61*
X126899000Y-134620000D02*
X126873000Y-134620000D01*
D60*
X102614000Y-122875000D02*
X102680000Y-122809000D01*
X100886500Y-122875000D02*
X102614000Y-122875000D01*
D62*
X99047000Y-113525000D02*
X96957000Y-113525000D01*
D61*
X127394000Y-134112000D02*
X127394000Y-134607000D01*
X127394000Y-134125000D02*
X127889000Y-134620000D01*
D60*
X106758500Y-133555500D02*
X107823000Y-134620000D01*
X146278600Y-136118600D02*
X153568400Y-136118600D01*
X107823000Y-134620000D02*
X126873000Y-134620000D01*
X148590000Y-90170000D02*
X144780000Y-90170000D01*
D62*
X96957000Y-108725000D02*
X99060000Y-108725000D01*
D60*
X106758500Y-132588000D02*
X106758500Y-131853700D01*
X126873000Y-134620000D02*
X127381000Y-134620000D01*
X167259000Y-134747000D02*
X167259000Y-98526600D01*
X166624000Y-135382000D02*
X167259000Y-134747000D01*
D61*
X127394000Y-134607000D02*
X127381000Y-134620000D01*
D59*
X102806800Y-108725000D02*
X99060000Y-108725000D01*
D60*
X154305000Y-135382000D02*
X166624000Y-135382000D01*
D61*
X129217500Y-132420000D02*
X128324000Y-132420000D01*
D60*
X144780000Y-134620000D02*
X146278600Y-136118600D01*
D61*
X128324000Y-132420000D02*
X127394000Y-133350000D01*
D59*
X103860600Y-108902000D02*
X102983800Y-108902000D01*
D61*
X127394000Y-134112000D02*
X127394000Y-134125000D01*
D60*
X167259000Y-98526600D02*
X168630600Y-97155000D01*
X151003000Y-87757000D02*
X148590000Y-90170000D01*
X162306000Y-87757000D02*
X151003000Y-87757000D01*
X106758500Y-132588000D02*
X106758500Y-133555500D01*
D62*
X99060000Y-113538000D02*
X99047000Y-113525000D01*
D60*
X170180000Y-95631000D02*
X162306000Y-87757000D01*
X127889000Y-134620000D02*
X144780000Y-134620000D01*
X168630600Y-97155000D02*
X170180000Y-97155000D01*
X170180000Y-97155000D02*
X170180000Y-95631000D01*
D61*
X127394000Y-133350000D02*
X127394000Y-134112000D01*
X127394000Y-134125000D02*
X126899000Y-134620000D01*
D59*
%TO.N,Net-(U26-BYPP)*%
X101989000Y-130432000D02*
X101989000Y-132075000D01*
X101989000Y-132075000D02*
X101994000Y-132080000D01*
D61*
%TO.N,-12V*%
X136605500Y-119421000D02*
X138529000Y-119421000D01*
X155394000Y-132039000D02*
X156764500Y-132039000D01*
D11*
X154559000Y-89678000D02*
X153006000Y-89678000D01*
D61*
X140262000Y-114513000D02*
X140208000Y-114567000D01*
X140262000Y-101559000D02*
X140208000Y-101613000D01*
X138529000Y-115103000D02*
X138557000Y-115075000D01*
X138245000Y-106355000D02*
X137922000Y-106032000D01*
X155394000Y-109687000D02*
X156764500Y-109687000D01*
D11*
X156256500Y-112030000D02*
X153898600Y-112030000D01*
D61*
X142159500Y-118831000D02*
X140262000Y-118831000D01*
X153220500Y-117516000D02*
X151412000Y-117516000D01*
X153220500Y-102022000D02*
X151412000Y-102022000D01*
D60*
X154082750Y-137033000D02*
X154844750Y-136271000D01*
X107061000Y-135636000D02*
X105042000Y-133617000D01*
X142367000Y-135636000D02*
X107061000Y-135636000D01*
D61*
X153220500Y-124374000D02*
X151412000Y-124374000D01*
X138245000Y-123627000D02*
X137922000Y-123304000D01*
X153220500Y-95164000D02*
X151412000Y-95164000D01*
X136605500Y-115103000D02*
X138529000Y-115103000D01*
X151412000Y-117516000D02*
X151384000Y-117488000D01*
D60*
X105042000Y-133604000D02*
X105042000Y-132080000D01*
D61*
X151412000Y-95164000D02*
X151384000Y-95136000D01*
X138529000Y-102149000D02*
X138557000Y-102121000D01*
X142159500Y-114513000D02*
X140262000Y-114513000D01*
X136605500Y-102149000D02*
X138529000Y-102149000D01*
D60*
X143764000Y-137033000D02*
X154082750Y-137033000D01*
D61*
X151412000Y-124374000D02*
X151384000Y-124346000D01*
D60*
X105042000Y-133617000D02*
X105042000Y-133604000D01*
D61*
X151412000Y-102022000D02*
X151384000Y-101994000D01*
D11*
X156256500Y-89678000D02*
X154559000Y-89678000D01*
D60*
X154844750Y-136271000D02*
X156591000Y-136271000D01*
D61*
X140010000Y-123627000D02*
X138245000Y-123627000D01*
D60*
X142367000Y-135636000D02*
X143764000Y-137033000D01*
D61*
X138529000Y-119421000D02*
X138557000Y-119393000D01*
X140262000Y-97241000D02*
X140208000Y-97295000D01*
X140262000Y-118831000D02*
X140208000Y-118885000D01*
X154940000Y-131585000D02*
X155394000Y-132039000D01*
X136605500Y-97831000D02*
X138529000Y-97831000D01*
X138529000Y-97831000D02*
X138557000Y-97803000D01*
D11*
X153898600Y-112030000D02*
X153006000Y-112030000D01*
D61*
X140010000Y-106355000D02*
X138245000Y-106355000D01*
X142159500Y-101559000D02*
X140262000Y-101559000D01*
D11*
X153006000Y-89678000D02*
X152908000Y-89776000D01*
D61*
X154940000Y-109233000D02*
X155394000Y-109687000D01*
X142159500Y-97241000D02*
X140262000Y-97241000D01*
D11*
X153006000Y-112030000D02*
X152908000Y-112128000D01*
%TO.N,+12V*%
X156256500Y-113530000D02*
X154564000Y-113530000D01*
D61*
X160989500Y-107737000D02*
X162887000Y-107737000D01*
X162887000Y-130089000D02*
X162941000Y-130035000D01*
X130457000Y-97831000D02*
X130429000Y-97803000D01*
D11*
X156256500Y-113530000D02*
X157077616Y-113530000D01*
D60*
X100444000Y-133604000D02*
X100444000Y-132080000D01*
D61*
X148282000Y-114513000D02*
X148336000Y-114567000D01*
D60*
X103505000Y-136906000D02*
X100444000Y-133845000D01*
D61*
X148282000Y-101559000D02*
X148336000Y-101613000D01*
D59*
X178816000Y-133705600D02*
X178816000Y-132778000D01*
D61*
X146384500Y-101559000D02*
X148282000Y-101559000D01*
X132380500Y-102149000D02*
X130457000Y-102149000D01*
D11*
X156256500Y-91178000D02*
X154564000Y-91178000D01*
D61*
X158945500Y-124374000D02*
X160754000Y-124374000D01*
X132380500Y-97831000D02*
X130457000Y-97831000D01*
X148913000Y-106355000D02*
X149098000Y-106540000D01*
X147010000Y-123627000D02*
X148913000Y-123627000D01*
D11*
X157077616Y-91178000D02*
X157454621Y-91555005D01*
X156256500Y-91178000D02*
X157077616Y-91178000D01*
X154564000Y-113530000D02*
X154432000Y-113398000D01*
X157454621Y-113907005D02*
X157524392Y-113907005D01*
D61*
X158945500Y-102022000D02*
X160754000Y-102022000D01*
D11*
X157077616Y-113530000D02*
X157454621Y-113907005D01*
D61*
X158945500Y-117516000D02*
X160754000Y-117516000D01*
X148913000Y-123627000D02*
X149098000Y-123812000D01*
X132380500Y-119421000D02*
X130457000Y-119421000D01*
X160989500Y-130089000D02*
X162887000Y-130089000D01*
X160754000Y-102022000D02*
X160782000Y-101994000D01*
X146384500Y-114513000D02*
X148282000Y-114513000D01*
D60*
X100444000Y-133845000D02*
X100444000Y-133604000D01*
D61*
X147010000Y-106355000D02*
X148913000Y-106355000D01*
D11*
X157454621Y-91555005D02*
X157524392Y-91555005D01*
D61*
X160754000Y-117516000D02*
X160782000Y-117488000D01*
X146384500Y-118831000D02*
X148282000Y-118831000D01*
X130457000Y-102149000D02*
X130429000Y-102121000D01*
D60*
X131953000Y-136906000D02*
X132969000Y-136906000D01*
D61*
X158945500Y-95164000D02*
X160754000Y-95164000D01*
X146384500Y-97241000D02*
X148282000Y-97241000D01*
X160754000Y-95164000D02*
X160782000Y-95136000D01*
X148282000Y-97241000D02*
X148336000Y-97295000D01*
D60*
X129921000Y-136906000D02*
X131953000Y-136906000D01*
D61*
X130457000Y-119421000D02*
X130429000Y-119393000D01*
D11*
X154564000Y-91178000D02*
X154432000Y-91046000D01*
D60*
X129921000Y-136906000D02*
X103505000Y-136906000D01*
D61*
X148282000Y-118831000D02*
X148336000Y-118885000D01*
X132380500Y-115103000D02*
X130457000Y-115103000D01*
X130457000Y-115103000D02*
X130429000Y-115075000D01*
X162887000Y-107737000D02*
X162941000Y-107683000D01*
X160754000Y-124374000D02*
X160782000Y-124346000D01*
D59*
%TO.N,Net-(U26-BYPN)*%
X102489000Y-126878538D02*
X102578338Y-126789200D01*
X103492000Y-132080000D02*
X103492000Y-132067000D01*
X102489000Y-127632000D02*
X102489000Y-126878538D01*
X103492000Y-132067000D02*
X102870000Y-131445000D01*
%TO.N,Net-(D1-Pad4)*%
X104077000Y-91021400D02*
X104077000Y-91059000D01*
X102889000Y-89554000D02*
X103448400Y-90113400D01*
X103448400Y-90392800D02*
X104077000Y-91021400D01*
X102650000Y-89554000D02*
X102889000Y-89554000D01*
X103448400Y-90113400D02*
X103448400Y-90392800D01*
%TO.N,Net-(D1-Pad1)*%
X101498400Y-89408000D02*
X100844400Y-88754000D01*
X101029000Y-91059000D02*
X101029000Y-90995000D01*
X101029000Y-90995000D02*
X101498400Y-90525600D01*
X101498400Y-90525600D02*
X101498400Y-89408000D01*
X100844400Y-88754000D02*
X100550000Y-88754000D01*
%TO.N,Net-(D1-Pad2)*%
X104077000Y-89472000D02*
X104077000Y-89535000D01*
X102650000Y-88754000D02*
X103359000Y-88754000D01*
X103359000Y-88754000D02*
X104077000Y-89472000D01*
%TO.N,/CH1DUT-*%
X164020000Y-100457000D02*
X163227200Y-100457000D01*
X164020000Y-100457000D02*
X164020000Y-101981000D01*
X163296600Y-110007400D02*
X161925000Y-110007400D01*
X161604600Y-109687000D02*
X160989500Y-109687000D01*
X164020000Y-101981000D02*
X164020000Y-103505000D01*
X164020000Y-103505000D02*
X164020000Y-105285500D01*
X161925000Y-110007400D02*
X161604600Y-109687000D01*
X163895500Y-105410000D02*
X163895500Y-109408500D01*
X164020000Y-105285500D02*
X163895500Y-105410000D01*
X163895500Y-109408500D02*
X163296600Y-110007400D01*
%TO.N,/CH2DUT+*%
X164020000Y-115951000D02*
X165042600Y-114928400D01*
X164846000Y-131826000D02*
X164846000Y-122123200D01*
X164020000Y-118999000D02*
X164020000Y-120779500D01*
X157398600Y-131389000D02*
X158724600Y-132715000D01*
X164020000Y-120779500D02*
X163895500Y-120904000D01*
X156764500Y-131389000D02*
X157398600Y-131389000D01*
X164020000Y-115951000D02*
X164020000Y-117475000D01*
X163957000Y-132715000D02*
X164846000Y-131826000D01*
X164846000Y-122123200D02*
X163895500Y-121172700D01*
X163895500Y-121172700D02*
X163895500Y-120904000D01*
X164020000Y-117475000D02*
X164020000Y-118999000D01*
X158724600Y-132715000D02*
X163957000Y-132715000D01*
%TO.N,Net-(D2-K)*%
X98346500Y-89154000D02*
X98346500Y-89329500D01*
X98346500Y-89329500D02*
X99009200Y-89992200D01*
X99009200Y-90373200D02*
X99631000Y-90995000D01*
X99009200Y-89992200D02*
X99009200Y-90373200D01*
X99631000Y-90995000D02*
X99631000Y-91059000D01*
%TO.N,Net-(D3-A)*%
X180579500Y-89218000D02*
X180594000Y-89232500D01*
X178816000Y-89218000D02*
X180579500Y-89218000D01*
%TO.N,Net-(D6-A)*%
X180579500Y-131128000D02*
X180594000Y-131142500D01*
X178816000Y-131128000D02*
X180579500Y-131128000D01*
%TO.N,Net-(R19-Pad2)*%
X137096000Y-94742000D02*
X137096000Y-96266000D01*
%TO.N,/D2*%
X145542000Y-130175000D02*
X150241000Y-134874000D01*
X101279000Y-97596000D02*
X102611000Y-97596000D01*
X165608000Y-134239000D02*
X166243000Y-133604000D01*
X115062000Y-127635000D02*
X137033000Y-127635000D01*
X153670000Y-134239000D02*
X165608000Y-134239000D01*
X139573000Y-130175000D02*
X145542000Y-130175000D01*
X153035000Y-134874000D02*
X153670000Y-134239000D01*
X137033000Y-127635000D02*
X139573000Y-130175000D01*
X150241000Y-134874000D02*
X153035000Y-134874000D01*
X100203000Y-96520000D02*
X101279000Y-97596000D01*
%TO.N,Net-(J1-Pin_1)*%
X109474000Y-87884000D02*
X112217200Y-87884000D01*
X109121004Y-94259400D02*
X113004000Y-90376404D01*
X113004000Y-88670800D02*
X113004000Y-89154000D01*
X107950000Y-86360000D02*
X109474000Y-87884000D01*
X107811000Y-96896000D02*
X107811000Y-94550800D01*
X112217200Y-87884000D02*
X113004000Y-88670800D01*
X107811000Y-94550800D02*
X108102400Y-94259400D01*
X108102400Y-94259400D02*
X109121004Y-94259400D01*
X114364000Y-89154000D02*
X113004000Y-89154000D01*
X113004000Y-90376404D02*
X113004000Y-89154000D01*
%TO.N,/D3*%
X114427000Y-128270000D02*
X136906000Y-128270000D01*
X145415000Y-130810000D02*
X149987000Y-135382000D01*
X100139500Y-97942400D02*
X102057200Y-97942400D01*
X99606100Y-97409000D02*
X100139500Y-97942400D01*
X102577599Y-98062599D02*
X102611000Y-98096000D01*
X136906000Y-128270000D02*
X139446000Y-130810000D01*
X102057200Y-97942400D02*
X102177399Y-98062599D01*
X139446000Y-130810000D02*
X145415000Y-130810000D01*
X102177399Y-98062599D02*
X102577599Y-98062599D01*
X149987000Y-135382000D02*
X153162000Y-135382000D01*
X153797000Y-134747000D02*
X165989000Y-134747000D01*
X153162000Y-135382000D02*
X153797000Y-134747000D01*
X165989000Y-134747000D02*
X166243000Y-134493000D01*
%TO.N,Net-(U1-D+)*%
X97629200Y-110875000D02*
X97760600Y-111006400D01*
X97629200Y-110875000D02*
X97891600Y-110875000D01*
X96957000Y-110875000D02*
X97629200Y-110875000D01*
X97760600Y-111743600D02*
X97629200Y-111875000D01*
X105181400Y-106730800D02*
X105311000Y-106601200D01*
X97891600Y-110875000D02*
X103704200Y-110875000D01*
X97760600Y-111006400D02*
X97760600Y-111006000D01*
X97760600Y-111006400D02*
X97760600Y-111743600D01*
X97760600Y-111006000D02*
X97891600Y-110875000D01*
X103704200Y-110875000D02*
X105181400Y-109397800D01*
X105311000Y-106601200D02*
X105311000Y-105796000D01*
X97629200Y-111875000D02*
X96957000Y-111875000D01*
X105181400Y-109397800D02*
X105181400Y-106730800D01*
%TO.N,Net-(J2-CC2)*%
X95913000Y-112875000D02*
X96957000Y-112875000D01*
X94679000Y-117221000D02*
X94679000Y-114109000D01*
X94679000Y-114109000D02*
X95913000Y-112875000D01*
%TO.N,Net-(U1-D-)*%
X104811000Y-109038274D02*
X103474274Y-110375000D01*
X104811000Y-105796000D02*
X104811000Y-109038274D01*
X96284800Y-111375000D02*
X96153400Y-111243600D01*
X96284800Y-110375000D02*
X96957000Y-110375000D01*
X96153400Y-110506400D02*
X96284800Y-110375000D01*
X96153400Y-111243600D02*
X96153400Y-110506400D01*
X103474274Y-110375000D02*
X96957000Y-110375000D01*
X96957000Y-111375000D02*
X96284800Y-111375000D01*
%TO.N,Net-(J2-CC1)*%
X95905000Y-109875000D02*
X96957000Y-109875000D01*
X94679000Y-108649000D02*
X95905000Y-109875000D01*
X94679000Y-105029000D02*
X94679000Y-108649000D01*
%TO.N,/D0*%
X150749000Y-133858000D02*
X152781000Y-133858000D01*
X108458000Y-94894400D02*
X108811000Y-95247400D01*
X139827000Y-128905000D02*
X145796000Y-128905000D01*
X153416000Y-133223000D02*
X164846000Y-133223000D01*
X116332000Y-126365000D02*
X137287000Y-126365000D01*
X108811000Y-95247400D02*
X108811000Y-96896000D01*
X164846000Y-133223000D02*
X166243000Y-131826000D01*
X152781000Y-133858000D02*
X153416000Y-133223000D01*
X145796000Y-128905000D02*
X150749000Y-133858000D01*
X137287000Y-126365000D02*
X139827000Y-128905000D01*
%TO.N,/D1*%
X101041200Y-94716600D02*
X103709000Y-94716600D01*
X145669000Y-129540000D02*
X150495000Y-134366000D01*
X137137868Y-127000000D02*
X139677868Y-129540000D01*
X150495000Y-134366000D02*
X152908000Y-134366000D01*
X105311000Y-96318600D02*
X105311000Y-96896000D01*
X165227000Y-133731000D02*
X166243000Y-132715000D01*
X153543000Y-133731000D02*
X165227000Y-133731000D01*
X115697000Y-127000000D02*
X137137868Y-127000000D01*
X152908000Y-134366000D02*
X153543000Y-133731000D01*
X103709000Y-94716600D02*
X105311000Y-96318600D01*
X139677868Y-129540000D02*
X145669000Y-129540000D01*
%TO.N,Net-(U25-BSW)*%
X105333800Y-124409200D02*
X106578400Y-124409200D01*
X103408600Y-123888878D02*
X103408600Y-124592200D01*
X101567000Y-123629400D02*
X103149122Y-123629400D01*
X103149122Y-123629400D02*
X103408600Y-123888878D01*
X104698800Y-125044200D02*
X105333800Y-124409200D01*
X100886500Y-124309900D02*
X101567000Y-123629400D01*
X106578400Y-124409200D02*
X106700000Y-124287600D01*
X106700000Y-124287600D02*
X106700000Y-123793000D01*
X103860600Y-125044200D02*
X104698800Y-125044200D01*
X100886500Y-124775000D02*
X100886500Y-124309900D01*
X103408600Y-124592200D02*
X103860600Y-125044200D01*
%TO.N,Net-(U1-RF1)*%
X111018000Y-100096000D02*
X111511000Y-100096000D01*
X110566200Y-99644200D02*
X111018000Y-100096000D01*
X103378000Y-91821000D02*
X102679000Y-91122000D01*
X110566200Y-98602800D02*
X110566200Y-99644200D01*
X108712000Y-91821000D02*
X103378000Y-91821000D01*
X102679000Y-91122000D02*
X102679000Y-91059000D01*
X115769371Y-94534971D02*
X114350800Y-95953542D01*
X114350800Y-95953542D02*
X114350800Y-98247200D01*
%TO.N,Net-(U1-RF0)*%
X114630200Y-99034600D02*
X114935000Y-98729800D01*
X114935000Y-98729800D02*
X114935000Y-96266000D01*
X111511000Y-100596000D02*
X110679258Y-100596000D01*
X114935000Y-96266000D02*
X116662200Y-94538800D01*
X116662200Y-94538800D02*
X116662200Y-94208600D01*
X106553000Y-91059000D02*
X105727000Y-91059000D01*
X110679258Y-100596000D02*
X110286529Y-100203271D01*
%TO.N,Net-(U1-RD7)*%
X110757400Y-102096000D02*
X110744000Y-102082600D01*
X115468400Y-96520000D02*
X115468400Y-99136200D01*
X105727000Y-89535000D02*
X106553000Y-89535000D01*
X111511000Y-102096000D02*
X110757400Y-102096000D01*
X117856000Y-94132400D02*
X115468400Y-96520000D01*
%TO.N,Net-(U1-RC15{slash}OSCO)*%
X106811000Y-105033000D02*
X106680000Y-104902000D01*
X106680000Y-92837000D02*
X98171000Y-92837000D01*
X106811000Y-105796000D02*
X106811000Y-105033000D01*
X97510600Y-99441000D02*
X97510600Y-102717600D01*
X107670600Y-93827600D02*
X106680000Y-92837000D01*
X100711000Y-105918000D02*
X102616000Y-105918000D01*
X113004000Y-92151800D02*
X112445800Y-92710000D01*
X109631531Y-92994531D02*
X108798462Y-93827600D01*
X113004000Y-91212000D02*
X113538000Y-90678000D01*
X97510600Y-102717600D02*
X100711000Y-105918000D01*
X113004000Y-91694000D02*
X113004000Y-92151800D01*
X113004000Y-91694000D02*
X113004000Y-91212000D01*
X113538000Y-90678000D02*
X114364000Y-90678000D01*
X108798462Y-93827600D02*
X107670600Y-93827600D01*
%TO.N,Net-(R44-Pad2)*%
X135446000Y-110490000D02*
X135446000Y-112014000D01*
%TO.N,Net-(U1-VBUS)*%
X103811000Y-105796000D02*
X103811000Y-107202400D01*
X103811000Y-107202400D02*
X103860600Y-107252000D01*
%TO.N,/DAC_MISO*%
X108311000Y-105796000D02*
X108311000Y-106732000D01*
X107791000Y-107252000D02*
X107696000Y-107252000D01*
X108311000Y-106732000D02*
X107791000Y-107252000D01*
%TO.N,Net-(U5-P0_2)*%
X95199000Y-90602000D02*
X95631000Y-90170000D01*
X95199000Y-91000000D02*
X95199000Y-90602000D01*
X97092000Y-90170000D02*
X97981000Y-91059000D01*
X95631000Y-90170000D02*
X97092000Y-90170000D01*
%TO.N,/VREFDIV2*%
X133010482Y-98481000D02*
X132380500Y-98481000D01*
X132380500Y-115753000D02*
X133014600Y-115753000D01*
X133014600Y-115753000D02*
X133654800Y-115112800D01*
X132380500Y-120071000D02*
X133010482Y-120071000D01*
X133421600Y-98892118D02*
X133010482Y-98481000D01*
X133010482Y-120071000D02*
X133421600Y-119659882D01*
X133010482Y-102799000D02*
X133421600Y-102387882D01*
X129984878Y-98481600D02*
X132379900Y-98481600D01*
X129667000Y-95695000D02*
X129667000Y-98163722D01*
X132379900Y-98481600D02*
X132380500Y-98481000D01*
X133014600Y-98481000D02*
X132380500Y-98481000D01*
X128968000Y-94996000D02*
X128968000Y-93472000D01*
X129667000Y-98163722D02*
X129984878Y-98481600D01*
X133421600Y-116164118D02*
X133010482Y-115753000D01*
X133010482Y-115753000D02*
X132380500Y-115753000D01*
X128968000Y-94996000D02*
X129667000Y-95695000D01*
X133421600Y-102387882D02*
X133421600Y-98892118D01*
X132380500Y-102799000D02*
X133010482Y-102799000D01*
X133421600Y-119659882D02*
X133421600Y-116164118D01*
%TO.N,/CH2DUT-*%
X164020000Y-127637500D02*
X163895500Y-127762000D01*
X161925000Y-132359400D02*
X161604600Y-132039000D01*
X161604600Y-132039000D02*
X160989500Y-132039000D01*
X164020000Y-125857000D02*
X164020000Y-127637500D01*
X164020000Y-122809000D02*
X164020000Y-124333000D01*
X164020000Y-124333000D02*
X164020000Y-125857000D01*
X163895500Y-131760500D02*
X163296600Y-132359400D01*
X163296600Y-132359400D02*
X161925000Y-132359400D01*
X163895500Y-127762000D02*
X163895500Y-131760500D01*
X164020000Y-122809000D02*
X163245800Y-122809000D01*
%TO.N,Net-(R13-Pad2)*%
X127990600Y-105537000D02*
X128270000Y-105537000D01*
X129166000Y-103449000D02*
X128968000Y-103251000D01*
X127318000Y-107823000D02*
X127318000Y-106299000D01*
X128968000Y-104839000D02*
X128968000Y-104775000D01*
X132380500Y-103449000D02*
X129166000Y-103449000D01*
X127318000Y-106299000D02*
X127318000Y-106209600D01*
X127318000Y-106209600D02*
X127990600Y-105537000D01*
X128270000Y-105537000D02*
X128968000Y-104839000D01*
X128968000Y-103251000D02*
X128968000Y-104775000D01*
%TO.N,Net-(R15-Pad2)*%
X127318000Y-99504000D02*
X127318000Y-99568000D01*
X128270000Y-98806000D02*
X128016000Y-98806000D01*
X128968000Y-98044000D02*
X128968000Y-98108000D01*
X128016000Y-98806000D02*
X127318000Y-99504000D01*
X132380500Y-99131000D02*
X130055000Y-99131000D01*
X128968000Y-96520000D02*
X128968000Y-98044000D01*
X130055000Y-99131000D02*
X128968000Y-98044000D01*
X127318000Y-101092000D02*
X127318000Y-99568000D01*
X128968000Y-98108000D02*
X128270000Y-98806000D01*
%TO.N,Net-(R21-Pad2)*%
X138861800Y-92456000D02*
X136144000Y-92456000D01*
X142819000Y-95941000D02*
X142159500Y-95941000D01*
X136144000Y-92456000D02*
X135446000Y-93154000D01*
X135446000Y-93154000D02*
X135446000Y-93218000D01*
X141529518Y-95941000D02*
X141097000Y-95508482D01*
X141097000Y-94691200D02*
X138861800Y-92456000D01*
X135446000Y-94742000D02*
X135446000Y-93218000D01*
X141097000Y-95508482D02*
X141097000Y-94691200D01*
X142159500Y-95941000D02*
X141529518Y-95941000D01*
%TO.N,Net-(R20-Pad2)*%
X132398000Y-96266000D02*
X132398000Y-94742000D01*
%TO.N,Net-(R22-Pad2)*%
X142804000Y-96591000D02*
X142159500Y-96591000D01*
X134048000Y-93180400D02*
X135204200Y-92024200D01*
X139166600Y-92024200D02*
X141909800Y-94767400D01*
X134048000Y-94742000D02*
X134048000Y-93218000D01*
X143230600Y-96164400D02*
X142804000Y-96591000D01*
X143230600Y-95082118D02*
X143230600Y-96164400D01*
X141909800Y-94767400D02*
X142915882Y-94767400D01*
X134048000Y-93218000D02*
X134048000Y-93180400D01*
X135204200Y-92024200D02*
X139166600Y-92024200D01*
X142915882Y-94767400D02*
X143230600Y-95082118D01*
%TO.N,Net-(R27-Pad2)*%
X151829000Y-106807000D02*
X151829000Y-106744000D01*
X145389600Y-105705000D02*
X147010000Y-105705000D01*
X151829000Y-108331000D02*
X151829000Y-106807000D01*
X142519400Y-104927400D02*
X141997000Y-104405000D01*
X141997000Y-104405000D02*
X140010000Y-104405000D01*
X151829000Y-106744000D02*
X150790000Y-105705000D01*
X151829000Y-109855000D02*
X151829000Y-108331000D01*
X150790000Y-105705000D02*
X147010000Y-105705000D01*
%TO.N,Net-(R27-Pad1)*%
X143764000Y-107416600D02*
X143764000Y-107426400D01*
X143687800Y-107655000D02*
X143535400Y-107655000D01*
X147795506Y-108955000D02*
X147010000Y-108955000D01*
X152412200Y-110921800D02*
X149762306Y-110921800D01*
X156764500Y-108387000D02*
X153535000Y-108387000D01*
X145073800Y-108955000D02*
X143773800Y-107655000D01*
X153535000Y-108387000D02*
X153479000Y-108331000D01*
X143764000Y-107645200D02*
X143773800Y-107655000D01*
X143764000Y-107416600D02*
X143764000Y-107645200D01*
X142159500Y-100259000D02*
X142804000Y-100259000D01*
X153479000Y-109855000D02*
X153479000Y-108331000D01*
X142804000Y-100259000D02*
X143764000Y-101219000D01*
X143764000Y-107426400D02*
X143535400Y-107655000D01*
X149762306Y-110921800D02*
X147795506Y-108955000D01*
X143764000Y-101219000D02*
X143764000Y-107416600D01*
X143535400Y-107655000D02*
X140010000Y-107655000D01*
X147010000Y-108955000D02*
X145073800Y-108955000D01*
X143773800Y-107655000D02*
X143687800Y-107655000D01*
X153479000Y-109855000D02*
X152412200Y-110921800D01*
X156764500Y-107737000D02*
X156764500Y-108387000D01*
%TO.N,Net-(R29-Pad2)*%
X148394400Y-107875600D02*
X148394400Y-108973600D01*
X160359518Y-108387000D02*
X160989500Y-108387000D01*
X144286400Y-108955000D02*
X144297400Y-108966000D01*
X147010000Y-107655000D02*
X145618200Y-107655000D01*
X140010000Y-108955000D02*
X144286400Y-108955000D01*
X160989500Y-108387000D02*
X160989500Y-109037000D01*
X158779518Y-106807000D02*
X160359518Y-108387000D01*
X148173800Y-107655000D02*
X148394400Y-107875600D01*
X145618200Y-107655000D02*
X144627600Y-106664400D01*
X152654000Y-107632000D02*
X153479000Y-106807000D01*
X152654000Y-110116674D02*
X152654000Y-107632000D01*
X144627600Y-102035918D02*
X145754518Y-100909000D01*
X152212074Y-110558600D02*
X152654000Y-110116674D01*
X144627600Y-106664400D02*
X144627600Y-102035918D01*
X145754518Y-100909000D02*
X146384500Y-100909000D01*
X147010000Y-107655000D02*
X148173800Y-107655000D01*
X149979400Y-110558600D02*
X152212074Y-110558600D01*
X148394400Y-108973600D02*
X149979400Y-110558600D01*
X153479000Y-106807000D02*
X158779518Y-106807000D01*
%TO.N,Net-(R31-Pad1)*%
X158945500Y-103322000D02*
X161117400Y-103322000D01*
X161117400Y-103322000D02*
X162370000Y-102069400D01*
X162370000Y-102069400D02*
X162370000Y-101981000D01*
X153220500Y-103322000D02*
X158945500Y-103322000D01*
%TO.N,Net-(R32-Pad1)*%
X153220500Y-103972000D02*
X158945500Y-103972000D01*
X158945500Y-103972000D02*
X161903000Y-103972000D01*
X161903000Y-103972000D02*
X162370000Y-103505000D01*
%TO.N,Net-(R33-Pad1)*%
X153220500Y-104622000D02*
X158945500Y-104622000D01*
X158945500Y-104622000D02*
X159511400Y-104622000D01*
X159511400Y-104622000D02*
X160299400Y-105410000D01*
X160299400Y-105410000D02*
X160970500Y-105410000D01*
%TO.N,Net-(R35-Pad1)*%
X162370000Y-95236800D02*
X162370000Y-95123000D01*
X158945500Y-96464000D02*
X161142800Y-96464000D01*
X153220500Y-96464000D02*
X158945500Y-96464000D01*
X161142800Y-96464000D02*
X162370000Y-95236800D01*
%TO.N,Net-(R30-Pad1)*%
X161741400Y-102164600D02*
X161741400Y-101148600D01*
X160337878Y-102672600D02*
X161233400Y-102672600D01*
X161741400Y-101148600D02*
X162370000Y-100520000D01*
X158950700Y-102666800D02*
X160332078Y-102666800D01*
X153220500Y-102672000D02*
X158945500Y-102672000D01*
X158945500Y-102672000D02*
X158950700Y-102666800D01*
X162370000Y-100520000D02*
X162370000Y-100457000D01*
X160332078Y-102666800D02*
X160337878Y-102672600D01*
X161233400Y-102672600D02*
X161741400Y-102164600D01*
%TO.N,Net-(R36-Pad1)*%
X153220500Y-97114000D02*
X158945500Y-97114000D01*
X158945500Y-97114000D02*
X161903000Y-97114000D01*
X161903000Y-97114000D02*
X162370000Y-96647000D01*
%TO.N,Net-(R37-Pad1)*%
X158945500Y-97764000D02*
X159511400Y-97764000D01*
X153220500Y-97764000D02*
X158945500Y-97764000D01*
X159511400Y-97764000D02*
X160299400Y-98552000D01*
X160299400Y-98552000D02*
X160970500Y-98552000D01*
%TO.N,Net-(R38-Pad2)*%
X128968000Y-122111000D02*
X128968000Y-122047000D01*
X128270000Y-122809000D02*
X128968000Y-122111000D01*
X127318000Y-123481600D02*
X127990600Y-122809000D01*
X127990600Y-122809000D02*
X128270000Y-122809000D01*
X127318000Y-123571000D02*
X127318000Y-123481600D01*
X129151000Y-120340000D02*
X128968000Y-120523000D01*
X132380500Y-120721000D02*
X129166000Y-120721000D01*
X127318000Y-125095000D02*
X127318000Y-123571000D01*
X128968000Y-120523000D02*
X128968000Y-122047000D01*
X129166000Y-120721000D02*
X128968000Y-120523000D01*
%TO.N,Net-(R40-Pad2)*%
X128270000Y-116078000D02*
X128016000Y-116078000D01*
X132380500Y-116403000D02*
X130055000Y-116403000D01*
X127318000Y-116776000D02*
X127318000Y-116840000D01*
X128968000Y-115380000D02*
X128270000Y-116078000D01*
X130055000Y-116403000D02*
X128968000Y-115316000D01*
X128016000Y-116078000D02*
X127318000Y-116776000D01*
X128968000Y-113792000D02*
X128968000Y-115316000D01*
X127318000Y-118364000D02*
X127318000Y-116840000D01*
X128968000Y-115316000D02*
X128968000Y-115380000D01*
%TO.N,Net-(R45-Pad2)*%
X134048000Y-112014000D02*
X134048000Y-110490000D01*
%TO.N,Net-(R46-Pad2)*%
X141529518Y-113213000D02*
X140330518Y-112014000D01*
X142159500Y-113213000D02*
X141529518Y-113213000D01*
X140330518Y-112014000D02*
X137096000Y-112014000D01*
X137096000Y-112014000D02*
X137096000Y-113538000D01*
%TO.N,Net-(R47-Pad2)*%
X132398000Y-113602000D02*
X132398000Y-113538000D01*
X139527400Y-113863000D02*
X139090400Y-114300000D01*
X132398000Y-112014000D02*
X132398000Y-113538000D01*
X142159500Y-113863000D02*
X139527400Y-113863000D01*
X139090400Y-114300000D02*
X133096000Y-114300000D01*
X133096000Y-114300000D02*
X132398000Y-113602000D01*
%TO.N,Net-(R52-Pad2)*%
X151829000Y-132207000D02*
X151829000Y-130683000D01*
X149385722Y-122977000D02*
X149834600Y-123425878D01*
X151829000Y-129121400D02*
X151829000Y-129159000D01*
X142519400Y-122199400D02*
X141997000Y-121677000D01*
X149834600Y-123425878D02*
X149834600Y-127127000D01*
X141997000Y-121677000D02*
X140010000Y-121677000D01*
X145389600Y-122977000D02*
X147010000Y-122977000D01*
X151829000Y-130683000D02*
X151829000Y-129159000D01*
X149834600Y-127127000D02*
X151829000Y-129121400D01*
X147010000Y-122977000D02*
X149385722Y-122977000D01*
%TO.N,Net-(R52-Pad1)*%
X143535400Y-124927000D02*
X140010000Y-124927000D01*
X150444200Y-128875694D02*
X147795506Y-126227000D01*
X143687800Y-124927000D02*
X143535400Y-124927000D01*
X153479000Y-132207000D02*
X153479000Y-130683000D01*
X153479000Y-132207000D02*
X153479000Y-132245600D01*
X143764000Y-124688600D02*
X143764000Y-124698400D01*
X143764000Y-124917200D02*
X143773800Y-124927000D01*
X143764000Y-124698400D02*
X143535400Y-124927000D01*
X151155400Y-133273800D02*
X150444200Y-132562600D01*
X153479000Y-132245600D02*
X152450800Y-133273800D01*
X156764500Y-130739000D02*
X153535000Y-130739000D01*
X150444200Y-132562600D02*
X150444200Y-128875694D01*
X153535000Y-130739000D02*
X153479000Y-130683000D01*
X142804000Y-117531000D02*
X143764000Y-118491000D01*
X156764500Y-130089000D02*
X156764500Y-130739000D01*
X152450800Y-133273800D02*
X151155400Y-133273800D01*
X143773800Y-124927000D02*
X143687800Y-124927000D01*
X147795506Y-126227000D02*
X147010000Y-126227000D01*
X143764000Y-124688600D02*
X143764000Y-124917200D01*
X143764000Y-118491000D02*
X143764000Y-124688600D01*
X145073800Y-126227000D02*
X143773800Y-124927000D01*
X147010000Y-126227000D02*
X145073800Y-126227000D01*
X142159500Y-117531000D02*
X142804000Y-117531000D01*
%TO.N,Net-(R54-Pad2)*%
X150952200Y-132416874D02*
X150952200Y-128828800D01*
X145618200Y-124927000D02*
X144627600Y-123936400D01*
X160989500Y-130739000D02*
X160989500Y-131389000D01*
X144627600Y-119307918D02*
X145754518Y-118181000D01*
X151445926Y-132910600D02*
X150952200Y-132416874D01*
X145754518Y-118181000D02*
X146384500Y-118181000D01*
X148285200Y-126161800D02*
X148285200Y-125416694D01*
X140010000Y-126227000D02*
X144286400Y-126227000D01*
X158779518Y-129159000D02*
X160359518Y-130739000D01*
X153479000Y-129159000D02*
X158779518Y-129159000D01*
X152212074Y-132910600D02*
X151445926Y-132910600D01*
X152654000Y-132468674D02*
X152212074Y-132910600D01*
X150952200Y-128828800D02*
X148285200Y-126161800D01*
X144286400Y-126227000D02*
X144297400Y-126238000D01*
X148285200Y-125416694D02*
X147795506Y-124927000D01*
X144627600Y-123936400D02*
X144627600Y-119307918D01*
X147795506Y-124927000D02*
X147010000Y-124927000D01*
X160359518Y-130739000D02*
X160989500Y-130739000D01*
X147010000Y-124927000D02*
X145618200Y-124927000D01*
X152654000Y-129984000D02*
X152654000Y-132468674D01*
X153479000Y-129159000D02*
X152654000Y-129984000D01*
%TO.N,Net-(R55-Pad1)*%
X160337878Y-125024600D02*
X161233400Y-125024600D01*
X162370000Y-122872000D02*
X162370000Y-122809000D01*
X161741400Y-123500600D02*
X162370000Y-122872000D01*
X158945500Y-125024000D02*
X158950700Y-125018800D01*
X158950700Y-125018800D02*
X160332078Y-125018800D01*
X160332078Y-125018800D02*
X160337878Y-125024600D01*
X161741400Y-124516600D02*
X161741400Y-123500600D01*
X153220500Y-125024000D02*
X158945500Y-125024000D01*
X161233400Y-125024600D02*
X161741400Y-124516600D01*
%TO.N,Net-(R56-Pad1)*%
X158945500Y-125674000D02*
X161117400Y-125674000D01*
X161117400Y-125674000D02*
X162370000Y-124421400D01*
X162370000Y-124421400D02*
X162370000Y-124333000D01*
X153220500Y-125674000D02*
X158945500Y-125674000D01*
%TO.N,Net-(R57-Pad1)*%
X161903000Y-126324000D02*
X162370000Y-125857000D01*
X158945500Y-126324000D02*
X161903000Y-126324000D01*
X153220500Y-126324000D02*
X158945500Y-126324000D01*
%TO.N,Net-(R58-Pad1)*%
X159511400Y-126974000D02*
X160299400Y-127762000D01*
X158945500Y-126974000D02*
X159511400Y-126974000D01*
X160299400Y-127762000D02*
X160970500Y-127762000D01*
X153220500Y-126974000D02*
X158945500Y-126974000D01*
%TO.N,Net-(R60-Pad1)*%
X162370000Y-117588800D02*
X162370000Y-117475000D01*
X158945500Y-118816000D02*
X161142800Y-118816000D01*
X161142800Y-118816000D02*
X162370000Y-117588800D01*
X153220500Y-118816000D02*
X158945500Y-118816000D01*
%TO.N,Net-(R61-Pad1)*%
X153220500Y-119466000D02*
X158945500Y-119466000D01*
X161903000Y-119466000D02*
X162370000Y-118999000D01*
X158945500Y-119466000D02*
X161903000Y-119466000D01*
%TO.N,Net-(R62-Pad1)*%
X160299400Y-120904000D02*
X160970500Y-120904000D01*
X158945500Y-120116000D02*
X159511400Y-120116000D01*
X159511400Y-120116000D02*
X160299400Y-120904000D01*
X153220500Y-120116000D02*
X158945500Y-120116000D01*
%TO.N,/ENA12V*%
X106311000Y-106184000D02*
X106311000Y-105796000D01*
X103106200Y-125153400D02*
X102296926Y-125153400D01*
X102989000Y-127129600D02*
X103207500Y-126911100D01*
X106769400Y-124929400D02*
X105474000Y-124929400D01*
X106781600Y-106730800D02*
X106432400Y-106381600D01*
X108700000Y-123793000D02*
X108200000Y-123793000D01*
X108700000Y-124370400D02*
X108700000Y-123793000D01*
X103924100Y-126911100D02*
X104330000Y-126505200D01*
X105181400Y-125552200D02*
X104876600Y-125857000D01*
X104330000Y-126505200D02*
X104330000Y-125857000D01*
X107200000Y-124498800D02*
X106769400Y-124929400D01*
X104876600Y-125857000D02*
X104330000Y-125857000D01*
X107200000Y-123793000D02*
X107200000Y-124498800D01*
X108839000Y-113233200D02*
X106781600Y-111175800D01*
X108200000Y-123793000D02*
X107700000Y-123793000D01*
X106432400Y-106381600D02*
X106432400Y-106305400D01*
X102989000Y-127632000D02*
X102989000Y-127129600D01*
X107700000Y-123793000D02*
X107200000Y-123793000D01*
X101989000Y-125461326D02*
X101989000Y-127632000D01*
X103207500Y-126911100D02*
X103924100Y-126911100D01*
X108508800Y-124561600D02*
X108700000Y-124370400D01*
X103809800Y-125857000D02*
X103106200Y-125153400D01*
X104330000Y-125857000D02*
X103809800Y-125857000D01*
X106781600Y-111175800D02*
X106781600Y-106730800D01*
X102296926Y-125153400D02*
X101989000Y-125461326D01*
X105474000Y-124929400D02*
X105181400Y-125222000D01*
X105181400Y-125222000D02*
X105181400Y-125552200D01*
X106432400Y-106305400D02*
X106311000Y-106184000D01*
%TO.N,Net-(U25-FBN)*%
X111429800Y-122174000D02*
X111570000Y-122314200D01*
X111226600Y-122174000D02*
X111429800Y-122174000D01*
X112242600Y-123672600D02*
X111570000Y-123000000D01*
X113220000Y-124396000D02*
X112496600Y-123672600D01*
X112496600Y-123672600D02*
X112242600Y-123672600D01*
X110595600Y-121543000D02*
X111226600Y-122174000D01*
X109950000Y-121543000D02*
X110595600Y-121543000D01*
X111570000Y-123000000D02*
X111570000Y-122936000D01*
X111570000Y-122314200D02*
X111570000Y-122936000D01*
X113220000Y-124460000D02*
X113220000Y-124396000D01*
%TO.N,Net-(U25-FBP)*%
X108395000Y-116725200D02*
X109042200Y-116078000D01*
X110045000Y-115380000D02*
X110045000Y-115316000D01*
X107700000Y-117535000D02*
X108395000Y-116840000D01*
X109347000Y-116078000D02*
X110045000Y-115380000D01*
X108395000Y-116840000D02*
X108395000Y-116725200D01*
X109042200Y-116078000D02*
X109347000Y-116078000D01*
X107700000Y-119793000D02*
X107700000Y-117535000D01*
%TO.N,/ADC_CSN2*%
X102902074Y-107028926D02*
X102997000Y-107028926D01*
X112090200Y-113995200D02*
X108407200Y-113995200D01*
X102997000Y-107028926D02*
X103311000Y-106714926D01*
X119389000Y-120515000D02*
X118610000Y-120515000D01*
X108407200Y-113995200D02*
X105156000Y-110744000D01*
X103311000Y-106714926D02*
X103311000Y-105796000D01*
X102743000Y-107188000D02*
X102902074Y-107028926D01*
X118610000Y-120515000D02*
X112090200Y-113995200D01*
%TO.N,/RE3*%
X147010000Y-127691000D02*
X146989800Y-127711200D01*
X115189000Y-92456000D02*
X117475000Y-92456000D01*
X141097000Y-86741000D02*
X142748000Y-88392000D01*
X117475000Y-92456000D02*
X123190000Y-86741000D01*
X147010000Y-126877000D02*
X147010000Y-127691000D01*
X142748000Y-88392000D02*
X142748000Y-89281000D01*
X112268000Y-95377000D02*
X115189000Y-92456000D01*
X112089000Y-98096000D02*
X112268000Y-97917000D01*
X147010000Y-121027000D02*
X147010000Y-120325000D01*
X147010000Y-120325000D02*
X147015200Y-120319800D01*
X112268000Y-97917000D02*
X112268000Y-95377000D01*
X111511000Y-98096000D02*
X112089000Y-98096000D01*
X123190000Y-86741000D02*
X141097000Y-86741000D01*
%TO.N,/RE0*%
X112717600Y-99372400D02*
X113792000Y-98298000D01*
X143637000Y-91694000D02*
X145669000Y-91694000D01*
X112475878Y-99596000D02*
X112699478Y-99372400D01*
X153220500Y-122410300D02*
X153212800Y-122402600D01*
X140208000Y-88265000D02*
X143637000Y-91694000D01*
X153220500Y-115552300D02*
X153212800Y-115544600D01*
X146024600Y-92049600D02*
X146050000Y-92049600D01*
X112699478Y-99372400D02*
X112717600Y-99372400D01*
X115951000Y-93599000D02*
X118491000Y-93599000D01*
X118491000Y-93599000D02*
X123825000Y-88265000D01*
X153220500Y-123074000D02*
X153220500Y-122410300D01*
X111511000Y-99596000D02*
X112475878Y-99596000D01*
X153220500Y-116216000D02*
X153220500Y-115552300D01*
X113792000Y-95758000D02*
X115951000Y-93599000D01*
X123825000Y-88265000D02*
X140208000Y-88265000D01*
X145669000Y-91694000D02*
X146024600Y-92049600D01*
X113792000Y-98298000D02*
X113792000Y-95758000D01*
%TO.N,/ADC_CONVST*%
X119389000Y-101870000D02*
X119389000Y-101355000D01*
X119380000Y-101346000D02*
X119380000Y-99339400D01*
X119380000Y-119006000D02*
X119389000Y-119015000D01*
X108311000Y-96896000D02*
X108311000Y-97683000D01*
X119389000Y-101355000D02*
X119380000Y-101346000D01*
X119380000Y-118440200D02*
X119380000Y-119006000D01*
X108311000Y-97683000D02*
X108305600Y-97688400D01*
%TO.N,/DAC_SCK*%
X109311000Y-105796000D02*
X109311000Y-108240000D01*
X109093000Y-108458000D02*
X109093000Y-111760000D01*
X111760000Y-112141000D02*
X114909000Y-108992000D01*
X109474000Y-112141000D02*
X111760000Y-112141000D01*
X114909000Y-108992000D02*
X119124000Y-108992000D01*
X109311000Y-108240000D02*
X109093000Y-108458000D01*
X109093000Y-111760000D02*
X109474000Y-112141000D01*
%TO.N,/RE2*%
X115443000Y-92837000D02*
X117729000Y-92837000D01*
X112776000Y-97982626D02*
X112776000Y-95504000D01*
X112162626Y-98596000D02*
X112776000Y-97982626D01*
X123317000Y-87249000D02*
X140716000Y-87249000D01*
X140010000Y-121027000D02*
X140010000Y-120325000D01*
X140010000Y-120325000D02*
X140004800Y-120319800D01*
X140010000Y-127553600D02*
X140004800Y-127558800D01*
X112776000Y-95504000D02*
X115443000Y-92837000D01*
X140010000Y-126877000D02*
X140010000Y-127553600D01*
X111511000Y-98596000D02*
X112162626Y-98596000D01*
X117729000Y-92837000D02*
X123317000Y-87249000D01*
X140716000Y-87249000D02*
X141986000Y-88519000D01*
%TO.N,/RTS*%
X105811000Y-96896000D02*
X105811000Y-96363800D01*
X97247000Y-94650000D02*
X96849000Y-94650000D01*
X105811000Y-96363800D02*
X103554200Y-94107000D01*
X103554200Y-94107000D02*
X97790000Y-94107000D01*
X97790000Y-94107000D02*
X97247000Y-94650000D01*
%TO.N,/RD1*%
X142240000Y-93599000D02*
X149098000Y-93599000D01*
X158927800Y-99441000D02*
X158945500Y-99458700D01*
X158927800Y-90855800D02*
X158927800Y-93192600D01*
X158945500Y-99458700D02*
X158945500Y-100722000D01*
X115757000Y-105096000D02*
X118110000Y-102743000D01*
X118110000Y-97790000D02*
X125095000Y-90805000D01*
X158945500Y-93210300D02*
X158927800Y-93192600D01*
X125095000Y-90805000D02*
X139446000Y-90805000D01*
X152467139Y-89027000D02*
X157099000Y-89027000D01*
X139446000Y-90805000D02*
X142240000Y-93599000D01*
X149098000Y-93599000D02*
X152019000Y-90678000D01*
X111511000Y-105096000D02*
X115757000Y-105096000D01*
X118110000Y-102743000D02*
X118110000Y-97790000D01*
X152019000Y-89475139D02*
X152467139Y-89027000D01*
X152019000Y-90678000D02*
X152019000Y-89475139D01*
X157099000Y-89027000D02*
X158927800Y-90855800D01*
X158945500Y-93864000D02*
X158945500Y-93210300D01*
%TO.N,/RE1*%
X158945500Y-123074000D02*
X158945500Y-122402600D01*
X148844000Y-91313000D02*
X149352000Y-90805000D01*
X140335000Y-87757000D02*
X143891000Y-91313000D01*
X149352000Y-90805000D02*
X150241000Y-90805000D01*
X158945500Y-115577700D02*
X158953200Y-115570000D01*
X113284000Y-98107500D02*
X113284000Y-95631000D01*
X118110000Y-93218000D02*
X123571000Y-87757000D01*
X158945500Y-116216000D02*
X158945500Y-115577700D01*
X113284000Y-95631000D02*
X115697000Y-93218000D01*
X143891000Y-91313000D02*
X148844000Y-91313000D01*
X111511000Y-99096000D02*
X112295500Y-99096000D01*
X115697000Y-93218000D02*
X118110000Y-93218000D01*
X123571000Y-87757000D02*
X140335000Y-87757000D01*
X112295500Y-99096000D02*
X113284000Y-98107500D01*
%TO.N,/RST_N*%
X110109000Y-95500171D02*
X109811000Y-95798171D01*
X109811000Y-95798171D02*
X109811000Y-96896000D01*
X110109000Y-94361000D02*
X110109000Y-95500171D01*
X104035000Y-93450000D02*
X96849000Y-93450000D01*
%TO.N,/RD2*%
X111511000Y-104596000D02*
X115431500Y-104596000D01*
X140010000Y-110281600D02*
X140004800Y-110286800D01*
X117602000Y-102425500D02*
X117602000Y-97536000D01*
X139700000Y-90297000D02*
X142468600Y-93065600D01*
X115431500Y-104596000D02*
X117602000Y-102425500D01*
X117602000Y-97536000D02*
X124841000Y-90297000D01*
X140010000Y-103078400D02*
X140004800Y-103073200D01*
X140010000Y-103755000D02*
X140010000Y-103078400D01*
X124841000Y-90297000D02*
X139700000Y-90297000D01*
X140010000Y-109605000D02*
X140010000Y-110281600D01*
%TO.N,/ADC_SCK*%
X122072400Y-103860600D02*
X121081800Y-102870000D01*
X121716800Y-118567200D02*
X120269000Y-120015000D01*
X121081800Y-102870000D02*
X119389000Y-102870000D01*
X103168000Y-104096000D02*
X103632000Y-103632000D01*
X120269000Y-120015000D02*
X119389000Y-120015000D01*
X102611000Y-104096000D02*
X103168000Y-104096000D01*
%TO.N,/RX*%
X103205200Y-95758000D02*
X98526600Y-95758000D01*
X103811000Y-96896000D02*
X103811000Y-96363800D01*
X103811000Y-96363800D02*
X103205200Y-95758000D01*
X97234600Y-97050000D02*
X96849000Y-97050000D01*
X98526600Y-95758000D02*
X97234600Y-97050000D01*
%TO.N,/CTS*%
X107109000Y-92250000D02*
X96849000Y-92250000D01*
X108077000Y-93218000D02*
X107109000Y-92250000D01*
X109311000Y-94905000D02*
X109311000Y-96896000D01*
%TO.N,/RE5*%
X145542000Y-86233000D02*
X147701000Y-88392000D01*
X110811000Y-96262500D02*
X114998500Y-92075000D01*
X160680400Y-114757200D02*
X160481500Y-114558300D01*
X110811000Y-96896000D02*
X110811000Y-96262500D01*
X147701000Y-88392000D02*
X149098000Y-88392000D01*
X123063000Y-86233000D02*
X145542000Y-86233000D01*
X114998500Y-92075000D02*
X117221000Y-92075000D01*
X160481500Y-114558300D02*
X160481500Y-114030000D01*
X117221000Y-92075000D02*
X123063000Y-86233000D01*
%TO.N,/RD5*%
X144907000Y-92456000D02*
X145542000Y-93091000D01*
X143256000Y-92456000D02*
X144907000Y-92456000D01*
X157226000Y-88519000D02*
X159385000Y-90678000D01*
X159440400Y-91368400D02*
X159440400Y-91380834D01*
X116586000Y-97028000D02*
X124333000Y-89281000D01*
X159440400Y-91380834D02*
X159737566Y-91678000D01*
X142875000Y-92075000D02*
X143256000Y-92456000D01*
X139954000Y-89281000D02*
X142748000Y-92075000D01*
X152273000Y-88519000D02*
X157226000Y-88519000D01*
X159385000Y-90678000D02*
X159385000Y-91313000D01*
X151511000Y-90424000D02*
X151511000Y-89281000D01*
X124333000Y-89281000D02*
X139954000Y-89281000D01*
X115471000Y-103096000D02*
X116586000Y-101981000D01*
X116586000Y-101981000D02*
X116586000Y-97028000D01*
X111511000Y-103096000D02*
X115471000Y-103096000D01*
X159385000Y-91313000D02*
X159440400Y-91368400D01*
X151511000Y-89281000D02*
X152273000Y-88519000D01*
X148844000Y-93091000D02*
X151511000Y-90424000D01*
X145542000Y-93091000D02*
X148844000Y-93091000D01*
X159737566Y-91678000D02*
X160481500Y-91678000D01*
X142748000Y-92075000D02*
X142875000Y-92075000D01*
%TO.N,/RD0*%
X109811000Y-105029000D02*
X109811000Y-105796000D01*
X125349000Y-91313000D02*
X139319000Y-91313000D01*
X153220500Y-93505100D02*
X153220500Y-93864000D01*
X152982709Y-93267309D02*
X153220500Y-93505100D01*
X149301200Y-94030800D02*
X151053800Y-92278200D01*
X151917400Y-92278200D02*
X152310570Y-92671370D01*
X118610400Y-98051600D02*
X125349000Y-91313000D01*
X142036800Y-94030800D02*
X149301200Y-94030800D01*
X139319000Y-91313000D02*
X142036800Y-94030800D01*
X153220500Y-100058300D02*
X153212800Y-100050600D01*
X115824000Y-105791000D02*
X118610400Y-103004600D01*
X111531400Y-105791000D02*
X115824000Y-105791000D01*
X152310570Y-93267309D02*
X152982709Y-93267309D01*
X118610400Y-103004600D02*
X118610400Y-98051600D01*
X151053800Y-92278200D02*
X151917400Y-92278200D01*
X153220500Y-100722000D02*
X153220500Y-100058300D01*
X152310570Y-92671370D02*
X152310570Y-93267309D01*
%TO.N,/DAC_MOSI*%
X108585000Y-112014000D02*
X109220000Y-112649000D01*
X112014000Y-112649000D02*
X115021000Y-109642000D01*
X108811000Y-107922000D02*
X108585000Y-108148000D01*
X115021000Y-109642000D02*
X119124000Y-109642000D01*
X108811000Y-105796000D02*
X108811000Y-107922000D01*
X109220000Y-112649000D02*
X112014000Y-112649000D01*
X108585000Y-108148000D02*
X108585000Y-112014000D01*
%TO.N,/ADC_CSN1*%
X118753000Y-103370000D02*
X118567200Y-103555800D01*
X118567200Y-103555800D02*
X118567200Y-104063800D01*
X104022200Y-105096000D02*
X104521000Y-104597200D01*
X118567200Y-104063800D02*
X117856000Y-104775000D01*
X119389000Y-103370000D02*
X118753000Y-103370000D01*
X102611000Y-105096000D02*
X104022200Y-105096000D01*
%TO.N,/TX*%
X97917000Y-95250000D02*
X103505000Y-95250000D01*
X103505000Y-95250000D02*
X104311000Y-96056000D01*
X96864800Y-95834200D02*
X97332800Y-95834200D01*
X104311000Y-96056000D02*
X104311000Y-96896000D01*
X96849000Y-95850000D02*
X96864800Y-95834200D01*
X97332800Y-95834200D02*
X97917000Y-95250000D01*
%TO.N,/RX_IND*%
X98044000Y-102362000D02*
X98044000Y-99060000D01*
X97234000Y-98250000D02*
X96849000Y-98250000D01*
X102611000Y-102596000D02*
X102033600Y-102596000D01*
X101886600Y-102743000D02*
X98425000Y-102743000D01*
X102033600Y-102596000D02*
X101886600Y-102743000D01*
X98425000Y-102743000D02*
X98044000Y-102362000D01*
X98044000Y-99060000D02*
X97234000Y-98250000D01*
%TO.N,/RD6*%
X148463000Y-92583000D02*
X149479000Y-91567000D01*
X153220500Y-94514000D02*
X154329800Y-94514000D01*
X116078000Y-96774000D02*
X124079000Y-88773000D01*
X124079000Y-88773000D02*
X140081000Y-88773000D01*
X145796000Y-92583000D02*
X148463000Y-92583000D01*
X154329800Y-101372000D02*
X154330400Y-101371400D01*
X153220500Y-101372000D02*
X154329800Y-101372000D01*
X143383000Y-92075000D02*
X145288000Y-92075000D01*
X140081000Y-88773000D02*
X143383000Y-92075000D01*
X154329800Y-94514000D02*
X154330400Y-94513400D01*
X115209000Y-102596000D02*
X116078000Y-101727000D01*
X145288000Y-92075000D02*
X145796000Y-92583000D01*
X116078000Y-101727000D02*
X116078000Y-96774000D01*
X111511000Y-102596000D02*
X115209000Y-102596000D01*
%TO.N,/RD3*%
X147010000Y-103755000D02*
X147010000Y-103078400D01*
X143230600Y-93065600D02*
X144399000Y-93065600D01*
X115233000Y-104096000D02*
X117094000Y-102235000D01*
X147010000Y-109605000D02*
X147010000Y-110307000D01*
X142494000Y-92456000D02*
X142621000Y-92456000D01*
X117094000Y-102235000D02*
X117094000Y-97282000D01*
X117094000Y-97282000D02*
X124587000Y-89789000D01*
X139827000Y-89789000D02*
X142494000Y-92456000D01*
X124587000Y-89789000D02*
X139827000Y-89789000D01*
X142621000Y-92456000D02*
X143230600Y-93065600D01*
X147010000Y-110307000D02*
X147015200Y-110312200D01*
X111511000Y-104096000D02*
X115233000Y-104096000D01*
X147010000Y-103078400D02*
X147015200Y-103073200D01*
%TO.N,/RE6*%
X114833400Y-91694000D02*
X116871750Y-91694000D01*
X153220500Y-123724000D02*
X154304400Y-123724000D01*
X110311000Y-96216400D02*
X114833400Y-91694000D01*
X122840750Y-85725000D02*
X145923000Y-85725000D01*
X154304400Y-123724000D02*
X154305000Y-123723400D01*
X116871750Y-91694000D02*
X122840750Y-85725000D01*
X110311000Y-96896000D02*
X110311000Y-96216400D01*
X153220500Y-116866000D02*
X154304400Y-116866000D01*
X145923000Y-85725000D02*
X146558000Y-86360000D01*
X154304400Y-116866000D02*
X154305000Y-116865400D01*
%TO.N,/ADC_MISO*%
X102611000Y-104596000D02*
X103557000Y-104596000D01*
X120878600Y-118541800D02*
X119905400Y-119515000D01*
X121353200Y-102370000D02*
X119389000Y-102370000D01*
X103557000Y-104596000D02*
X103632000Y-104521000D01*
X121361200Y-102362000D02*
X121353200Y-102370000D01*
X119905400Y-119515000D02*
X119389000Y-119515000D01*
%TO.N,/DAC_CSN*%
X107811000Y-105168000D02*
X107811000Y-105796000D01*
X112279000Y-108342000D02*
X119124000Y-108342000D01*
X112268000Y-108331000D02*
X112279000Y-108342000D01*
X108077000Y-104902000D02*
X107811000Y-105168000D01*
%TO.N,Net-(U6-Pad2)*%
X138351722Y-103449000D02*
X138348600Y-103449000D01*
X137800200Y-98481000D02*
X139268200Y-99949000D01*
X138176000Y-103449000D02*
X138191000Y-103449000D01*
X138348600Y-103606600D02*
X138348600Y-104179106D01*
X138191000Y-103449000D02*
X138348600Y-103606600D01*
X136605500Y-98481000D02*
X137800200Y-98481000D01*
X139268200Y-99949000D02*
X139268200Y-102532522D01*
X139224494Y-105055000D02*
X140010000Y-105055000D01*
X138348600Y-103449000D02*
X138176000Y-103449000D01*
X138348600Y-104179106D02*
X139224494Y-105055000D01*
X138348600Y-103449000D02*
X138348600Y-103606600D01*
X139268200Y-102532522D02*
X138351722Y-103449000D01*
X139218000Y-105055000D02*
X140010000Y-105055000D01*
X138176000Y-103449000D02*
X136605500Y-103449000D01*
%TO.N,Net-(U6-Pad3)*%
X137522278Y-108305000D02*
X140010000Y-108305000D01*
X137134600Y-105943400D02*
X137134600Y-107917322D01*
X135975518Y-99131000D02*
X135509000Y-99597518D01*
X135509000Y-102336600D02*
X135971400Y-102799000D01*
X137134600Y-107917322D02*
X137522278Y-108305000D01*
X136605500Y-102799000D02*
X135965901Y-102799000D01*
X135971400Y-102799000D02*
X136605500Y-102799000D01*
X135534400Y-103230501D02*
X135534400Y-104343200D01*
X135509000Y-99597518D02*
X135509000Y-102336600D01*
X136605500Y-99131000D02*
X135975518Y-99131000D01*
X135965901Y-102799000D02*
X135534400Y-103230501D01*
X135534400Y-104343200D02*
X137134600Y-105943400D01*
%TO.N,Net-(U8-Pad18)*%
X145517200Y-105055000D02*
X145161000Y-104698800D01*
X145754518Y-95941000D02*
X146384500Y-95941000D01*
X145343400Y-96363000D02*
X145343400Y-96352118D01*
X144526000Y-97180400D02*
X145343400Y-96363000D01*
X147010000Y-105055000D02*
X145517200Y-105055000D01*
X145343400Y-96352118D02*
X145754518Y-95941000D01*
X144526000Y-100457000D02*
X144526000Y-97180400D01*
X145161000Y-104698800D02*
X145161000Y-102387400D01*
%TO.N,Net-(U8-Pad13)*%
X147010000Y-108305000D02*
X145312800Y-108305000D01*
X144221200Y-107213400D02*
X144221200Y-101676200D01*
X145754518Y-96591000D02*
X146384500Y-96591000D01*
X145312800Y-108305000D02*
X144221200Y-107213400D01*
X145084800Y-100812600D02*
X145084800Y-97260718D01*
X144221200Y-101676200D02*
X145084800Y-100812600D01*
X145084800Y-97260718D02*
X145754518Y-96591000D01*
%TO.N,Net-(U10-Pad3)*%
X143205200Y-101320600D02*
X143205200Y-104394000D01*
X142757800Y-105705000D02*
X140010000Y-105705000D01*
X147010000Y-104405000D02*
X145708800Y-104405000D01*
X143205200Y-105257600D02*
X142757800Y-105705000D01*
X156006800Y-98907600D02*
X156500400Y-98414000D01*
X143205200Y-104394000D02*
X143205200Y-105257600D01*
X142793600Y-100909000D02*
X143205200Y-101320600D01*
X142159500Y-100909000D02*
X142793600Y-100909000D01*
X145708800Y-104405000D02*
X145703271Y-104410529D01*
X156500400Y-98414000D02*
X158945500Y-98414000D01*
X145694400Y-98907600D02*
X156006800Y-98907600D01*
%TO.N,Net-(U12-Pad8)*%
X147025000Y-95291000D02*
X147345400Y-94970600D01*
X149199600Y-94970600D02*
X152643000Y-98414000D01*
X147345400Y-94970600D02*
X149199600Y-94970600D01*
X152643000Y-98414000D02*
X153220500Y-98414000D01*
X146384500Y-95291000D02*
X147025000Y-95291000D01*
%TO.N,Net-(U10-Pad7)*%
X148742400Y-100812600D02*
X147853400Y-100812600D01*
X158945500Y-105272000D02*
X156119400Y-105272000D01*
X152284200Y-105700600D02*
X150088600Y-103505000D01*
X147853400Y-100812600D02*
X147299800Y-100259000D01*
X150088600Y-102158800D02*
X148742400Y-100812600D01*
X150088600Y-103505000D02*
X150088600Y-102158800D01*
X156119400Y-105272000D02*
X155690800Y-105700600D01*
X147299800Y-100259000D02*
X146384500Y-100259000D01*
X155690800Y-105700600D02*
X152284200Y-105700600D01*
%TO.N,Net-(U10-Pad8)*%
X152254400Y-104860882D02*
X152254400Y-104858000D01*
X150596600Y-100812600D02*
X149072600Y-99288600D01*
X152254400Y-104858000D02*
X150596600Y-103200200D01*
X150596600Y-103200200D02*
X150596600Y-100812600D01*
X149072600Y-99288600D02*
X147624800Y-99288600D01*
X147304400Y-99609000D02*
X146384500Y-99609000D01*
X147624800Y-99288600D02*
X147304400Y-99609000D01*
X152665518Y-105272000D02*
X152254400Y-104860882D01*
X153220500Y-105272000D02*
X152665518Y-105272000D01*
%TO.N,Net-(U15-Pad3)*%
X137134600Y-123215400D02*
X137134600Y-125189322D01*
X137522278Y-125577000D02*
X140010000Y-125577000D01*
X135534400Y-121615200D02*
X137134600Y-123215400D01*
X135965901Y-120071000D02*
X135534400Y-120502501D01*
X135509000Y-116869518D02*
X135509000Y-119608600D01*
X136605500Y-116403000D02*
X135975518Y-116403000D01*
X136605500Y-120071000D02*
X135965901Y-120071000D01*
X135509000Y-119608600D02*
X135971400Y-120071000D01*
X135534400Y-120502501D02*
X135534400Y-121615200D01*
X135971400Y-120071000D02*
X136605500Y-120071000D01*
X137134600Y-125189322D02*
X137522278Y-125577000D01*
X135975518Y-116403000D02*
X135509000Y-116869518D01*
%TO.N,Net-(U15-Pad2)*%
X137800200Y-115753000D02*
X139268200Y-117221000D01*
X139268200Y-117221000D02*
X139268200Y-119804522D01*
X138348600Y-120721000D02*
X138176000Y-120721000D01*
X139218000Y-122327000D02*
X140010000Y-122327000D01*
X139268200Y-119804522D02*
X138351722Y-120721000D01*
X136605500Y-115753000D02*
X137800200Y-115753000D01*
X139224494Y-122327000D02*
X140010000Y-122327000D01*
X138348600Y-121451106D02*
X139224494Y-122327000D01*
X138351722Y-120721000D02*
X138348600Y-120721000D01*
X138348600Y-120878600D02*
X138348600Y-121451106D01*
X138176000Y-120721000D02*
X136605500Y-120721000D01*
X138176000Y-120721000D02*
X138191000Y-120721000D01*
X138191000Y-120721000D02*
X138348600Y-120878600D01*
X138348600Y-120721000D02*
X138348600Y-120878600D01*
%TO.N,Net-(U17-Pad19)*%
X156500400Y-120766000D02*
X158945500Y-120766000D01*
X142159500Y-118181000D02*
X142793600Y-118181000D01*
X147010000Y-121677000D02*
X148350400Y-121677000D01*
X145708800Y-121677000D02*
X145703271Y-121682529D01*
X143205200Y-122529600D02*
X142757800Y-122977000D01*
X142757800Y-122977000D02*
X140010000Y-122977000D01*
X142793600Y-118181000D02*
X143205200Y-118592600D01*
X151765000Y-121310400D02*
X155956000Y-121310400D01*
X155956000Y-121310400D02*
X156500400Y-120766000D01*
X147010000Y-121677000D02*
X145708800Y-121677000D01*
X143205200Y-121666000D02*
X143205200Y-122529600D01*
X143205200Y-118592600D02*
X143205200Y-121666000D01*
X148350400Y-121677000D02*
X148717000Y-121310400D01*
X151765000Y-121310400D02*
X150342600Y-121310400D01*
%TO.N,Net-(U17-Pad18)*%
X145161000Y-121970800D02*
X145161000Y-119659400D01*
X147010000Y-122327000D02*
X145517200Y-122327000D01*
X144526000Y-117729000D02*
X144526000Y-114452400D01*
X144526000Y-114452400D02*
X145343400Y-113635000D01*
X145517200Y-122327000D02*
X145161000Y-121970800D01*
X145343400Y-113624118D02*
X145754518Y-113213000D01*
X145754518Y-113213000D02*
X146384500Y-113213000D01*
X145343400Y-113635000D02*
X145343400Y-113624118D01*
%TO.N,Net-(U17-Pad13)*%
X144221200Y-124485400D02*
X144221200Y-118948200D01*
X145754518Y-113863000D02*
X146384500Y-113863000D01*
X145084800Y-118084600D02*
X145084800Y-114532718D01*
X145312800Y-125577000D02*
X144221200Y-124485400D01*
X145084800Y-114532718D02*
X145754518Y-113863000D01*
X144221200Y-118948200D02*
X145084800Y-118084600D01*
X147010000Y-125577000D02*
X145312800Y-125577000D01*
%TO.N,Net-(U18-Pad8)*%
X147726400Y-112166400D02*
X147329800Y-112563000D01*
X150647400Y-118745000D02*
X150647400Y-113665000D01*
X150647400Y-113665000D02*
X149148800Y-112166400D01*
X152665518Y-120766000D02*
X152254400Y-120354882D01*
X149148800Y-112166400D02*
X147726400Y-112166400D01*
X147329800Y-112563000D02*
X146384500Y-112563000D01*
X152254400Y-120354882D02*
X152254400Y-120352000D01*
X153220500Y-120766000D02*
X152665518Y-120766000D01*
X152254400Y-120352000D02*
X150647400Y-118745000D01*
%TO.N,Net-(U19-Pad7)*%
X150241000Y-123215400D02*
X149301200Y-122275600D01*
X156119400Y-127624000D02*
X155625800Y-128117600D01*
X150241000Y-126060200D02*
X150241000Y-123215400D01*
X149301200Y-118643400D02*
X148742400Y-118084600D01*
X147853400Y-118084600D02*
X147299800Y-117531000D01*
X148742400Y-118084600D02*
X147853400Y-118084600D01*
X152298400Y-128117600D02*
X150241000Y-126060200D01*
X149301200Y-122275600D02*
X149301200Y-118643400D01*
X158945500Y-127624000D02*
X156119400Y-127624000D01*
X147299800Y-117531000D02*
X146384500Y-117531000D01*
X155625800Y-128117600D02*
X152298400Y-128117600D01*
%TO.N,Net-(U19-Pad8)*%
X150622000Y-125577600D02*
X152254400Y-127210000D01*
X149733000Y-121996200D02*
X150622000Y-122885200D01*
X152665518Y-127624000D02*
X153220500Y-127624000D01*
X147304400Y-116881000D02*
X147624800Y-116560600D01*
X152254400Y-127210000D02*
X152254400Y-127212882D01*
X146384500Y-116881000D02*
X147304400Y-116881000D01*
X150622000Y-122885200D02*
X150622000Y-125577600D01*
X149733000Y-117221000D02*
X149733000Y-121996200D01*
X147624800Y-116560600D02*
X149072600Y-116560600D01*
X152254400Y-127212882D02*
X152665518Y-127624000D01*
X149072600Y-116560600D02*
X149733000Y-117221000D01*
%TO.N,Net-(R71-Pad2)*%
X136589000Y-131001000D02*
X137287000Y-131699000D01*
X136589000Y-130937000D02*
X136589000Y-131001000D01*
X135819000Y-131770000D02*
X136589000Y-131000000D01*
X138239000Y-132397000D02*
X138239000Y-132461000D01*
X134942500Y-131770000D02*
X135819000Y-131770000D01*
X136589000Y-131000000D02*
X136589000Y-130937000D01*
X137541000Y-131699000D02*
X138239000Y-132397000D01*
X137287000Y-131699000D02*
X137541000Y-131699000D01*
%TO.N,Net-(R71-Pad1)*%
X130225800Y-129489200D02*
X130225800Y-131597400D01*
X131048400Y-132420000D02*
X134942500Y-132420000D01*
X130225800Y-131597400D02*
X131048400Y-132420000D01*
X123825000Y-130175000D02*
X125171200Y-128828800D01*
X129565400Y-128828800D02*
X130225800Y-129489200D01*
X134942500Y-132420000D02*
X136548000Y-132420000D01*
X136548000Y-132420000D02*
X136589000Y-132461000D01*
X125171200Y-128828800D02*
X129565400Y-128828800D01*
%TO.N,Net-(R73-Pad2)*%
X126466600Y-131064000D02*
X126771400Y-131064000D01*
X127444000Y-130333500D02*
X128230500Y-131120000D01*
X128230500Y-131120000D02*
X129217500Y-131120000D01*
X125794000Y-131826000D02*
X125794000Y-131736600D01*
X127444000Y-130302000D02*
X127444000Y-130333500D01*
X125794000Y-131736600D02*
X126466600Y-131064000D01*
X127444000Y-130391400D02*
X127444000Y-130302000D01*
X126771400Y-131064000D02*
X127444000Y-130391400D01*
%TO.N,Net-(R73-Pad1)*%
X123698000Y-132588000D02*
X126720600Y-132588000D01*
X121285000Y-130175000D02*
X123698000Y-132588000D01*
X126720600Y-132588000D02*
X127444000Y-131864600D01*
X129217500Y-131770000D02*
X127500000Y-131770000D01*
X127500000Y-131770000D02*
X127444000Y-131826000D01*
X127444000Y-131864600D02*
X127444000Y-131826000D01*
%TD*%
M02*
