M48
; DRILL file {KiCad 8.0.9-8.0.9-0~ubuntu24.04.1} date 2025-05-29T22:28:56-0400
; FORMAT={-:-/ absolute / inch / decimal}
; #@! TF.CreationDate,2025-05-29T22:28:56-04:00
; #@! TF.GenerationSoftware,Kicad,Pcbnew,8.0.9-8.0.9-0~ubuntu24.04.1
; #@! TF.FileFunction,Plated,1,4,PTH
FMAT,2
INCH
; #@! TA.AperFunction,Plated,PTH,ViaDrill
T1C0.0120
; #@! TA.AperFunction,Plated,PTH,ComponentDrill
T2C0.0236
; #@! TA.AperFunction,Plated,PTH,ComponentDrill
T3C0.0276
; #@! TA.AperFunction,Plated,PTH,ComponentDrill
T4C0.0394
%
G90
G05
T1
X3.606Y-3.963
X3.6535Y-3.538
X3.7007Y-3.5398
X3.792Y-4.647
X3.82Y-4.135
X3.839Y-3.915
X3.853Y-4.249
X3.853Y-4.501
X3.865Y-3.655
X3.887Y-3.885
X3.887Y-4.015
X3.9Y-4.2805
X3.9Y-4.47
X3.9215Y-3.835
X3.945Y-3.8
X3.96Y-4.955
X3.978Y-3.729
X4.0044Y-5.08
X4.0044Y-5.08
X4.01Y-3.921
X4.0109Y-4.0191
X4.0115Y-3.8817
X4.015Y-4.775
X4.015Y-4.8376
X4.015Y-4.89
X4.0385Y-4.9917
X4.04Y-4.17
X4.045Y-4.22
X4.045Y-5.26
X4.047Y-3.815
X4.05Y-5.175
X4.065Y-4.975
X4.08Y-4.08
X4.08Y-4.115
X4.0959Y-3.6791
X4.115Y-4.118
X4.14Y-4.36
X4.15Y-3.69
X4.16Y-3.99
X4.1683Y-4.1959
X4.169Y-4.317
X4.18Y-3.855
X4.185Y-3.784
X4.195Y-3.525
X4.195Y-3.585
X4.2Y-4.13
X4.203Y-5.191
X4.215Y-3.935
X4.215Y-4.045
X4.22Y-5.02
X4.223Y-3.782
X4.24Y-4.317
X4.25Y-4.795
X4.255Y-3.67
X4.255Y-4.13
X4.264Y-3.846
X4.27Y-3.736
X4.27Y-3.99
X4.272Y-4.904
X4.28Y-3.615
X4.285Y-4.458
X4.3036Y-3.7364
X4.315Y-5.1826
X4.315Y-5.2574
X4.3162Y-3.6612
X4.321Y-3.56
X4.3233Y-4.135
X4.324Y-4.385
X4.3305Y-4.63
X4.335Y-3.715
X4.342Y-3.945
X4.35Y-3.401
X4.353Y-3.882
X4.36Y-4.019
X4.375Y-5.075
X4.384Y-4.385
X4.391Y-4.165
X4.4199Y-3.9788
X4.42Y-4.265
X4.427Y-3.65
X4.449Y-3.4
X4.4555Y-4.75
X4.502Y-3.868
X4.505Y-5.05
X4.513Y-3.899
X4.53Y-5.025
X4.545Y-3.94
X4.545Y-4.0
X4.546Y-3.903
X4.55Y-3.4
X4.555Y-5.0
X4.5578Y-3.7218
X4.5675Y-3.54
X4.58Y-4.975
X4.593Y-3.709
X4.64Y-3.706
X4.64Y-4.125
X4.646Y-4.3422
X4.646Y-4.3934
X4.65Y-3.4
X4.6945Y-4.7975
X4.695Y-4.122
X4.7Y-3.911
X4.7Y-3.99
X4.7Y-4.663
X4.72Y-3.849
X4.731Y-4.13
X4.746Y-3.823
X4.755Y-4.798
X4.759Y-4.667
X4.778Y-4.03
X4.792Y-4.668
X4.806Y-4.089
X4.83Y-4.725
X4.869Y-3.992
X4.87Y-4.667
X4.876Y-4.124
X4.876Y-4.799
X4.916Y-3.776
X4.916Y-4.767
X4.917Y-3.822
X4.917Y-4.088
X4.92Y-5.25
X4.935Y-4.212
X4.935Y-4.886
X4.96Y-4.3678
X4.962Y-4.32
X4.982Y-4.065
X4.982Y-4.745
X4.982Y-5.13
X4.984Y-3.68
X5.041Y-3.86
X5.041Y-4.125
X5.041Y-4.54
X5.042Y-4.805
X5.055Y-4.338
X5.087Y-5.106
X5.115Y-5.39
X5.155Y-5.39
X5.156Y-5.1622
X5.166Y-3.79
X5.166Y-3.96
X5.166Y-4.47
X5.166Y-4.64
X5.167Y-3.8516
X5.167Y-4.0216
X5.167Y-4.5316
X5.167Y-4.7016
X5.183Y-3.67
X5.195Y-5.39
X5.235Y-5.39
X5.2528Y-3.976
X5.262Y-4.532
X5.271Y-5.137
X5.305Y-4.47
X5.414Y-5.155
X5.423Y-3.8516
X5.423Y-3.96
X5.423Y-4.0216
X5.423Y-4.5316
X5.423Y-4.64
X5.423Y-4.7016
X5.427Y-3.67
X5.455Y-3.759
X5.462Y-4.1872
X5.462Y-4.8672
X5.485Y-5.34
X5.487Y-4.45
X5.512Y-4.058
X5.512Y-4.342
X5.512Y-4.737
X5.512Y-5.022
X5.52Y-3.739
X5.52Y-3.909
X5.52Y-4.589
X5.525Y-5.34
X5.552Y-3.8284
X5.552Y-3.9984
X5.552Y-4.5084
X5.552Y-4.6784
X5.56Y-4.212
X5.56Y-4.892
X5.565Y-5.34
X5.59Y-3.485
X5.605Y-5.34
X5.609Y-3.664
X5.611Y-4.131
X5.611Y-4.811
X5.62Y-3.515
X5.638Y-4.11
X5.638Y-4.79
X5.681Y-4.29
X5.681Y-4.97
X5.685Y-3.664
X5.69Y-3.955
X5.69Y-4.635
X5.715Y-4.031
X5.715Y-4.711
X5.724Y-4.1616
X5.724Y-4.8416
X5.733Y-4.2384
X5.733Y-4.9184
X5.736Y-3.894
X5.7363Y-4.1107
X5.7363Y-4.7907
X5.75Y-3.624
X5.77Y-3.4
X5.787Y-5.028
X5.788Y-4.058
X5.788Y-4.343
X5.788Y-4.737
X5.808Y-3.8284
X5.808Y-3.9984
X5.808Y-4.5084
X5.808Y-4.6784
X5.838Y-4.1872
X5.838Y-4.8672
X5.855Y-4.776
X5.87Y-3.48
X5.87Y-4.286
X5.87Y-4.966
X5.8702Y-3.9398
X5.8702Y-4.6198
X5.872Y-3.77
X5.872Y-4.45
X5.885Y-3.605
X5.915Y-3.575
X5.919Y-4.776
X5.96Y-3.654
X5.96Y-3.924
X5.96Y-4.534
X5.96Y-4.804
X5.987Y-4.475
X5.991Y-3.7466
X5.991Y-4.0166
X5.991Y-4.6266
X5.991Y-4.8966
X5.9965Y-3.6719
X6.02Y-3.629
X6.032Y-3.939
X6.032Y-4.549
X6.032Y-4.819
X6.059Y-4.4106
X6.0685Y-4.2355
X6.0685Y-5.1155
X6.075Y-4.601
X6.075Y-4.871
X6.076Y-3.721
X6.076Y-3.991
X6.085Y-3.5306
X6.0962Y-5.365
X6.112Y-3.646
X6.112Y-4.526
X6.126Y-4.3184
X6.126Y-5.1984
X6.13Y-5.365
X6.165Y-5.365
X6.197Y-3.57
X6.197Y-4.45
X6.2017Y-3.6045
X6.2017Y-4.4845
X6.257Y-3.669
X6.257Y-3.915
X6.2577Y-4.819
X6.258Y-4.55
X6.299Y-3.7466
X6.299Y-4.0166
X6.299Y-4.6266
X6.299Y-4.8966
X6.3052Y-3.7092
X6.3052Y-3.9792
X6.3052Y-4.5892
X6.3052Y-4.8592
X6.326Y-4.518
X6.3615Y-3.5687
X6.3615Y-4.4487
X6.383Y-4.2416
X6.383Y-5.1216
X6.39Y-4.276
X6.39Y-5.156
X6.4263Y-3.955
X6.427Y-4.835
X6.491Y-3.685
X6.4977Y-4.5247
X6.545Y-5.19
X6.545Y-5.225
X6.545Y-5.26
X6.545Y-5.295
X7.04Y-3.607
X7.04Y-5.264
X7.11Y-3.619
X7.153Y-5.237
T3
X4.775Y-3.9
X4.775Y-5.125
X4.875Y-3.9
X4.875Y-5.125
T4
X5.7Y-3.45
X5.7Y-3.55
X5.7Y-5.2
X5.7Y-5.3
X6.7Y-3.825
X6.7Y-4.925
X6.8Y-3.825
X6.8Y-4.925
X6.9Y-3.825
X6.9Y-4.925
X7.0Y-3.825
X7.0Y-4.925
X7.1Y-3.825
X7.1Y-4.925
X7.2Y-3.825
X7.2Y-4.925
T2
G00X3.6457Y-4.2049
M15
G01X3.6143Y-4.2049
M16
G05
G00X3.6457Y-4.5451
M15
G01X3.6143Y-4.5451
M16
G05
G00X3.8162Y-4.2049
M15
G01X3.7729Y-4.2049
M16
G05
G00X3.8162Y-4.5451
M15
G01X3.7729Y-4.5451
M16
G05
M30
