%TF.GenerationSoftware,KiCad,Pcbnew,8.0.9-8.0.9-0~ubuntu24.04.1*%
%TF.CreationDate,2025-05-29T22:28:41-04:00*%
%TF.ProjectId,smu2,736d7532-2e6b-4696-9361-645f70636258,rev?*%
%TF.SameCoordinates,Original*%
%TF.FileFunction,Paste,Top*%
%TF.FilePolarity,Positive*%
%FSLAX46Y46*%
G04 Gerber Fmt 4.6, Leading zero omitted, Abs format (unit mm)*
G04 Created by KiCad (PCBNEW 8.0.9-8.0.9-0~ubuntu24.04.1) date 2025-05-29 22:28:41*
%MOMM*%
%LPD*%
G01*
G04 APERTURE LIST*
G04 Aperture macros list*
%AMRoundRect*
0 Rectangle with rounded corners*
0 $1 Rounding radius*
0 $2 $3 $4 $5 $6 $7 $8 $9 X,Y pos of 4 corners*
0 Add a 4 corners polygon primitive as box body*
4,1,4,$2,$3,$4,$5,$6,$7,$8,$9,$2,$3,0*
0 Add four circle primitives for the rounded corners*
1,1,$1+$1,$2,$3*
1,1,$1+$1,$4,$5*
1,1,$1+$1,$6,$7*
1,1,$1+$1,$8,$9*
0 Add four rect primitives between the rounded corners*
20,1,$1+$1,$2,$3,$4,$5,0*
20,1,$1+$1,$4,$5,$6,$7,0*
20,1,$1+$1,$6,$7,$8,$9,0*
20,1,$1+$1,$8,$9,$2,$3,0*%
G04 Aperture macros list end*
%ADD10C,0.120000*%
%ADD11C,0.100000*%
%ADD12RoundRect,0.200000X0.200000X0.275000X-0.200000X0.275000X-0.200000X-0.275000X0.200000X-0.275000X0*%
%ADD13R,0.250000X0.700000*%
%ADD14R,1.805000X1.650000*%
%ADD15R,1.070000X1.650000*%
%ADD16RoundRect,0.100000X-0.637500X-0.100000X0.637500X-0.100000X0.637500X0.100000X-0.637500X0.100000X0*%
%ADD17RoundRect,0.225000X-0.250000X0.225000X-0.250000X-0.225000X0.250000X-0.225000X0.250000X0.225000X0*%
%ADD18R,0.700000X1.500000*%
%ADD19R,1.500000X0.700000*%
%ADD20RoundRect,0.225000X0.250000X-0.225000X0.250000X0.225000X-0.250000X0.225000X-0.250000X-0.225000X0*%
%ADD21RoundRect,0.225000X-0.225000X-0.250000X0.225000X-0.250000X0.225000X0.250000X-0.225000X0.250000X0*%
%ADD22RoundRect,0.100000X-0.712500X-0.100000X0.712500X-0.100000X0.712500X0.100000X-0.712500X0.100000X0*%
%ADD23R,1.000000X0.500000*%
%ADD24RoundRect,0.225000X0.225000X0.250000X-0.225000X0.250000X-0.225000X-0.250000X0.225000X-0.250000X0*%
%ADD25RoundRect,0.200000X-0.200000X-0.275000X0.200000X-0.275000X0.200000X0.275000X-0.200000X0.275000X0*%
%ADD26RoundRect,0.250000X-0.312500X-0.625000X0.312500X-0.625000X0.312500X0.625000X-0.312500X0.625000X0*%
%ADD27RoundRect,0.243750X0.243750X0.456250X-0.243750X0.456250X-0.243750X-0.456250X0.243750X-0.456250X0*%
%ADD28RoundRect,0.055000X-0.220000X-0.695000X0.220000X-0.695000X0.220000X0.695000X-0.220000X0.695000X0*%
%ADD29RoundRect,0.075000X0.737500X0.075000X-0.737500X0.075000X-0.737500X-0.075000X0.737500X-0.075000X0*%
%ADD30RoundRect,0.150000X0.587500X0.150000X-0.587500X0.150000X-0.587500X-0.150000X0.587500X-0.150000X0*%
%ADD31RoundRect,0.200000X0.275000X-0.200000X0.275000X0.200000X-0.275000X0.200000X-0.275000X-0.200000X0*%
%ADD32RoundRect,0.100000X0.712500X0.100000X-0.712500X0.100000X-0.712500X-0.100000X0.712500X-0.100000X0*%
%ADD33R,1.250000X4.700000*%
%ADD34R,1.100000X0.250000*%
%ADD35RoundRect,0.200000X-0.275000X0.200000X-0.275000X-0.200000X0.275000X-0.200000X0.275000X0.200000X0*%
%ADD36RoundRect,0.243750X-0.456250X0.243750X-0.456250X-0.243750X0.456250X-0.243750X0.456250X0.243750X0*%
%ADD37RoundRect,0.243750X0.456250X-0.243750X0.456250X0.243750X-0.456250X0.243750X-0.456250X-0.243750X0*%
%ADD38RoundRect,0.100000X0.637500X0.100000X-0.637500X0.100000X-0.637500X-0.100000X0.637500X-0.100000X0*%
%ADD39RoundRect,0.243750X-0.243750X-0.456250X0.243750X-0.456250X0.243750X0.456250X-0.243750X0.456250X0*%
%ADD40RoundRect,0.050000X-0.350000X-0.075000X0.350000X-0.075000X0.350000X0.075000X-0.350000X0.075000X0*%
%ADD41RoundRect,0.050000X0.075000X-0.350000X0.075000X0.350000X-0.075000X0.350000X-0.075000X-0.350000X0*%
%ADD42RoundRect,0.112500X-0.837500X-0.112500X0.837500X-0.112500X0.837500X0.112500X-0.837500X0.112500X0*%
%ADD43R,0.600000X1.100000*%
%ADD44R,1.150000X0.580000*%
%ADD45R,1.150000X0.280000*%
%ADD46R,0.300000X0.850000*%
%ADD47R,0.850000X0.300000*%
G04 APERTURE END LIST*
%TO.C,U25*%
D10*
X106810000Y-120653000D02*
X107810000Y-120653000D01*
X107810000Y-121653000D01*
X106810000Y-121653000D01*
X106810000Y-120653000D01*
G36*
X106810000Y-120653000D02*
G01*
X107810000Y-120653000D01*
X107810000Y-121653000D01*
X106810000Y-121653000D01*
X106810000Y-120653000D01*
G37*
X106810000Y-121933000D02*
X107810000Y-121933000D01*
X107810000Y-122933000D01*
X106810000Y-122933000D01*
X106810000Y-121933000D01*
G36*
X106810000Y-121933000D02*
G01*
X107810000Y-121933000D01*
X107810000Y-122933000D01*
X106810000Y-122933000D01*
X106810000Y-121933000D01*
G37*
X108090000Y-120653000D02*
X109090000Y-120653000D01*
X109090000Y-121653000D01*
X108090000Y-121653000D01*
X108090000Y-120653000D01*
G36*
X108090000Y-120653000D02*
G01*
X109090000Y-120653000D01*
X109090000Y-121653000D01*
X108090000Y-121653000D01*
X108090000Y-120653000D01*
G37*
X108090000Y-121933000D02*
X109090000Y-121933000D01*
X109090000Y-122933000D01*
X108090000Y-122933000D01*
X108090000Y-121933000D01*
G36*
X108090000Y-121933000D02*
G01*
X109090000Y-121933000D01*
X109090000Y-122933000D01*
X108090000Y-122933000D01*
X108090000Y-121933000D01*
G37*
D11*
%TO.C,U1*%
X106811000Y-101096000D02*
X104561000Y-101096000D01*
X104561000Y-98846000D01*
X106811000Y-98846000D01*
X106811000Y-101096000D01*
G36*
X106811000Y-101096000D02*
G01*
X104561000Y-101096000D01*
X104561000Y-98846000D01*
X106811000Y-98846000D01*
X106811000Y-101096000D01*
G37*
X106811000Y-103846000D02*
X104561000Y-103846000D01*
X104561000Y-101596000D01*
X106811000Y-101596000D01*
X106811000Y-103846000D01*
G36*
X106811000Y-103846000D02*
G01*
X104561000Y-103846000D01*
X104561000Y-101596000D01*
X106811000Y-101596000D01*
X106811000Y-103846000D01*
G37*
X109561000Y-101096000D02*
X107311000Y-101096000D01*
X107311000Y-98846000D01*
X109561000Y-98846000D01*
X109561000Y-101096000D01*
G36*
X109561000Y-101096000D02*
G01*
X107311000Y-101096000D01*
X107311000Y-98846000D01*
X109561000Y-98846000D01*
X109561000Y-101096000D01*
G37*
X109561000Y-103846000D02*
X107311000Y-103846000D01*
X107311000Y-101596000D01*
X109561000Y-101596000D01*
X109561000Y-103846000D01*
G36*
X109561000Y-103846000D02*
G01*
X107311000Y-103846000D01*
X107311000Y-101596000D01*
X109561000Y-101596000D01*
X109561000Y-103846000D01*
G37*
%TD*%
D12*
%TO.C,R25*%
X134048000Y-93218000D03*
X132398000Y-93218000D03*
%TD*%
D13*
%TO.C,U26*%
X100989000Y-130432000D03*
X101489000Y-130432000D03*
X101989000Y-130432000D03*
X102489000Y-130432000D03*
X102989000Y-130432000D03*
X103489000Y-130432000D03*
X103989000Y-130432000D03*
X103989000Y-127632000D03*
X103489000Y-127632000D03*
X102989000Y-127632000D03*
X102489000Y-127632000D03*
X101989000Y-127632000D03*
X101489000Y-127632000D03*
X100989000Y-127632000D03*
D14*
X101711500Y-129032000D03*
D15*
X103634000Y-129032000D03*
%TD*%
D16*
%TO.C,U12*%
X153220500Y-93864000D03*
X153220500Y-94514000D03*
X153220500Y-95164000D03*
X153220500Y-95814000D03*
X153220500Y-96464000D03*
X153220500Y-97114000D03*
X153220500Y-97764000D03*
X153220500Y-98414000D03*
X158945500Y-98414000D03*
X158945500Y-97764000D03*
X158945500Y-97114000D03*
X158945500Y-96464000D03*
X158945500Y-95814000D03*
X158945500Y-95164000D03*
X158945500Y-94514000D03*
X158945500Y-93864000D03*
%TD*%
D12*
%TO.C,R16*%
X128968000Y-98044000D03*
X127318000Y-98044000D03*
%TD*%
D17*
%TO.C,C12*%
X125349000Y-104635000D03*
X125349000Y-106185000D03*
%TD*%
D18*
%TO.C,U5*%
X90399000Y-99500000D03*
X91599000Y-99500000D03*
X92799000Y-99500000D03*
X93999000Y-99500000D03*
X95199000Y-99500000D03*
D19*
X96849000Y-98250000D03*
X96849000Y-97050000D03*
X96849000Y-95850000D03*
X96849000Y-94650000D03*
X96849000Y-93450000D03*
X96849000Y-92250000D03*
D18*
X95199000Y-91000000D03*
X93999000Y-91000000D03*
X92799000Y-91000000D03*
X91599000Y-91000000D03*
X90399000Y-91000000D03*
%TD*%
D20*
%TO.C,C30*%
X160782000Y-101994000D03*
X160782000Y-100444000D03*
%TD*%
D12*
%TO.C,R39*%
X128968000Y-122047000D03*
X127318000Y-122047000D03*
%TD*%
D21*
%TO.C,C17*%
X93205000Y-89154000D03*
X94755000Y-89154000D03*
%TD*%
D17*
%TO.C,C19*%
X130429000Y-100571000D03*
X130429000Y-102121000D03*
%TD*%
D22*
%TO.C,U18*%
X142159500Y-112563000D03*
X142159500Y-113213000D03*
X142159500Y-113863000D03*
X142159500Y-114513000D03*
X146384500Y-114513000D03*
X146384500Y-113863000D03*
X146384500Y-113213000D03*
X146384500Y-112563000D03*
%TD*%
D20*
%TO.C,C26*%
X148336000Y-101613000D03*
X148336000Y-100063000D03*
%TD*%
%TO.C,C25*%
X140208000Y-97295000D03*
X140208000Y-95745000D03*
%TD*%
%TO.C,C46*%
X140208000Y-118885000D03*
X140208000Y-117335000D03*
%TD*%
D23*
%TO.C,D1*%
X100550000Y-88754000D03*
X102650000Y-88754000D03*
X100550000Y-89554000D03*
X102650000Y-89554000D03*
%TD*%
D12*
%TO.C,R6*%
X116014000Y-90678000D03*
X114364000Y-90678000D03*
%TD*%
D17*
%TO.C,C21*%
X130429000Y-96253000D03*
X130429000Y-97803000D03*
%TD*%
D12*
%TO.C,R15*%
X128968000Y-99568000D03*
X127318000Y-99568000D03*
%TD*%
%TO.C,R40*%
X128968000Y-116840000D03*
X127318000Y-116840000D03*
%TD*%
D21*
%TO.C,C14*%
X126860000Y-110998000D03*
X128410000Y-110998000D03*
%TD*%
%TO.C,C51*%
X162420000Y-114427000D03*
X163970000Y-114427000D03*
%TD*%
D24*
%TO.C,C58*%
X104280000Y-121285000D03*
X102730000Y-121285000D03*
%TD*%
D17*
%TO.C,C54*%
X152908000Y-112128000D03*
X152908000Y-113678000D03*
%TD*%
%TO.C,C52*%
X162941000Y-130035000D03*
X162941000Y-131585000D03*
%TD*%
%TO.C,C55*%
X154432000Y-113398000D03*
X154432000Y-114948000D03*
%TD*%
D12*
%TO.C,R17*%
X128968000Y-107823000D03*
X127318000Y-107823000D03*
%TD*%
D21*
%TO.C,C57*%
X99682000Y-121285000D03*
X101232000Y-121285000D03*
%TD*%
D17*
%TO.C,C38*%
X130429000Y-117843000D03*
X130429000Y-119393000D03*
%TD*%
%TO.C,C41*%
X138557000Y-113525000D03*
X138557000Y-115075000D03*
%TD*%
D25*
%TO.C,R68*%
X108395000Y-115316000D03*
X110045000Y-115316000D03*
%TD*%
D12*
%TO.C,R27*%
X153479000Y-109855000D03*
X151829000Y-109855000D03*
%TD*%
D26*
%TO.C,R37*%
X160970500Y-98552000D03*
X163895500Y-98552000D03*
%TD*%
D20*
%TO.C,C2*%
X109829600Y-110630000D03*
X109829600Y-109080000D03*
%TD*%
D12*
%TO.C,R38*%
X128968000Y-123571000D03*
X127318000Y-123571000D03*
%TD*%
%TO.C,R23*%
X128968000Y-96520000D03*
X127318000Y-96520000D03*
%TD*%
D27*
%TO.C,D2*%
X98346500Y-89154000D03*
X96471500Y-89154000D03*
%TD*%
D25*
%TO.C,R57*%
X162370000Y-125857000D03*
X164020000Y-125857000D03*
%TD*%
D17*
%TO.C,C33*%
X162941000Y-107683000D03*
X162941000Y-109233000D03*
%TD*%
D12*
%TO.C,R28*%
X153479000Y-108331000D03*
X151829000Y-108331000D03*
%TD*%
D20*
%TO.C,C50*%
X160782000Y-117488000D03*
X160782000Y-115938000D03*
%TD*%
D21*
%TO.C,C62*%
X111620000Y-119888000D03*
X113170000Y-119888000D03*
%TD*%
D17*
%TO.C,C42*%
X149098000Y-123812000D03*
X149098000Y-125362000D03*
%TD*%
D24*
%TO.C,C68*%
X105042000Y-133604000D03*
X103492000Y-133604000D03*
%TD*%
D12*
%TO.C,R53*%
X153479000Y-130683000D03*
X151829000Y-130683000D03*
%TD*%
%TO.C,R10*%
X99631000Y-91059000D03*
X97981000Y-91059000D03*
%TD*%
D17*
%TO.C,C36*%
X154432000Y-91046000D03*
X154432000Y-92596000D03*
%TD*%
D12*
%TO.C,R14*%
X128968000Y-104775000D03*
X127318000Y-104775000D03*
%TD*%
D28*
%TO.C,S2*%
X109754000Y-91694000D03*
X113004000Y-91694000D03*
%TD*%
D25*
%TO.C,R30*%
X162370000Y-100457000D03*
X164020000Y-100457000D03*
%TD*%
D12*
%TO.C,R2*%
X116014000Y-89154000D03*
X114364000Y-89154000D03*
%TD*%
D20*
%TO.C,C8*%
X105892600Y-108852000D03*
X105892600Y-107302000D03*
%TD*%
D22*
%TO.C,U9*%
X142159500Y-95291000D03*
X142159500Y-95941000D03*
X142159500Y-96591000D03*
X142159500Y-97241000D03*
X146384500Y-97241000D03*
X146384500Y-96591000D03*
X146384500Y-95941000D03*
X146384500Y-95291000D03*
%TD*%
D29*
%TO.C,U23*%
X160481500Y-114030000D03*
X160481500Y-113530000D03*
X160481500Y-113030000D03*
X160481500Y-112530000D03*
X160481500Y-112030000D03*
X156256500Y-112030000D03*
X156256500Y-112530000D03*
X156256500Y-113030000D03*
X156256500Y-113530000D03*
X156256500Y-114030000D03*
%TD*%
D30*
%TO.C,Q1*%
X100886500Y-124775000D03*
X100886500Y-122875000D03*
X99011500Y-123825000D03*
%TD*%
D25*
%TO.C,R7*%
X94679000Y-105029000D03*
X96329000Y-105029000D03*
%TD*%
D12*
%TO.C,R42*%
X128968000Y-125095000D03*
X127318000Y-125095000D03*
%TD*%
%TO.C,R26*%
X128968000Y-103251000D03*
X127318000Y-103251000D03*
%TD*%
%TO.C,R67*%
X113220000Y-124460000D03*
X111570000Y-124460000D03*
%TD*%
D31*
%TO.C,R65*%
X178816000Y-90868000D03*
X178816000Y-89218000D03*
%TD*%
D22*
%TO.C,U10*%
X142159500Y-99609000D03*
X142159500Y-100259000D03*
X142159500Y-100909000D03*
X142159500Y-101559000D03*
X146384500Y-101559000D03*
X146384500Y-100909000D03*
X146384500Y-100259000D03*
X146384500Y-99609000D03*
%TD*%
D25*
%TO.C,R35*%
X162370000Y-95123000D03*
X164020000Y-95123000D03*
%TD*%
D30*
%TO.C,U24*%
X108633500Y-133538000D03*
X108633500Y-131638000D03*
X106758500Y-132588000D03*
%TD*%
D24*
%TO.C,C64*%
X113297000Y-128270000D03*
X111747000Y-128270000D03*
%TD*%
D31*
%TO.C,R8*%
X103860600Y-108902000D03*
X103860600Y-107252000D03*
%TD*%
D20*
%TO.C,C28*%
X151384000Y-101994000D03*
X151384000Y-100444000D03*
%TD*%
D25*
%TO.C,R34*%
X162370000Y-93599000D03*
X164020000Y-93599000D03*
%TD*%
D12*
%TO.C,R44*%
X137096000Y-110490000D03*
X135446000Y-110490000D03*
%TD*%
D17*
%TO.C,C22*%
X138557000Y-96253000D03*
X138557000Y-97803000D03*
%TD*%
D25*
%TO.C,R64*%
X102680000Y-122809000D03*
X104330000Y-122809000D03*
%TD*%
D17*
%TO.C,C59*%
X110363000Y-131686000D03*
X110363000Y-133236000D03*
%TD*%
D25*
%TO.C,R31*%
X162370000Y-101981000D03*
X164020000Y-101981000D03*
%TD*%
D21*
%TO.C,C61*%
X111620000Y-121412000D03*
X113170000Y-121412000D03*
%TD*%
D22*
%TO.C,U13*%
X156764500Y-107737000D03*
X156764500Y-108387000D03*
X156764500Y-109037000D03*
X156764500Y-109687000D03*
X160989500Y-109687000D03*
X160989500Y-109037000D03*
X160989500Y-108387000D03*
X160989500Y-107737000D03*
%TD*%
D25*
%TO.C,R49*%
X135446000Y-113538000D03*
X137096000Y-113538000D03*
%TD*%
%TO.C,R69*%
X108395000Y-116840000D03*
X110045000Y-116840000D03*
%TD*%
D21*
%TO.C,C32*%
X162420000Y-92075000D03*
X163970000Y-92075000D03*
%TD*%
D25*
%TO.C,R45*%
X132398000Y-110490000D03*
X134048000Y-110490000D03*
%TD*%
%TO.C,R46*%
X135446000Y-112014000D03*
X137096000Y-112014000D03*
%TD*%
D21*
%TO.C,C4*%
X113118600Y-101600000D03*
X114668600Y-101600000D03*
%TD*%
D32*
%TO.C,U16*%
X136605500Y-117053000D03*
X136605500Y-116403000D03*
X136605500Y-115753000D03*
X136605500Y-115103000D03*
X132380500Y-115103000D03*
X132380500Y-115753000D03*
X132380500Y-116403000D03*
X132380500Y-117053000D03*
%TD*%
D20*
%TO.C,C47*%
X151384000Y-124346000D03*
X151384000Y-122796000D03*
%TD*%
D26*
%TO.C,R58*%
X160970500Y-127762000D03*
X163895500Y-127762000D03*
%TD*%
D33*
%TO.C,L1*%
X100610000Y-117602000D03*
X103860000Y-117602000D03*
%TD*%
D20*
%TO.C,C53*%
X154940000Y-131458000D03*
X154940000Y-129908000D03*
%TD*%
%TO.C,C49*%
X160782000Y-124346000D03*
X160782000Y-122796000D03*
%TD*%
D17*
%TO.C,C35*%
X152908000Y-89776000D03*
X152908000Y-91326000D03*
%TD*%
D25*
%TO.C,R71*%
X136589000Y-132461000D03*
X138239000Y-132461000D03*
%TD*%
D17*
%TO.C,C39*%
X138557000Y-117843000D03*
X138557000Y-119393000D03*
%TD*%
D25*
%TO.C,R61*%
X162370000Y-118999000D03*
X164020000Y-118999000D03*
%TD*%
D34*
%TO.C,U2*%
X123689000Y-103870000D03*
X123689000Y-103370000D03*
X123689000Y-102870000D03*
X123689000Y-102370000D03*
X123689000Y-101870000D03*
X119389000Y-101870000D03*
X119389000Y-102370000D03*
X119389000Y-102870000D03*
X119389000Y-103370000D03*
X119389000Y-103870000D03*
%TD*%
D26*
%TO.C,R33*%
X160970500Y-105410000D03*
X163895500Y-105410000D03*
%TD*%
D20*
%TO.C,C27*%
X140208000Y-101613000D03*
X140208000Y-100063000D03*
%TD*%
%TO.C,C43*%
X148336000Y-114567000D03*
X148336000Y-113017000D03*
%TD*%
D12*
%TO.C,R73*%
X127444000Y-131826000D03*
X125794000Y-131826000D03*
%TD*%
%TO.C,R18*%
X128968000Y-101092000D03*
X127318000Y-101092000D03*
%TD*%
%TO.C,R20*%
X134048000Y-96266000D03*
X132398000Y-96266000D03*
%TD*%
D33*
%TO.C,L2*%
X109448000Y-127508000D03*
X106198000Y-127508000D03*
%TD*%
D25*
%TO.C,R36*%
X162370000Y-96647000D03*
X164020000Y-96647000D03*
%TD*%
%TO.C,R50*%
X132398000Y-113538000D03*
X134048000Y-113538000D03*
%TD*%
%TO.C,R72*%
X136589000Y-130937000D03*
X138239000Y-130937000D03*
%TD*%
D28*
%TO.C,S1*%
X109754000Y-89154000D03*
X113004000Y-89154000D03*
%TD*%
D25*
%TO.C,R54*%
X151829000Y-129159000D03*
X153479000Y-129159000D03*
%TD*%
D32*
%TO.C,U7*%
X136605500Y-99781000D03*
X136605500Y-99131000D03*
X136605500Y-98481000D03*
X136605500Y-97831000D03*
X132380500Y-97831000D03*
X132380500Y-98481000D03*
X132380500Y-99131000D03*
X132380500Y-99781000D03*
%TD*%
D35*
%TO.C,R9*%
X107696000Y-107252000D03*
X107696000Y-108902000D03*
%TD*%
D36*
%TO.C,D4*%
X106299000Y-116283500D03*
X106299000Y-118158500D03*
%TD*%
D21*
%TO.C,C11*%
X119240000Y-122682000D03*
X120790000Y-122682000D03*
%TD*%
%TO.C,C10*%
X119240000Y-105537000D03*
X120790000Y-105537000D03*
%TD*%
D37*
%TO.C,D3*%
X180594000Y-91107500D03*
X180594000Y-89232500D03*
%TD*%
D38*
%TO.C,U4*%
X124849000Y-112892000D03*
X124849000Y-112242000D03*
X124849000Y-111592000D03*
X124849000Y-110942000D03*
X124849000Y-110292000D03*
X124849000Y-109642000D03*
X124849000Y-108992000D03*
X124849000Y-108342000D03*
X119124000Y-108342000D03*
X119124000Y-108992000D03*
X119124000Y-109642000D03*
X119124000Y-110292000D03*
X119124000Y-110942000D03*
X119124000Y-111592000D03*
X119124000Y-112242000D03*
X119124000Y-112892000D03*
%TD*%
D20*
%TO.C,C31*%
X160782000Y-95136000D03*
X160782000Y-93586000D03*
%TD*%
D24*
%TO.C,C69*%
X127394000Y-133350000D03*
X125844000Y-133350000D03*
%TD*%
D39*
%TO.C,D5*%
X111457500Y-126365000D03*
X113332500Y-126365000D03*
%TD*%
D40*
%TO.C,U25*%
X105950000Y-120543000D03*
X105950000Y-121043000D03*
X105950000Y-121543000D03*
X105950000Y-122043000D03*
X105950000Y-122543000D03*
X105950000Y-123043000D03*
D41*
X106700000Y-123793000D03*
X107200000Y-123793000D03*
X107700000Y-123793000D03*
X108200000Y-123793000D03*
X108700000Y-123793000D03*
X109200000Y-123793000D03*
D40*
X109950000Y-123043000D03*
X109950000Y-122543000D03*
X109950000Y-122043000D03*
X109950000Y-121543000D03*
X109950000Y-121043000D03*
X109950000Y-120543000D03*
D41*
X109200000Y-119793000D03*
X108700000Y-119793000D03*
X108200000Y-119793000D03*
X107700000Y-119793000D03*
X107200000Y-119793000D03*
X106700000Y-119793000D03*
%TD*%
D12*
%TO.C,R51*%
X128968000Y-120523000D03*
X127318000Y-120523000D03*
%TD*%
D32*
%TO.C,U15*%
X136605500Y-121371000D03*
X136605500Y-120721000D03*
X136605500Y-120071000D03*
X136605500Y-119421000D03*
X132380500Y-119421000D03*
X132380500Y-120071000D03*
X132380500Y-120721000D03*
X132380500Y-121371000D03*
%TD*%
D17*
%TO.C,C40*%
X130429000Y-113525000D03*
X130429000Y-115075000D03*
%TD*%
%TO.C,C13*%
X125349000Y-121780000D03*
X125349000Y-123330000D03*
%TD*%
D20*
%TO.C,C29*%
X151384000Y-95136000D03*
X151384000Y-93586000D03*
%TD*%
D25*
%TO.C,R19*%
X135446000Y-96266000D03*
X137096000Y-96266000D03*
%TD*%
D21*
%TO.C,C1*%
X113118600Y-100076000D03*
X114668600Y-100076000D03*
%TD*%
D42*
%TO.C,U8*%
X140010000Y-103755000D03*
X140010000Y-104405000D03*
X140010000Y-105055000D03*
X140010000Y-105705000D03*
X140010000Y-106355000D03*
X140010000Y-107005000D03*
X140010000Y-107655000D03*
X140010000Y-108305000D03*
X140010000Y-108955000D03*
X140010000Y-109605000D03*
X147010000Y-109605000D03*
X147010000Y-108955000D03*
X147010000Y-108305000D03*
X147010000Y-107655000D03*
X147010000Y-107005000D03*
X147010000Y-106355000D03*
X147010000Y-105705000D03*
X147010000Y-105055000D03*
X147010000Y-104405000D03*
X147010000Y-103755000D03*
%TD*%
D17*
%TO.C,C5*%
X106273600Y-93713000D03*
X106273600Y-95263000D03*
%TD*%
D21*
%TO.C,C16*%
X122288000Y-122682000D03*
X123838000Y-122682000D03*
%TD*%
D12*
%TO.C,R43*%
X128968000Y-118364000D03*
X127318000Y-118364000D03*
%TD*%
D34*
%TO.C,U3*%
X123689000Y-121015000D03*
X123689000Y-120515000D03*
X123689000Y-120015000D03*
X123689000Y-119515000D03*
X123689000Y-119015000D03*
X119389000Y-119015000D03*
X119389000Y-119515000D03*
X119389000Y-120015000D03*
X119389000Y-120515000D03*
X119389000Y-121015000D03*
%TD*%
D12*
%TO.C,R52*%
X153479000Y-132207000D03*
X151829000Y-132207000D03*
%TD*%
D20*
%TO.C,C34*%
X154940000Y-109233000D03*
X154940000Y-107683000D03*
%TD*%
%TO.C,C3*%
X111353600Y-110630000D03*
X111353600Y-109080000D03*
%TD*%
D24*
%TO.C,C56*%
X104280000Y-124333000D03*
X102730000Y-124333000D03*
%TD*%
D21*
%TO.C,C63*%
X99555000Y-126365000D03*
X101105000Y-126365000D03*
%TD*%
D38*
%TO.C,U27*%
X134942500Y-132420000D03*
X134942500Y-131770000D03*
X134942500Y-131120000D03*
X134942500Y-130470000D03*
X129217500Y-130470000D03*
X129217500Y-131120000D03*
X129217500Y-131770000D03*
X129217500Y-132420000D03*
%TD*%
D25*
%TO.C,R22*%
X132398000Y-94742000D03*
X134048000Y-94742000D03*
%TD*%
D21*
%TO.C,C65*%
X100444000Y-132080000D03*
X101994000Y-132080000D03*
%TD*%
%TO.C,C66*%
X103492000Y-132080000D03*
X105042000Y-132080000D03*
%TD*%
D12*
%TO.C,R12*%
X128968000Y-93472000D03*
X127318000Y-93472000D03*
%TD*%
D22*
%TO.C,U19*%
X142159500Y-116881000D03*
X142159500Y-117531000D03*
X142159500Y-118181000D03*
X142159500Y-118831000D03*
X146384500Y-118831000D03*
X146384500Y-118181000D03*
X146384500Y-117531000D03*
X146384500Y-116881000D03*
%TD*%
D17*
%TO.C,C37*%
X137922000Y-123304000D03*
X137922000Y-124854000D03*
%TD*%
D12*
%TO.C,R13*%
X128968000Y-106299000D03*
X127318000Y-106299000D03*
%TD*%
D17*
%TO.C,C9*%
X117221000Y-110350000D03*
X117221000Y-111900000D03*
%TD*%
D16*
%TO.C,U11*%
X153220500Y-100722000D03*
X153220500Y-101372000D03*
X153220500Y-102022000D03*
X153220500Y-102672000D03*
X153220500Y-103322000D03*
X153220500Y-103972000D03*
X153220500Y-104622000D03*
X153220500Y-105272000D03*
X158945500Y-105272000D03*
X158945500Y-104622000D03*
X158945500Y-103972000D03*
X158945500Y-103322000D03*
X158945500Y-102672000D03*
X158945500Y-102022000D03*
X158945500Y-101372000D03*
X158945500Y-100722000D03*
%TD*%
D25*
%TO.C,R4*%
X104077000Y-89535000D03*
X105727000Y-89535000D03*
%TD*%
D22*
%TO.C,U22*%
X156764500Y-130089000D03*
X156764500Y-130739000D03*
X156764500Y-131389000D03*
X156764500Y-132039000D03*
X160989500Y-132039000D03*
X160989500Y-131389000D03*
X160989500Y-130739000D03*
X160989500Y-130089000D03*
%TD*%
D25*
%TO.C,R29*%
X151829000Y-106807000D03*
X153479000Y-106807000D03*
%TD*%
%TO.C,R55*%
X162370000Y-122809000D03*
X164020000Y-122809000D03*
%TD*%
D21*
%TO.C,C15*%
X122288000Y-105537000D03*
X123838000Y-105537000D03*
%TD*%
%TO.C,C67*%
X100444000Y-133604000D03*
X101994000Y-133604000D03*
%TD*%
D43*
%TO.C,Y1*%
X111291600Y-107442000D03*
X109891600Y-107442000D03*
%TD*%
D12*
%TO.C,R24*%
X137096000Y-93218000D03*
X135446000Y-93218000D03*
%TD*%
D26*
%TO.C,R62*%
X160970500Y-120904000D03*
X163895500Y-120904000D03*
%TD*%
D25*
%TO.C,R5*%
X94679000Y-117221000D03*
X96329000Y-117221000D03*
%TD*%
%TO.C,R3*%
X104077000Y-91059000D03*
X105727000Y-91059000D03*
%TD*%
D12*
%TO.C,R47*%
X134048000Y-112014000D03*
X132398000Y-112014000D03*
%TD*%
%TO.C,R48*%
X128968000Y-113792000D03*
X127318000Y-113792000D03*
%TD*%
D25*
%TO.C,R59*%
X162370000Y-115951000D03*
X164020000Y-115951000D03*
%TD*%
D17*
%TO.C,C23*%
X149098000Y-106540000D03*
X149098000Y-108090000D03*
%TD*%
D12*
%TO.C,R74*%
X127444000Y-130302000D03*
X125794000Y-130302000D03*
%TD*%
D29*
%TO.C,U14*%
X160481500Y-91678000D03*
X160481500Y-91178000D03*
X160481500Y-90678000D03*
X160481500Y-90178000D03*
X160481500Y-89678000D03*
X156256500Y-89678000D03*
X156256500Y-90178000D03*
X156256500Y-90678000D03*
X156256500Y-91178000D03*
X156256500Y-91678000D03*
%TD*%
D21*
%TO.C,C7*%
X99529600Y-101981000D03*
X101079600Y-101981000D03*
%TD*%
D25*
%TO.C,R60*%
X162370000Y-117475000D03*
X164020000Y-117475000D03*
%TD*%
%TO.C,R11*%
X127318000Y-94996000D03*
X128968000Y-94996000D03*
%TD*%
D31*
%TO.C,R70*%
X178816000Y-132778000D03*
X178816000Y-131128000D03*
%TD*%
D25*
%TO.C,R63*%
X102680000Y-125857000D03*
X104330000Y-125857000D03*
%TD*%
D16*
%TO.C,U21*%
X153220500Y-116216000D03*
X153220500Y-116866000D03*
X153220500Y-117516000D03*
X153220500Y-118166000D03*
X153220500Y-118816000D03*
X153220500Y-119466000D03*
X153220500Y-120116000D03*
X153220500Y-120766000D03*
X158945500Y-120766000D03*
X158945500Y-120116000D03*
X158945500Y-119466000D03*
X158945500Y-118816000D03*
X158945500Y-118166000D03*
X158945500Y-117516000D03*
X158945500Y-116866000D03*
X158945500Y-116216000D03*
%TD*%
%TO.C,U20*%
X153220500Y-123074000D03*
X153220500Y-123724000D03*
X153220500Y-124374000D03*
X153220500Y-125024000D03*
X153220500Y-125674000D03*
X153220500Y-126324000D03*
X153220500Y-126974000D03*
X153220500Y-127624000D03*
X158945500Y-127624000D03*
X158945500Y-126974000D03*
X158945500Y-126324000D03*
X158945500Y-125674000D03*
X158945500Y-125024000D03*
X158945500Y-124374000D03*
X158945500Y-123724000D03*
X158945500Y-123074000D03*
%TD*%
D20*
%TO.C,C24*%
X148336000Y-97295000D03*
X148336000Y-95745000D03*
%TD*%
D21*
%TO.C,C6*%
X99529600Y-98679000D03*
X101079600Y-98679000D03*
%TD*%
D32*
%TO.C,U6*%
X136605500Y-104099000D03*
X136605500Y-103449000D03*
X136605500Y-102799000D03*
X136605500Y-102149000D03*
X132380500Y-102149000D03*
X132380500Y-102799000D03*
X132380500Y-103449000D03*
X132380500Y-104099000D03*
%TD*%
D12*
%TO.C,R66*%
X113220000Y-122936000D03*
X111570000Y-122936000D03*
%TD*%
D21*
%TO.C,C60*%
X108445000Y-118364000D03*
X109995000Y-118364000D03*
%TD*%
D42*
%TO.C,U17*%
X140010000Y-121027000D03*
X140010000Y-121677000D03*
X140010000Y-122327000D03*
X140010000Y-122977000D03*
X140010000Y-123627000D03*
X140010000Y-124277000D03*
X140010000Y-124927000D03*
X140010000Y-125577000D03*
X140010000Y-126227000D03*
X140010000Y-126877000D03*
X147010000Y-126877000D03*
X147010000Y-126227000D03*
X147010000Y-125577000D03*
X147010000Y-124927000D03*
X147010000Y-124277000D03*
X147010000Y-123627000D03*
X147010000Y-122977000D03*
X147010000Y-122327000D03*
X147010000Y-121677000D03*
X147010000Y-121027000D03*
%TD*%
D17*
%TO.C,C18*%
X137922000Y-106032000D03*
X137922000Y-107582000D03*
%TD*%
D25*
%TO.C,R32*%
X162370000Y-103505000D03*
X164020000Y-103505000D03*
%TD*%
%TO.C,R1*%
X101029000Y-91059000D03*
X102679000Y-91059000D03*
%TD*%
D44*
%TO.C,J2*%
X96957000Y-107925000D03*
X96957000Y-108725000D03*
D45*
X96957000Y-109875000D03*
X96957000Y-110875000D03*
X96957000Y-111375000D03*
X96957000Y-112375000D03*
D44*
X96957000Y-114325000D03*
X96957000Y-113525000D03*
D45*
X96957000Y-112875000D03*
X96957000Y-111875000D03*
X96957000Y-110375000D03*
X96957000Y-109375000D03*
%TD*%
D17*
%TO.C,C20*%
X138557000Y-100571000D03*
X138557000Y-102121000D03*
%TD*%
D12*
%TO.C,R41*%
X128968000Y-115316000D03*
X127318000Y-115316000D03*
%TD*%
D20*
%TO.C,C44*%
X140208000Y-114567000D03*
X140208000Y-113017000D03*
%TD*%
%TO.C,C48*%
X151384000Y-117488000D03*
X151384000Y-115938000D03*
%TD*%
D46*
%TO.C,U1*%
X110811000Y-96896000D03*
X110311000Y-96896000D03*
X109811000Y-96896000D03*
X109311000Y-96896000D03*
X108811000Y-96896000D03*
X108311000Y-96896000D03*
X107811000Y-96896000D03*
X107311000Y-96896000D03*
X106811000Y-96896000D03*
X106311000Y-96896000D03*
X105811000Y-96896000D03*
X105311000Y-96896000D03*
X104811000Y-96896000D03*
X104311000Y-96896000D03*
X103811000Y-96896000D03*
X103311000Y-96896000D03*
D47*
X102611000Y-97596000D03*
X102611000Y-98096000D03*
X102611000Y-98596000D03*
X102611000Y-99096000D03*
X102611000Y-99596000D03*
X102611000Y-100096000D03*
X102611000Y-100596000D03*
X102611000Y-101096000D03*
X102611000Y-101596000D03*
X102611000Y-102096000D03*
X102611000Y-102596000D03*
X102611000Y-103096000D03*
X102611000Y-103596000D03*
X102611000Y-104096000D03*
X102611000Y-104596000D03*
X102611000Y-105096000D03*
D46*
X103311000Y-105796000D03*
X103811000Y-105796000D03*
X104311000Y-105796000D03*
X104811000Y-105796000D03*
X105311000Y-105796000D03*
X105811000Y-105796000D03*
X106311000Y-105796000D03*
X106811000Y-105796000D03*
X107311000Y-105796000D03*
X107811000Y-105796000D03*
X108311000Y-105796000D03*
X108811000Y-105796000D03*
X109311000Y-105796000D03*
X109811000Y-105796000D03*
X110311000Y-105796000D03*
X110811000Y-105796000D03*
D47*
X111511000Y-105096000D03*
X111511000Y-104596000D03*
X111511000Y-104096000D03*
X111511000Y-103596000D03*
X111511000Y-103096000D03*
X111511000Y-102596000D03*
X111511000Y-102096000D03*
X111511000Y-101596000D03*
X111511000Y-101096000D03*
X111511000Y-100596000D03*
X111511000Y-100096000D03*
X111511000Y-99596000D03*
X111511000Y-99096000D03*
X111511000Y-98596000D03*
X111511000Y-98096000D03*
X111511000Y-97596000D03*
%TD*%
D37*
%TO.C,D6*%
X180594000Y-133017500D03*
X180594000Y-131142500D03*
%TD*%
D25*
%TO.C,R56*%
X162370000Y-124333000D03*
X164020000Y-124333000D03*
%TD*%
D12*
%TO.C,R21*%
X137096000Y-94742000D03*
X135446000Y-94742000D03*
%TD*%
D20*
%TO.C,C45*%
X148336000Y-118885000D03*
X148336000Y-117335000D03*
%TD*%
M02*
